<svg width="50" height="50" viewBox="0 0 50 50" fill="none" xmlns="http://www.w3.org/2000/svg">
<g id="decentralize-api-sdk 4">
<g id="Vector" filter="url(#filter0_i_83_284)">
<path d="M42.9246 33.8358L27.2169 24.9999L42.9246 16.164C43.1649 16.0173 43.339 15.7831 43.4101 15.5106C43.4812 15.2381 43.4437 14.9487 43.3057 14.7032C43.1676 14.4578 42.9397 14.2756 42.6699 14.1948C42.4001 14.1141 42.1095 14.1413 41.8593 14.2705L26.0876 23.1423V5.43467C26.0876 5.14639 25.9731 4.86992 25.7692 4.66608C25.5654 4.46224 25.2889 4.34772 25.0006 4.34772C24.7124 4.34772 24.4359 4.46224 24.232 4.66608C24.0282 4.86992 23.9137 5.14639 23.9137 5.43467V23.1423L8.14195 14.2705C7.89177 14.1413 7.60119 14.1141 7.33141 14.1948C7.06162 14.2756 6.83369 14.4578 6.69561 14.7032C6.55754 14.9487 6.52011 15.2381 6.5912 15.5106C6.66229 15.7831 6.83635 16.0173 7.07673 16.164L22.7843 24.9999L7.07673 33.8358C6.86761 33.9537 6.70343 34.1376 6.60981 34.3587C6.51619 34.5798 6.49841 34.8256 6.55924 35.0579C6.62006 35.2901 6.75608 35.4957 6.94604 35.6425C7.13601 35.7894 7.36925 35.8691 7.60934 35.8695C7.79569 35.8697 7.97889 35.8214 8.14086 35.7292L23.9137 26.8575V44.5651C23.9137 44.8534 24.0282 45.1299 24.232 45.3337C24.4359 45.5375 24.7124 45.6521 25.0006 45.6521C25.2889 45.6521 25.5654 45.5375 25.7692 45.3337C25.9731 45.1299 26.0876 44.8534 26.0876 44.5651V26.8575L41.8593 35.7292C42.0216 35.8216 42.2052 35.8699 42.3919 35.8695C42.6321 35.8694 42.8655 35.7898 43.0557 35.643C43.2458 35.4963 43.382 35.2907 43.443 35.0584C43.504 34.8261 43.4863 34.5801 43.3927 34.3589C43.2991 34.1377 43.1338 33.9538 42.9246 33.8358Z" fill="url(#paint0_linear_83_284)"/>
</g>
<g id="accent" filter="url(#filter1_bi_83_284)">
<path d="M25 30.4349C23.9251 30.4349 22.8743 30.1161 21.9806 29.519C21.0868 28.9218 20.3902 28.073 19.9789 27.0799C19.5675 26.0868 19.4599 24.9941 19.6696 23.9398C19.8793 22.8856 20.3969 21.9172 21.157 21.1571C21.9171 20.3971 22.8855 19.8794 23.9397 19.6697C24.9939 19.46 26.0867 19.5677 27.0798 19.979C28.0729 20.3904 28.9216 21.0869 29.5188 21.9807C30.116 22.8744 30.4348 23.9252 30.4348 25.0001C30.433 26.441 29.8599 27.8223 28.841 28.8412C27.8222 29.86 26.4408 30.4332 25 30.4349Z" fill="#1D1D1D" fill-opacity="0.05"/>
<path d="M25 30.4349C23.9251 30.4349 22.8743 30.1161 21.9806 29.519C21.0868 28.9218 20.3902 28.073 19.9789 27.0799C19.5675 26.0868 19.4599 24.9941 19.6696 23.9398C19.8793 22.8856 20.3969 21.9172 21.157 21.1571C21.9171 20.3971 22.8855 19.8794 23.9397 19.6697C24.9939 19.46 26.0867 19.5677 27.0798 19.979C28.0729 20.3904 28.9216 21.0869 29.5188 21.9807C30.116 22.8744 30.4348 23.9252 30.4348 25.0001C30.433 26.441 29.8599 27.8223 28.841 28.8412C27.8222 29.86 26.4408 30.4332 25 30.4349Z" fill="url(#paint1_linear_83_284)"/>
<path d="M22.3139 29.0201C23.109 29.5513 24.0437 29.8349 25 29.8349C26.2817 29.8332 27.5104 29.3232 28.4168 28.4169C29.3231 27.5106 29.833 26.2818 29.8348 25.0001L22.3139 29.0201ZM22.3139 29.0201C21.5188 28.4888 20.8991 27.7337 20.5332 26.8503M22.3139 29.0201L20.5332 26.8503M20.5332 26.8503C20.1673 25.9668 20.0715 24.9947 20.2581 24.0569M20.5332 26.8503L20.2581 24.0569M20.2581 24.0569C20.4446 23.119 20.9051 22.2575 21.5813 21.5814M20.2581 24.0569L21.5813 21.5814M21.5813 21.5814C22.2574 20.9052 23.1189 20.4448 24.0568 20.2582M21.5813 21.5814L24.0568 20.2582M24.0568 20.2582C24.9946 20.0717 25.9667 20.1674 26.8502 20.5333M24.0568 20.2582L26.8502 20.5333M26.8502 20.5333C27.7336 20.8993 28.4887 21.519 29.0199 22.314M26.8502 20.5333L29.0199 22.314M29.0199 22.314C29.5511 23.1089 29.8346 24.0434 29.8348 24.9994L29.0199 22.314Z" stroke="url(#paint2_linear_83_284)" stroke-opacity="0.1" stroke-width="1.2"/>
</g>
<g id="glass" filter="url(#filter2_bi_83_284)">
<path d="M42.3913 20.6522C45.3929 20.6522 47.8261 18.219 47.8261 15.2174C47.8261 12.2159 45.3929 9.78265 42.3913 9.78265C39.3898 9.78265 36.9565 12.2159 36.9565 15.2174C36.9565 18.219 39.3898 20.6522 42.3913 20.6522Z" fill="#1D1D1D" fill-opacity="0.05"/>
<path d="M42.3913 20.6522C45.3929 20.6522 47.8261 18.219 47.8261 15.2174C47.8261 12.2159 45.3929 9.78265 42.3913 9.78265C39.3898 9.78265 36.9565 12.2159 36.9565 15.2174C36.9565 18.219 39.3898 20.6522 42.3913 20.6522Z" fill="url(#paint3_linear_83_284)"/>
<path d="M47.2261 15.2174C47.2261 17.8876 45.0615 20.0522 42.3913 20.0522C39.7211 20.0522 37.5565 17.8876 37.5565 15.2174C37.5565 12.5473 39.7211 10.3827 42.3913 10.3827C45.0615 10.3827 47.2261 12.5473 47.2261 15.2174Z" stroke="url(#paint4_linear_83_284)" stroke-opacity="0.1" stroke-width="1.2"/>
</g>
<g id="Vector_2" filter="url(#filter3_i_83_284)">
<path d="M42.3912 35.8695C42.1029 35.8695 41.8265 35.755 41.6226 35.5511C41.4188 35.3473 41.3043 35.0708 41.3043 34.7825V15.2173C41.3043 14.929 41.4188 14.6526 41.6226 14.4487C41.8265 14.2449 42.1029 14.1304 42.3912 14.1304C42.6795 14.1304 42.956 14.2449 43.1598 14.4487C43.3637 14.6526 43.4782 14.929 43.4782 15.2173V34.7825C43.4782 35.0708 43.3637 35.3473 43.1598 35.5511C42.956 35.755 42.6795 35.8695 42.3912 35.8695Z" fill="url(#paint5_linear_83_284)"/>
</g>
<g id="glass_2" filter="url(#filter4_bi_83_284)">
<path d="M42.3913 40.2173C45.3929 40.2173 47.8261 37.784 47.8261 34.7825C47.8261 31.781 45.3929 29.3477 42.3913 29.3477C39.3898 29.3477 36.9565 31.781 36.9565 34.7825C36.9565 37.784 39.3898 40.2173 42.3913 40.2173Z" fill="#1D1D1D" fill-opacity="0.05"/>
<path d="M42.3913 40.2173C45.3929 40.2173 47.8261 37.784 47.8261 34.7825C47.8261 31.781 45.3929 29.3477 42.3913 29.3477C39.3898 29.3477 36.9565 31.781 36.9565 34.7825C36.9565 37.784 39.3898 40.2173 42.3913 40.2173Z" fill="url(#paint6_linear_83_284)"/>
<path d="M47.2261 34.7825C47.2261 37.4527 45.0615 39.6173 42.3913 39.6173C39.7211 39.6173 37.5565 37.4527 37.5565 34.7825C37.5565 32.1123 39.7211 29.9477 42.3913 29.9477C45.0615 29.9477 47.2261 32.1123 47.2261 34.7825Z" stroke="url(#paint7_linear_83_284)" stroke-opacity="0.1" stroke-width="1.2"/>
</g>
<g id="Vector_3" filter="url(#filter5_i_83_284)">
<path d="M24.9996 45.6524C24.7594 45.6523 24.526 45.5727 24.3358 45.426C24.1457 45.2792 24.0095 45.0737 23.9485 44.8413C23.8876 44.609 23.9053 44.3631 23.9989 44.1419C24.0925 43.9207 24.2567 43.7367 24.4659 43.6187L41.8572 33.8361C42.1074 33.7068 42.3979 33.6797 42.6677 33.7604C42.9375 33.8411 43.1654 34.0234 43.3035 34.2688C43.4416 34.5142 43.479 34.8037 43.4079 35.0761C43.3368 35.3486 43.1628 35.5829 42.9224 35.7296L25.5311 45.5122C25.3691 45.6043 25.1859 45.6527 24.9996 45.6524Z" fill="url(#paint8_linear_83_284)"/>
</g>
<g id="glass_3" filter="url(#filter6_bi_83_284)">
<path d="M25 49.9999C28.0015 49.9999 30.4348 47.5667 30.4348 44.5652C30.4348 41.5636 28.0015 39.1304 25 39.1304C21.9984 39.1304 19.5652 41.5636 19.5652 44.5652C19.5652 47.5667 21.9984 49.9999 25 49.9999Z" fill="#1D1D1D" fill-opacity="0.05"/>
<path d="M25 49.9999C28.0015 49.9999 30.4348 47.5667 30.4348 44.5652C30.4348 41.5636 28.0015 39.1304 25 39.1304C21.9984 39.1304 19.5652 41.5636 19.5652 44.5652C19.5652 47.5667 21.9984 49.9999 25 49.9999Z" fill="url(#paint9_linear_83_284)"/>
<path d="M29.8348 44.5652C29.8348 47.2353 27.6701 49.3999 25 49.3999C22.3298 49.3999 20.1652 47.2353 20.1652 44.5652C20.1652 41.895 22.3298 39.7304 25 39.7304C27.6701 39.7304 29.8348 41.895 29.8348 44.5652Z" stroke="url(#paint10_linear_83_284)" stroke-opacity="0.1" stroke-width="1.2"/>
</g>
<g id="Vector_4" filter="url(#filter7_i_83_284)">
<path d="M24.9992 45.6524C24.8129 45.6527 24.6297 45.6043 24.4677 45.5122L7.07642 35.7296C6.83604 35.5829 6.66198 35.3486 6.59089 35.0761C6.5198 34.8037 6.55723 34.5142 6.6953 34.2688C6.83337 34.0234 7.06131 33.8411 7.33109 33.7604C7.60088 33.6797 7.89146 33.7068 8.14163 33.8361L25.5329 43.6187C25.7421 43.7367 25.9064 43.9207 26 44.1419C26.0936 44.3631 26.1113 44.609 26.0503 44.8413C25.9893 45.0737 25.8531 45.2792 25.663 45.426C25.4728 45.5727 25.2394 45.6523 24.9992 45.6524Z" fill="url(#paint11_linear_83_284)"/>
</g>
<g id="glass_4" filter="url(#filter8_bi_83_284)">
<path d="M7.60866 40.2173C10.6102 40.2173 13.0434 37.784 13.0434 34.7825C13.0434 31.781 10.6102 29.3477 7.60866 29.3477C4.60711 29.3477 2.17387 31.781 2.17387 34.7825C2.17387 37.784 4.60711 40.2173 7.60866 40.2173Z" fill="#1D1D1D" fill-opacity="0.05"/>
<path d="M7.60866 40.2173C10.6102 40.2173 13.0434 37.784 13.0434 34.7825C13.0434 31.781 10.6102 29.3477 7.60866 29.3477C4.60711 29.3477 2.17387 31.781 2.17387 34.7825C2.17387 37.784 4.60711 40.2173 7.60866 40.2173Z" fill="url(#paint12_linear_83_284)"/>
<path d="M12.4434 34.7825C12.4434 37.4527 10.2788 39.6173 7.60866 39.6173C4.93848 39.6173 2.77387 37.4527 2.77387 34.7825C2.77387 32.1123 4.93848 29.9477 7.60866 29.9477C10.2788 29.9477 12.4434 32.1123 12.4434 34.7825Z" stroke="url(#paint13_linear_83_284)" stroke-opacity="0.1" stroke-width="1.2"/>
</g>
<g id="Vector_5" filter="url(#filter9_i_83_284)">
<path d="M7.60869 35.8695C7.32041 35.8695 7.04393 35.755 6.84009 35.5511C6.63625 35.3473 6.52173 35.0708 6.52173 34.7825V15.2173C6.52173 14.929 6.63625 14.6526 6.84009 14.4487C7.04393 14.2449 7.32041 14.1304 7.60869 14.1304C7.89696 14.1304 8.17344 14.2449 8.37728 14.4487C8.58112 14.6526 8.69564 14.929 8.69564 15.2173V34.7825C8.69564 35.0708 8.58112 35.3473 8.37728 35.5511C8.17344 35.755 7.89696 35.8695 7.60869 35.8695Z" fill="url(#paint14_linear_83_284)"/>
</g>
<g id="glass_5" filter="url(#filter10_bi_83_284)">
<path d="M7.60866 20.6522C10.6102 20.6522 13.0434 18.219 13.0434 15.2174C13.0434 12.2159 10.6102 9.78265 7.60866 9.78265C4.60711 9.78265 2.17387 12.2159 2.17387 15.2174C2.17387 18.219 4.60711 20.6522 7.60866 20.6522Z" fill="#1D1D1D" fill-opacity="0.05"/>
<path d="M7.60866 20.6522C10.6102 20.6522 13.0434 18.219 13.0434 15.2174C13.0434 12.2159 10.6102 9.78265 7.60866 9.78265C4.60711 9.78265 2.17387 12.2159 2.17387 15.2174C2.17387 18.219 4.60711 20.6522 7.60866 20.6522Z" fill="url(#paint15_linear_83_284)"/>
<path d="M12.4434 15.2174C12.4434 17.8876 10.2788 20.0522 7.60866 20.0522C4.93848 20.0522 2.77387 17.8876 2.77387 15.2174C2.77387 12.5473 4.93848 10.3827 7.60866 10.3827C10.2788 10.3827 12.4434 12.5473 12.4434 15.2174Z" stroke="url(#paint16_linear_83_284)" stroke-opacity="0.1" stroke-width="1.2"/>
</g>
<g id="Vector_6" filter="url(#filter11_i_83_284)">
<path d="M7.60838 16.3041C7.36819 16.304 7.1348 16.2244 6.94464 16.0777C6.75449 15.931 6.61829 15.7254 6.55733 15.4931C6.49636 15.2607 6.51406 15.0148 6.60766 14.7936C6.70126 14.5724 6.86548 14.3884 7.07468 14.2704L24.466 4.4878C24.5906 4.41175 24.7293 4.36159 24.8737 4.3403C25.0181 4.31901 25.1653 4.32703 25.3066 4.36388C25.4479 4.40073 25.5803 4.46567 25.6959 4.5548C25.8115 4.64394 25.908 4.75545 25.9795 4.88269C26.0511 5.00992 26.0963 5.15027 26.1125 5.29536C26.1286 5.44046 26.1154 5.58731 26.0736 5.72718C26.0317 5.86704 25.9621 5.99704 25.8689 6.10942C25.7758 6.2218 25.6609 6.31426 25.5312 6.38128L8.1399 16.1639C7.97793 16.256 7.79473 16.3044 7.60838 16.3041Z" fill="url(#paint17_linear_83_284)"/>
</g>
<g id="glass_6" filter="url(#filter12_bi_83_284)">
<path d="M25 10.8696C28.0015 10.8696 30.4348 8.43633 30.4348 5.43478C30.4348 2.43324 28.0015 0 25 0C21.9984 0 19.5652 2.43324 19.5652 5.43478C19.5652 8.43633 21.9984 10.8696 25 10.8696Z" fill="#1D1D1D" fill-opacity="0.05"/>
<path d="M25 10.8696C28.0015 10.8696 30.4348 8.43633 30.4348 5.43478C30.4348 2.43324 28.0015 0 25 0C21.9984 0 19.5652 2.43324 19.5652 5.43478C19.5652 8.43633 21.9984 10.8696 25 10.8696Z" fill="url(#paint18_linear_83_284)"/>
<path d="M29.8348 5.43478C29.8348 8.10496 27.6701 10.2696 25 10.2696C22.3298 10.2696 20.1652 8.10496 20.1652 5.43478C20.1652 2.76461 22.3298 0.6 25 0.6C27.6701 0.6 29.8348 2.76461 29.8348 5.43478Z" stroke="url(#paint19_linear_83_284)" stroke-opacity="0.1" stroke-width="1.2"/>
</g>
<g id="Vector_7" filter="url(#filter13_i_83_284)">
<path d="M38.3036 11.6718L25.533 4.48813C25.2828 4.35885 24.9922 4.33171 24.7224 4.41243C24.4526 4.49314 24.2247 4.67541 24.0866 4.92083C23.9486 5.16626 23.9111 5.4557 23.9822 5.72818C24.0533 6.00066 24.2274 6.23491 24.4678 6.38161L37.2395 13.5664C37.4618 12.8691 37.8239 12.2245 38.3036 11.6718Z" fill="url(#paint20_linear_83_284)"/>
</g>
</g>
<defs>
<filter id="filter0_i_83_284" x="6.52377" y="4.34772" width="36.9548" height="49.3043" filterUnits="userSpaceOnUse" color-interpolation-filters="sRGB">
<feFlood flood-opacity="0" result="BackgroundImageFix"/>
<feBlend mode="normal" in="SourceGraphic" in2="BackgroundImageFix" result="shape"/>
<feColorMatrix in="SourceAlpha" type="matrix" values="0 0 0 0 0 0 0 0 0 0 0 0 0 0 0 0 0 0 127 0" result="hardAlpha"/>
<feOffset dy="8"/>
<feGaussianBlur stdDeviation="4"/>
<feComposite in2="hardAlpha" operator="arithmetic" k2="-1" k3="1"/>
<feColorMatrix type="matrix" values="0 0 0 0 1 0 0 0 0 1 0 0 0 0 1 0 0 0 0.4 0"/>
<feBlend mode="normal" in2="shape" result="effect1_innerShadow_83_284"/>
</filter>
<filter id="filter1_bi_83_284" x="-4.43481" y="-4.43469" width="58.8696" height="58.8696" filterUnits="userSpaceOnUse" color-interpolation-filters="sRGB">
<feFlood flood-opacity="0" result="BackgroundImageFix"/>
<feGaussianBlur in="BackgroundImageFix" stdDeviation="12"/>
<feComposite in2="SourceAlpha" operator="in" result="effect1_backgroundBlur_83_284"/>
<feBlend mode="normal" in="SourceGraphic" in2="effect1_backgroundBlur_83_284" result="shape"/>
<feColorMatrix in="SourceAlpha" type="matrix" values="0 0 0 0 0 0 0 0 0 0 0 0 0 0 0 0 0 0 127 0" result="hardAlpha"/>
<feOffset dy="8"/>
<feGaussianBlur stdDeviation="6"/>
<feComposite in2="hardAlpha" operator="arithmetic" k2="-1" k3="1"/>
<feColorMatrix type="matrix" values="0 0 0 0 1 0 0 0 0 1 0 0 0 0 1 0 0 0 0.15 0"/>
<feBlend mode="normal" in2="shape" result="effect2_innerShadow_83_284"/>
</filter>
<filter id="filter2_bi_83_284" x="12.9565" y="-14.2173" width="58.8696" height="58.8696" filterUnits="userSpaceOnUse" color-interpolation-filters="sRGB">
<feFlood flood-opacity="0" result="BackgroundImageFix"/>
<feGaussianBlur in="BackgroundImageFix" stdDeviation="12"/>
<feComposite in2="SourceAlpha" operator="in" result="effect1_backgroundBlur_83_284"/>
<feBlend mode="normal" in="SourceGraphic" in2="effect1_backgroundBlur_83_284" result="shape"/>
<feColorMatrix in="SourceAlpha" type="matrix" values="0 0 0 0 0 0 0 0 0 0 0 0 0 0 0 0 0 0 127 0" result="hardAlpha"/>
<feOffset dy="8"/>
<feGaussianBlur stdDeviation="6"/>
<feComposite in2="hardAlpha" operator="arithmetic" k2="-1" k3="1"/>
<feColorMatrix type="matrix" values="0 0 0 0 1 0 0 0 0 1 0 0 0 0 1 0 0 0 0.15 0"/>
<feBlend mode="normal" in2="shape" result="effect2_innerShadow_83_284"/>
</filter>
<filter id="filter3_i_83_284" x="41.3043" y="14.1304" width="2.17392" height="29.7391" filterUnits="userSpaceOnUse" color-interpolation-filters="sRGB">
<feFlood flood-opacity="0" result="BackgroundImageFix"/>
<feBlend mode="normal" in="SourceGraphic" in2="BackgroundImageFix" result="shape"/>
<feColorMatrix in="SourceAlpha" type="matrix" values="0 0 0 0 0 0 0 0 0 0 0 0 0 0 0 0 0 0 127 0" result="hardAlpha"/>
<feOffset dy="8"/>
<feGaussianBlur stdDeviation="4"/>
<feComposite in2="hardAlpha" operator="arithmetic" k2="-1" k3="1"/>
<feColorMatrix type="matrix" values="0 0 0 0 1 0 0 0 0 1 0 0 0 0 1 0 0 0 0.4 0"/>
<feBlend mode="normal" in2="shape" result="effect1_innerShadow_83_284"/>
</filter>
<filter id="filter4_bi_83_284" x="12.9565" y="5.34772" width="58.8696" height="58.8696" filterUnits="userSpaceOnUse" color-interpolation-filters="sRGB">
<feFlood flood-opacity="0" result="BackgroundImageFix"/>
<feGaussianBlur in="BackgroundImageFix" stdDeviation="12"/>
<feComposite in2="SourceAlpha" operator="in" result="effect1_backgroundBlur_83_284"/>
<feBlend mode="normal" in="SourceGraphic" in2="effect1_backgroundBlur_83_284" result="shape"/>
<feColorMatrix in="SourceAlpha" type="matrix" values="0 0 0 0 0 0 0 0 0 0 0 0 0 0 0 0 0 0 127 0" result="hardAlpha"/>
<feOffset dy="8"/>
<feGaussianBlur stdDeviation="6"/>
<feComposite in2="hardAlpha" operator="arithmetic" k2="-1" k3="1"/>
<feColorMatrix type="matrix" values="0 0 0 0 1 0 0 0 0 1 0 0 0 0 1 0 0 0 0.15 0"/>
<feBlend mode="normal" in2="shape" result="effect2_innerShadow_83_284"/>
</filter>
<filter id="filter5_i_83_284" x="23.9129" y="33.7148" width="19.5302" height="19.9376" filterUnits="userSpaceOnUse" color-interpolation-filters="sRGB">
<feFlood flood-opacity="0" result="BackgroundImageFix"/>
<feBlend mode="normal" in="SourceGraphic" in2="BackgroundImageFix" result="shape"/>
<feColorMatrix in="SourceAlpha" type="matrix" values="0 0 0 0 0 0 0 0 0 0 0 0 0 0 0 0 0 0 127 0" result="hardAlpha"/>
<feOffset dy="8"/>
<feGaussianBlur stdDeviation="4"/>
<feComposite in2="hardAlpha" operator="arithmetic" k2="-1" k3="1"/>
<feColorMatrix type="matrix" values="0 0 0 0 1 0 0 0 0 1 0 0 0 0 1 0 0 0 0.4 0"/>
<feBlend mode="normal" in2="shape" result="effect1_innerShadow_83_284"/>
</filter>
<filter id="filter6_bi_83_284" x="-4.43481" y="15.1304" width="58.8696" height="58.8696" filterUnits="userSpaceOnUse" color-interpolation-filters="sRGB">
<feFlood flood-opacity="0" result="BackgroundImageFix"/>
<feGaussianBlur in="BackgroundImageFix" stdDeviation="12"/>
<feComposite in2="SourceAlpha" operator="in" result="effect1_backgroundBlur_83_284"/>
<feBlend mode="normal" in="SourceGraphic" in2="effect1_backgroundBlur_83_284" result="shape"/>
<feColorMatrix in="SourceAlpha" type="matrix" values="0 0 0 0 0 0 0 0 0 0 0 0 0 0 0 0 0 0 127 0" result="hardAlpha"/>
<feOffset dy="8"/>
<feGaussianBlur stdDeviation="6"/>
<feComposite in2="hardAlpha" operator="arithmetic" k2="-1" k3="1"/>
<feColorMatrix type="matrix" values="0 0 0 0 1 0 0 0 0 1 0 0 0 0 1 0 0 0 0.15 0"/>
<feBlend mode="normal" in2="shape" result="effect2_innerShadow_83_284"/>
</filter>
<filter id="filter7_i_83_284" x="6.55568" y="33.7148" width="19.5302" height="19.9376" filterUnits="userSpaceOnUse" color-interpolation-filters="sRGB">
<feFlood flood-opacity="0" result="BackgroundImageFix"/>
<feBlend mode="normal" in="SourceGraphic" in2="BackgroundImageFix" result="shape"/>
<feColorMatrix in="SourceAlpha" type="matrix" values="0 0 0 0 0 0 0 0 0 0 0 0 0 0 0 0 0 0 127 0" result="hardAlpha"/>
<feOffset dy="8"/>
<feGaussianBlur stdDeviation="4"/>
<feComposite in2="hardAlpha" operator="arithmetic" k2="-1" k3="1"/>
<feColorMatrix type="matrix" values="0 0 0 0 1 0 0 0 0 1 0 0 0 0 1 0 0 0 0.4 0"/>
<feBlend mode="normal" in2="shape" result="effect1_innerShadow_83_284"/>
</filter>
<filter id="filter8_bi_83_284" x="-21.8261" y="5.34772" width="58.8696" height="58.8696" filterUnits="userSpaceOnUse" color-interpolation-filters="sRGB">
<feFlood flood-opacity="0" result="BackgroundImageFix"/>
<feGaussianBlur in="BackgroundImageFix" stdDeviation="12"/>
<feComposite in2="SourceAlpha" operator="in" result="effect1_backgroundBlur_83_284"/>
<feBlend mode="normal" in="SourceGraphic" in2="effect1_backgroundBlur_83_284" result="shape"/>
<feColorMatrix in="SourceAlpha" type="matrix" values="0 0 0 0 0 0 0 0 0 0 0 0 0 0 0 0 0 0 127 0" result="hardAlpha"/>
<feOffset dy="8"/>
<feGaussianBlur stdDeviation="6"/>
<feComposite in2="hardAlpha" operator="arithmetic" k2="-1" k3="1"/>
<feColorMatrix type="matrix" values="0 0 0 0 1 0 0 0 0 1 0 0 0 0 1 0 0 0 0.15 0"/>
<feBlend mode="normal" in2="shape" result="effect2_innerShadow_83_284"/>
</filter>
<filter id="filter9_i_83_284" x="6.52173" y="14.1304" width="2.17392" height="29.7391" filterUnits="userSpaceOnUse" color-interpolation-filters="sRGB">
<feFlood flood-opacity="0" result="BackgroundImageFix"/>
<feBlend mode="normal" in="SourceGraphic" in2="BackgroundImageFix" result="shape"/>
<feColorMatrix in="SourceAlpha" type="matrix" values="0 0 0 0 0 0 0 0 0 0 0 0 0 0 0 0 0 0 127 0" result="hardAlpha"/>
<feOffset dy="8"/>
<feGaussianBlur stdDeviation="4"/>
<feComposite in2="hardAlpha" operator="arithmetic" k2="-1" k3="1"/>
<feColorMatrix type="matrix" values="0 0 0 0 1 0 0 0 0 1 0 0 0 0 1 0 0 0 0.4 0"/>
<feBlend mode="normal" in2="shape" result="effect1_innerShadow_83_284"/>
</filter>
<filter id="filter10_bi_83_284" x="-21.8261" y="-14.2173" width="58.8696" height="58.8696" filterUnits="userSpaceOnUse" color-interpolation-filters="sRGB">
<feFlood flood-opacity="0" result="BackgroundImageFix"/>
<feGaussianBlur in="BackgroundImageFix" stdDeviation="12"/>
<feComposite in2="SourceAlpha" operator="in" result="effect1_backgroundBlur_83_284"/>
<feBlend mode="normal" in="SourceGraphic" in2="effect1_backgroundBlur_83_284" result="shape"/>
<feColorMatrix in="SourceAlpha" type="matrix" values="0 0 0 0 0 0 0 0 0 0 0 0 0 0 0 0 0 0 127 0" result="hardAlpha"/>
<feOffset dy="8"/>
<feGaussianBlur stdDeviation="6"/>
<feComposite in2="hardAlpha" operator="arithmetic" k2="-1" k3="1"/>
<feColorMatrix type="matrix" values="0 0 0 0 1 0 0 0 0 1 0 0 0 0 1 0 0 0 0.15 0"/>
<feBlend mode="normal" in2="shape" result="effect2_innerShadow_83_284"/>
</filter>
<filter id="filter11_i_83_284" x="6.52173" y="4.32867" width="19.5974" height="19.9754" filterUnits="userSpaceOnUse" color-interpolation-filters="sRGB">
<feFlood flood-opacity="0" result="BackgroundImageFix"/>
<feBlend mode="normal" in="SourceGraphic" in2="BackgroundImageFix" result="shape"/>
<feColorMatrix in="SourceAlpha" type="matrix" values="0 0 0 0 0 0 0 0 0 0 0 0 0 0 0 0 0 0 127 0" result="hardAlpha"/>
<feOffset dy="8"/>
<feGaussianBlur stdDeviation="4"/>
<feComposite in2="hardAlpha" operator="arithmetic" k2="-1" k3="1"/>
<feColorMatrix type="matrix" values="0 0 0 0 1 0 0 0 0 1 0 0 0 0 1 0 0 0 0.4 0"/>
<feBlend mode="normal" in2="shape" result="effect1_innerShadow_83_284"/>
</filter>
<filter id="filter12_bi_83_284" x="-4.43481" y="-24" width="58.8696" height="58.8696" filterUnits="userSpaceOnUse" color-interpolation-filters="sRGB">
<feFlood flood-opacity="0" result="BackgroundImageFix"/>
<feGaussianBlur in="BackgroundImageFix" stdDeviation="12"/>
<feComposite in2="SourceAlpha" operator="in" result="effect1_backgroundBlur_83_284"/>
<feBlend mode="normal" in="SourceGraphic" in2="effect1_backgroundBlur_83_284" result="shape"/>
<feColorMatrix in="SourceAlpha" type="matrix" values="0 0 0 0 0 0 0 0 0 0 0 0 0 0 0 0 0 0 127 0" result="hardAlpha"/>
<feOffset dy="8"/>
<feGaussianBlur stdDeviation="6"/>
<feComposite in2="hardAlpha" operator="arithmetic" k2="-1" k3="1"/>
<feColorMatrix type="matrix" values="0 0 0 0 1 0 0 0 0 1 0 0 0 0 1 0 0 0 0.15 0"/>
<feBlend mode="normal" in2="shape" result="effect2_innerShadow_83_284"/>
</filter>
<filter id="filter13_i_83_284" x="23.947" y="4.36682" width="14.3566" height="17.1996" filterUnits="userSpaceOnUse" color-interpolation-filters="sRGB">
<feFlood flood-opacity="0" result="BackgroundImageFix"/>
<feBlend mode="normal" in="SourceGraphic" in2="BackgroundImageFix" result="shape"/>
<feColorMatrix in="SourceAlpha" type="matrix" values="0 0 0 0 0 0 0 0 0 0 0 0 0 0 0 0 0 0 127 0" result="hardAlpha"/>
<feOffset dy="8"/>
<feGaussianBlur stdDeviation="4"/>
<feComposite in2="hardAlpha" operator="arithmetic" k2="-1" k3="1"/>
<feColorMatrix type="matrix" values="0 0 0 0 1 0 0 0 0 1 0 0 0 0 1 0 0 0 0.4 0"/>
<feBlend mode="normal" in2="shape" result="effect1_innerShadow_83_284"/>
</filter>
<linearGradient id="paint0_linear_83_284" x1="8.06356" y1="12.6086" x2="48.5001" y2="17.6334" gradientUnits="userSpaceOnUse">
<stop stop-color="#6C23CC"/>
<stop offset="1" stop-color="#0D0D26"/>
</linearGradient>
<linearGradient id="paint1_linear_83_284" x1="20.0181" y1="21.7392" x2="31.8668" y2="23.3849" gradientUnits="userSpaceOnUse">
<stop stop-color="#6C23CC"/>
<stop offset="1" stop-color="#010313"/>
</linearGradient>
<linearGradient id="paint2_linear_83_284" x1="19.9049" y1="20.0594" x2="30.4348" y2="20.0594" gradientUnits="userSpaceOnUse">
<stop stop-color="#6C23CC"/>
<stop offset="1" stop-color="#010313"/>
</linearGradient>
<linearGradient id="paint3_linear_83_284" x1="37.4094" y1="11.9566" x2="49.2582" y2="13.6022" gradientUnits="userSpaceOnUse">
<stop stop-color="#6C23CC"/>
<stop offset="1" stop-color="#010313"/>
</linearGradient>
<linearGradient id="paint4_linear_83_284" x1="37.2962" y1="10.2767" x2="47.8261" y2="10.2767" gradientUnits="userSpaceOnUse">
<stop stop-color="#6C23CC"/>
<stop offset="1" stop-color="#010313"/>
</linearGradient>
<linearGradient id="paint5_linear_83_284" x1="41.3948" y1="18.4782" x2="43.8098" y2="18.5117" gradientUnits="userSpaceOnUse">
<stop stop-color="#6C23CC"/>
<stop offset="1" stop-color="#0D0D26"/>
</linearGradient>
<linearGradient id="paint6_linear_83_284" x1="37.4094" y1="31.5216" x2="49.2582" y2="33.1673" gradientUnits="userSpaceOnUse">
<stop stop-color="#6C23CC"/>
<stop offset="1" stop-color="#010313"/>
</linearGradient>
<linearGradient id="paint7_linear_83_284" x1="37.2962" y1="29.8418" x2="47.8261" y2="29.8418" gradientUnits="userSpaceOnUse">
<stop stop-color="#6C23CC"/>
<stop offset="1" stop-color="#010313"/>
</linearGradient>
<linearGradient id="paint8_linear_83_284" x1="24.7267" y1="36.1023" x2="45.3615" y2="40.7911" gradientUnits="userSpaceOnUse">
<stop stop-color="#6C23CC"/>
<stop offset="1" stop-color="#0D0D26"/>
</linearGradient>
<linearGradient id="paint9_linear_83_284" x1="20.0181" y1="41.3043" x2="31.8668" y2="42.9499" gradientUnits="userSpaceOnUse">
<stop stop-color="#6C23CC"/>
<stop offset="1" stop-color="#010313"/>
</linearGradient>
<linearGradient id="paint10_linear_83_284" x1="19.9049" y1="39.6244" x2="30.4348" y2="39.6244" gradientUnits="userSpaceOnUse">
<stop stop-color="#6C23CC"/>
<stop offset="1" stop-color="#010313"/>
</linearGradient>
<linearGradient id="paint11_linear_83_284" x1="7.36944" y1="36.1023" x2="28.0043" y2="40.7911" gradientUnits="userSpaceOnUse">
<stop stop-color="#6C23CC"/>
<stop offset="1" stop-color="#0D0D26"/>
</linearGradient>
<linearGradient id="paint12_linear_83_284" x1="2.62677" y1="31.5216" x2="14.4755" y2="33.1673" gradientUnits="userSpaceOnUse">
<stop stop-color="#6C23CC"/>
<stop offset="1" stop-color="#010313"/>
</linearGradient>
<linearGradient id="paint13_linear_83_284" x1="2.51355" y1="29.8418" x2="13.0434" y2="29.8418" gradientUnits="userSpaceOnUse">
<stop stop-color="#6C23CC"/>
<stop offset="1" stop-color="#010313"/>
</linearGradient>
<linearGradient id="paint14_linear_83_284" x1="6.61231" y1="18.4782" x2="9.0273" y2="18.5117" gradientUnits="userSpaceOnUse">
<stop stop-color="#6C23CC"/>
<stop offset="1" stop-color="#0D0D26"/>
</linearGradient>
<linearGradient id="paint15_linear_83_284" x1="2.62677" y1="11.9566" x2="14.4755" y2="13.6022" gradientUnits="userSpaceOnUse">
<stop stop-color="#6C23CC"/>
<stop offset="1" stop-color="#010313"/>
</linearGradient>
<linearGradient id="paint16_linear_83_284" x1="2.51355" y1="10.2767" x2="13.0434" y2="10.2767" gradientUnits="userSpaceOnUse">
<stop stop-color="#6C23CC"/>
<stop offset="1" stop-color="#010313"/>
</linearGradient>
<linearGradient id="paint17_linear_83_284" x1="7.33829" y1="6.72376" x2="28.0436" y2="11.4298" gradientUnits="userSpaceOnUse">
<stop stop-color="#6C23CC"/>
<stop offset="1" stop-color="#0D0D26"/>
</linearGradient>
<linearGradient id="paint18_linear_83_284" x1="20.0181" y1="2.17391" x2="31.8668" y2="3.81957" gradientUnits="userSpaceOnUse">
<stop stop-color="#6C23CC"/>
<stop offset="1" stop-color="#010313"/>
</linearGradient>
<linearGradient id="paint19_linear_83_284" x1="19.9049" y1="0.494071" x2="30.4348" y2="0.494071" gradientUnits="userSpaceOnUse">
<stop stop-color="#6C23CC"/>
<stop offset="1" stop-color="#010313"/>
</linearGradient>
<linearGradient id="paint20_linear_83_284" x1="24.5452" y1="6.20674" x2="39.7812" y2="9.50909" gradientUnits="userSpaceOnUse">
<stop stop-color="#6C23CC"/>
<stop offset="1" stop-color="#0D0D26"/>
</linearGradient>
</defs>
</svg>
