<svg width="1512" height="893" viewBox="0 0 1512 893" fill="none" xmlns="http://www.w3.org/2000/svg">
<g filter="url(#filter0_f_154_820)">
<path d="M1345.74 547.134C1390.87 508.94 1409.32 467.119 1399.38 425.559C1389.44 383.998 1351.43 344.048 1288.89 309.42C1226.34 274.792 1141.29 246.612 1041.64 227.498C941.986 208.383 830.966 198.956 718.899 200.092C606.832 201.227 497.355 212.889 400.644 233.994C303.934 255.098 223.128 284.959 165.739 320.802C108.349 356.645 76.2388 397.307 72.3917 439.007C68.5445 480.707 93.0858 522.092 143.734 559.316L737 447.5L1345.74 547.134Z" fill="url(#paint0_radial_154_820)"/>
</g>
<rect x="589" y="235" width="1" height="1" rx="0.5" fill="#D9D9D9"/>
<rect x="659" y="342" width="1" height="1" rx="0.5" fill="#D9D9D9"/>
<rect x="839" y="251" width="1" height="1" rx="0.5" fill="#D9D9D9"/>
<rect x="805" y="312" width="1" height="1" rx="0.5" fill="#D9D9D9"/>
<rect x="811" y="402" width="1" height="1" rx="0.5" fill="#D9D9D9"/>
<rect x="379" y="381" width="1" height="1" rx="0.5" fill="#D9D9D9" fill-opacity="0.25"/>
<rect x="380" y="332" width="1" height="1" rx="0.5" fill="#D9D9D9" fill-opacity="0.25"/>
<rect x="451" y="285" width="1" height="1" rx="0.5" fill="#D9D9D9" fill-opacity="0.8"/>
<rect x="316" y="326" width="1" height="1" rx="0.5" fill="#D9D9D9" fill-opacity="0.1"/>
<rect x="317" y="419" width="1" height="1" rx="0.5" fill="#D9D9D9" fill-opacity="0.8"/>
<rect x="392" y="270" width="1" height="1" rx="0.5" fill="#D9D9D9" fill-opacity="0.8"/>
<rect x="615" y="421" width="1" height="1" rx="0.5" fill="#D9D9D9"/>
<rect x="522" y="403" width="1" height="1" rx="0.5" fill="#D9D9D9" fill-opacity="0.6"/>
<rect x="920" y="382" width="1" height="1" rx="0.5" fill="#D9D9D9" fill-opacity="0.1"/>
<rect x="956" y="350" width="1" height="1" rx="0.5" fill="#D9D9D9" fill-opacity="0.1"/>
<rect x="867" y="327" width="5" height="5" rx="2.5" fill="#D9D9D9" fill-opacity="0.7"/>
<rect x="932" y="290" width="5" height="5" rx="2.5" fill="#D9D9D9" fill-opacity="0.75"/>
<rect x="705" y="216" width="5" height="5" rx="2.5" fill="#D9D9D9" fill-opacity="0.8"/>
<rect x="684" y="376" width="5" height="5" rx="2.5" fill="#D9D9D9" fill-opacity="0.72"/>
<rect x="779" y="358" width="5" height="5" rx="2.5" fill="#D9D9D9" fill-opacity="0.5"/>
<rect x="999" y="343" width="5" height="5" rx="2.5" fill="#D9D9D9" fill-opacity="0.1"/>
<rect x="951" y="371" width="5" height="5" rx="2.5" fill="#D9D9D9" fill-opacity="0.75"/>
<rect x="1001" y="294" width="5" height="5" rx="2.5" fill="#D9D9D9" fill-opacity="0.1"/>
<rect x="963" y="251" width="5" height="5" rx="2.5" fill="#D9D9D9" fill-opacity="0.8"/>
<rect x="1016" y="416" width="5" height="5" rx="2.5" fill="#D9D9D9"/>
<rect x="479" y="348" width="5" height="5" rx="2.5" fill="#D9D9D9"/>
<rect x="506" y="286" width="5" height="5" rx="2.5" fill="#D9D9D9"/>
<rect x="464" y="235" width="5" height="5" rx="2.5" fill="#D9D9D9"/>
<rect x="464" y="235" width="5" height="5" rx="2.5" fill="#D9D9D9" fill-opacity="0.5"/>
<rect x="612" y="180" width="5" height="5" rx="2.5" fill="#D9D9D9" fill-opacity="0.8"/>
<rect x="564" y="328" width="1" height="1" rx="0.5" fill="#D9D9D9"/>
<rect x="616" y="271" width="1" height="1" rx="0.5" fill="#D9D9D9"/>
<rect x="677" y="286" width="1" height="1" rx="0.5" fill="#D9D9D9"/>
<rect x="737" y="351" width="1" height="1" rx="0.5" fill="#D9D9D9"/>
<rect x="710" y="294" width="1" height="1" rx="0.5" fill="#D9D9D9" fill-opacity="0.55"/>
<rect x="753" y="272" width="1" height="1" rx="0.5" fill="#D9D9D9" fill-opacity="0.55"/>
<rect x="710" y="253" width="1" height="1" rx="0.5" fill="#D9D9D9" fill-opacity="0.8"/>
<rect x="619" y="305" width="1" height="1" rx="0.5" fill="#D9D9D9"/>
<mask id="path-40-inside-1_154_820" fill="white">
<path d="M1456 654.649C1456 785.898 1142.38 892.297 755.5 892.297C368.625 892.297 55 785.898 55 654.649C55 523.399 368.625 417 755.5 417C1142.38 417 1456 523.399 1456 654.649Z"/>
</mask>
<path d="M1456 654.649C1456 785.898 1142.38 892.297 755.5 892.297C368.625 892.297 55 785.898 55 654.649C55 523.399 368.625 417 755.5 417C1142.38 417 1456 523.399 1456 654.649Z" fill="#010313"/>
<path d="M1452 654.649C1452 685.741 1433.43 715.972 1398.45 744.032C1363.5 772.062 1312.69 797.481 1249.54 818.904C1123.29 861.735 948.621 888.297 755.5 888.297V896.297C949.254 896.297 1124.83 869.66 1252.11 826.48C1315.73 804.896 1367.51 779.106 1403.45 750.273C1439.36 721.469 1460 689.182 1460 654.649H1452ZM755.5 888.297C562.379 888.297 387.708 861.735 261.457 818.904C198.311 797.481 147.498 772.062 112.552 744.032C77.5677 715.972 59 685.741 59 654.649H51C51 689.182 71.6353 721.469 107.546 750.273C143.494 779.106 195.267 804.896 258.887 826.48C386.167 869.66 561.746 896.297 755.5 896.297V888.297ZM59 654.649C59 623.557 77.5677 593.326 112.552 565.265C147.498 537.235 198.311 511.816 261.457 490.394C387.708 447.562 562.379 421 755.5 421V413C561.746 413 386.167 439.637 258.887 482.818C195.267 504.401 143.494 530.191 107.546 559.025C71.6353 587.828 51 620.116 51 654.649H59ZM755.5 421C948.621 421 1123.29 447.562 1249.54 490.394C1312.69 511.816 1363.5 537.235 1398.45 565.265C1433.43 593.326 1452 623.557 1452 654.649H1460C1460 620.116 1439.36 587.828 1403.45 559.025C1367.51 530.191 1315.73 504.401 1252.11 482.818C1124.83 439.637 949.254 413 755.5 413V421Z" fill="url(#paint1_radial_154_820)" mask="url(#path-40-inside-1_154_820)"/>
<defs>
<filter id="filter0_f_154_820" x="-128" y="-1.52588e-05" width="1730" height="759.316" filterUnits="userSpaceOnUse" color-interpolation-filters="sRGB">
<feFlood flood-opacity="0" result="BackgroundImageFix"/>
<feBlend mode="normal" in="SourceGraphic" in2="BackgroundImageFix" result="shape"/>
<feGaussianBlur stdDeviation="100" result="effect1_foregroundBlur_154_820"/>
</filter>
<radialGradient id="paint0_radial_154_820" cx="0" cy="0" r="1" gradientUnits="userSpaceOnUse" gradientTransform="translate(737 326.696) rotate(90) scale(368.304 989.583)">
<stop stop-color="#6C23CC"/>
<stop offset="1" stop-color="#010313" stop-opacity="0"/>
</radialGradient>
<radialGradient id="paint1_radial_154_820" cx="0" cy="0" r="1" gradientUnits="userSpaceOnUse" gradientTransform="translate(755.5 417) rotate(90) scale(219.851 702.172)">
<stop stop-color="#6229BF"/>
<stop offset="1" stop-opacity="0"/>
</radialGradient>
</defs>
</svg>
