<svg width="50" height="50" viewBox="0 0 50 50" fill="none" xmlns="http://www.w3.org/2000/svg">
<g id="shield-security">
<path id="accent" d="M41.62 11.3962L25.2139 6.28262C25.074 6.23913 24.9257 6.23913 24.7858 6.28262L8.37968 11.3962C8.21628 11.447 8.0725 11.5545 7.97015 11.7025C7.8678 11.8504 7.81245 12.0308 7.8125 12.2161C7.8125 24.3806 12.3875 32.282 16.2257 36.7683C18.6175 39.641 21.4913 41.9875 24.692 43.6811C24.7893 43.7265 24.894 43.75 24.9999 43.75C25.1057 43.75 25.2104 43.7265 25.3077 43.6811C28.5084 41.9875 31.3822 39.641 33.774 36.7683C37.6123 32.282 42.1872 24.3806 42.1872 12.2161C42.1873 12.0308 42.1319 11.8504 42.0296 11.7025C41.9272 11.5545 41.7834 11.447 41.62 11.3962Z" fill="url(#paint0_linear_83_317)"/>
<g id="glass" filter="url(#filter0_bi_83_317)">
<path d="M47.1604 6.86165L25.2854 0.0434888C25.0988 -0.0144963 24.9011 -0.0144963 24.7146 0.0434888L2.83958 6.86165C2.6217 6.92936 2.43 7.07272 2.29353 7.26999C2.15706 7.46726 2.08327 7.70768 2.08333 7.95482C2.08333 24.1741 8.18333 34.7093 13.301 40.6911C16.4901 44.5213 20.3219 47.65 24.5896 49.9081C24.7193 49.9687 24.8589 50 25 50C25.1411 50 25.2807 49.9687 25.4104 49.9081C29.6781 47.65 33.5099 44.5213 36.699 40.6911C41.8167 34.7093 47.9167 24.1741 47.9167 7.95482C47.9167 7.70768 47.8429 7.46726 47.7065 7.26999C47.57 7.07272 47.3783 6.92936 47.1604 6.86165Z" fill="url(#paint1_linear_83_317)" fill-opacity="0.2"/>
<path d="M46.9819 7.43447L46.9823 7.43461C47.0653 7.46039 47.1486 7.51826 47.213 7.61134C47.2779 7.70507 47.3167 7.82562 47.3167 7.95468V7.95482C47.3167 24.009 41.2832 34.4099 36.243 40.301L36.243 40.301L36.2379 40.3072C33.1012 44.0745 29.3357 47.1496 25.1458 49.3693C25.0977 49.3901 25.0484 49.4 25 49.4C24.9516 49.4 24.9023 49.3901 24.8542 49.3693C20.6643 47.1496 16.8988 44.0745 13.7621 40.3072L13.7622 40.3071L13.7569 40.301C8.71681 34.4099 2.68333 24.009 2.68333 7.95482L2.68333 7.95467C2.6833 7.82562 2.72213 7.70507 2.78697 7.61134C2.85136 7.51826 2.93471 7.46039 3.01766 7.43461L3.01812 7.43447L24.8927 0.616453C24.8927 0.616438 24.8928 0.616423 24.8928 0.616408C24.9633 0.594531 25.0367 0.594531 25.1072 0.616408C25.1072 0.616423 25.1073 0.616438 25.1073 0.616453L46.9819 7.43447ZM36.699 40.6911C41.8167 34.7093 47.9167 24.1741 47.9167 7.95482L25.4104 49.9081C29.6781 47.65 33.5099 44.5213 36.699 40.6911Z" stroke="url(#paint2_linear_83_317)" stroke-opacity="0.1" stroke-width="1.2"/>
</g>
<path id="detail" d="M26.0225 11.9983L28.7134 17.4529L34.7271 18.3267C34.9367 18.3574 35.1336 18.446 35.2955 18.5826C35.4575 18.7193 35.578 18.8985 35.6435 19.1C35.7089 19.3015 35.7168 19.5173 35.6661 19.723C35.6154 19.9287 35.5082 20.1162 35.3566 20.2642L31.0043 24.5074L32.0271 30.496C32.0629 30.705 32.0395 30.9198 31.9596 31.1162C31.8797 31.3126 31.7464 31.4827 31.5749 31.6073C31.4033 31.7319 31.2003 31.806 30.9889 31.8213C30.7774 31.8366 30.5659 31.7924 30.3782 31.6937L24.9998 28.8642L19.6214 31.6914C19.4338 31.7901 19.2222 31.8343 19.0108 31.819C18.7993 31.8038 18.5963 31.7296 18.4248 31.605C18.2532 31.4804 18.12 31.3103 18.04 31.1139C17.9601 30.9175 17.9368 30.7027 17.9726 30.4937L18.9953 24.5051L14.643 20.2619C14.4914 20.1139 14.3842 19.9265 14.3335 19.7207C14.2828 19.515 14.2907 19.2992 14.3562 19.0977C14.4216 18.8962 14.5421 18.717 14.7041 18.5804C14.866 18.4437 15.0629 18.3551 15.2726 18.3244L21.2862 17.4506L23.9771 11.9961C24.0809 11.8166 24.2301 11.6676 24.4098 11.5641C24.5894 11.4606 24.7931 11.4062 25.0005 11.4065C25.2078 11.4067 25.4114 11.4615 25.5908 11.5654C25.7702 11.6693 25.9191 11.8186 26.0225 11.9983Z" fill="#B99EDE"/>
</g>
<defs>
<filter id="filter0_bi_83_317" x="-21.9167" y="-24" width="93.8333" height="98" filterUnits="userSpaceOnUse" color-interpolation-filters="sRGB">
<feFlood flood-opacity="0" result="BackgroundImageFix"/>
<feGaussianBlur in="BackgroundImageFix" stdDeviation="12"/>
<feComposite in2="SourceAlpha" operator="in" result="effect1_backgroundBlur_83_317"/>
<feBlend mode="normal" in="SourceGraphic" in2="effect1_backgroundBlur_83_317" result="shape"/>
<feColorMatrix in="SourceAlpha" type="matrix" values="0 0 0 0 0 0 0 0 0 0 0 0 0 0 0 0 0 0 127 0" result="hardAlpha"/>
<feOffset dy="8"/>
<feGaussianBlur stdDeviation="6"/>
<feComposite in2="hardAlpha" operator="arithmetic" k2="-1" k3="1"/>
<feColorMatrix type="matrix" values="0 0 0 0 1 0 0 0 0 1 0 0 0 0 1 0 0 0 0.15 0"/>
<feBlend mode="normal" in2="shape" result="effect2_innerShadow_83_317"/>
</filter>
<linearGradient id="paint0_linear_83_317" x1="9.24478" y1="13.75" x2="46.8297" y2="18.5351" gradientUnits="userSpaceOnUse">
<stop stop-color="#8AE6CF"/>
<stop offset="1" stop-color="#7C3AE7"/>
</linearGradient>
<linearGradient id="paint1_linear_83_317" x1="3.99305" y1="10" x2="54.1067" y2="16.3802" gradientUnits="userSpaceOnUse">
<stop stop-color="#6C23CC"/>
<stop offset="1" stop-color="#0D0D26"/>
</linearGradient>
<linearGradient id="paint2_linear_83_317" x1="3.51562" y1="2.27273" x2="47.9167" y2="2.27273" gradientUnits="userSpaceOnUse">
<stop stop-color="#6C23CC"/>
<stop offset="1" stop-color="#0D0D26"/>
</linearGradient>
</defs>
</svg>
