<svg width="54" height="54" viewBox="0 0 54 54" fill="none" xmlns="http://www.w3.org/2000/svg">
<g id="person 14" clip-path="url(#clip0_19_674)">
<g id="Layer 2">
<g id="person">
<path id="Vector" d="M27 24.75C28.78 24.75 30.5201 24.2222 32.0001 23.2332C33.4802 22.2443 34.6337 20.8387 35.3149 19.1942C35.9961 17.5496 36.1743 15.74 35.8271 13.9942C35.4798 12.2484 34.6226 10.6447 33.364 9.38604C32.1053 8.12737 30.5016 7.2702 28.7558 6.92294C27.01 6.57567 25.2004 6.7539 23.5558 7.43509C21.9113 8.11628 20.5057 9.26983 19.5168 10.7499C18.5278 12.2299 18 13.97 18 15.75C18 18.137 18.9482 20.4261 20.636 22.114C22.3239 23.8018 24.6131 24.75 27 24.75Z" fill="#AF98CB" fill-opacity="0.3"/>
<path id="Vector_2" d="M40.5 47.25C41.0967 47.25 41.669 47.0129 42.091 46.591C42.5129 46.169 42.75 45.5967 42.75 45C42.75 40.8228 41.0906 36.8168 38.1369 33.8631C35.1832 30.9094 31.1772 29.25 27 29.25C22.8228 29.25 18.8168 30.9094 15.8631 33.8631C12.9094 36.8168 11.25 40.8228 11.25 45C11.25 45.5967 11.4871 46.169 11.909 46.591C12.331 47.0129 12.9033 47.25 13.5 47.25H40.5Z" fill="#AF98CB" fill-opacity="0.3"/>
</g>
</g>
</g>
<defs>
<clipPath id="clip0_19_674">
<rect width="54" height="54" fill="white"/>
</clipPath>
</defs>
</svg>
