<svg width="50" height="50" viewBox="0 0 50 50" fill="none" xmlns="http://www.w3.org/2000/svg">
<g id="chart-bar">
<path id="accent" d="M13.0439 30.6681H4.34826C3.74796 30.6681 3.26131 30.915 3.26131 31.2196V41.1454C3.26131 41.45 3.74796 41.6969 4.34826 41.6969H13.0439C13.6442 41.6969 14.1309 41.45 14.1309 41.1454V31.2196C14.1309 30.915 13.6442 30.6681 13.0439 30.6681Z" fill="url(#paint0_linear_83_304)"/>
<path id="accent_2" d="M29.3484 14.2812H20.6528C20.0525 14.2812 19.5658 14.6423 19.5658 15.0876V40.8917C19.5658 41.3371 20.0525 41.6981 20.6528 41.6981H29.3484C29.9488 41.6981 30.4354 41.3371 30.4354 40.8917V15.0876C30.4354 14.6423 29.9488 14.2812 29.3484 14.2812Z" fill="url(#paint1_linear_83_304)"/>
<path id="accent_3" d="M45.6509 33.2662H36.9553C36.355 33.2662 35.8683 33.5807 35.8683 33.9687V40.994C35.8683 41.382 36.355 41.6965 36.9553 41.6965H45.6509C46.2513 41.6965 46.7379 41.382 46.7379 40.994V33.9687C46.7379 33.5807 46.2513 33.2662 45.6509 33.2662Z" fill="url(#paint2_linear_83_304)"/>
<path id="accent_4" d="M44.7464 44.7866H5.25362C4.65362 44.7866 0 46.5317 0 47.1317C0 47.7317 0.486957 48.2186 1.08696 48.2186H48.913C49.513 48.2186 50 47.7317 50 47.1317C50 46.5317 45.3464 44.7866 44.7464 44.7866Z" fill="url(#paint3_linear_83_304)"/>
<g id="glass" filter="url(#filter0_bi_83_304)">
<path d="M13.0439 18.0399H4.34826C3.74796 18.0399 3.26131 18.5695 3.26131 19.2228V40.5146C3.26131 41.1679 3.74796 41.6975 4.34826 41.6975H13.0439C13.6442 41.6975 14.1309 41.1679 14.1309 40.5146V19.2228C14.1309 18.5695 13.6442 18.0399 13.0439 18.0399Z" fill="url(#paint4_linear_83_304)"/>
<path d="M4.34826 18.6399H13.0439C13.2661 18.6399 13.5309 18.8521 13.5309 19.2228V40.5146C13.5309 40.8853 13.2661 41.0975 13.0439 41.0975H4.34826C4.12608 41.0975 3.86131 40.8853 3.86131 40.5146V19.2228C3.86131 18.8521 4.12608 18.6399 4.34826 18.6399Z" stroke="url(#paint5_linear_83_304)" stroke-opacity="0.1" stroke-width="1.2"/>
</g>
<g id="glass_2" filter="url(#filter1_bi_83_304)">
<path d="M29.3484 1.78223H20.6528C20.0525 1.78223 19.5658 2.30785 19.5658 2.95622V40.5239C19.5658 41.1723 20.0525 41.6979 20.6528 41.6979H29.3484C29.9488 41.6979 30.4354 41.1723 30.4354 40.5239V2.95622C30.4354 2.30785 29.9488 1.78223 29.3484 1.78223Z" fill="url(#paint6_linear_83_304)"/>
<path d="M20.6528 2.38223H29.3484C29.5747 2.38223 29.8354 2.59485 29.8354 2.95622V40.5239C29.8354 40.8853 29.5747 41.0979 29.3484 41.0979H20.6528C20.4265 41.0979 20.1658 40.8853 20.1658 40.5239V2.95622C20.1658 2.59485 20.4265 2.38223 20.6528 2.38223Z" stroke="url(#paint7_linear_83_304)" stroke-opacity="0.1" stroke-width="1.2"/>
</g>
<g id="glass_3" filter="url(#filter2_bi_83_304)">
<path d="M45.6509 27.5024H36.9553C36.355 27.5024 35.8683 28.032 35.8683 28.6853V40.5141C35.8683 41.1674 36.355 41.697 36.9553 41.697H45.6509C46.2513 41.697 46.7379 41.1674 46.7379 40.5141V28.6853C46.7379 28.032 46.2513 27.5024 45.6509 27.5024Z" fill="url(#paint8_linear_83_304)"/>
<path d="M36.9553 28.1024H45.6509C45.8731 28.1024 46.1379 28.3146 46.1379 28.6853V40.5141C46.1379 40.8848 45.8731 41.097 45.6509 41.097H36.9553C36.7331 41.097 36.4683 40.8848 36.4683 40.5141V28.6853C36.4683 28.3146 36.7331 28.1024 36.9553 28.1024Z" stroke="url(#paint9_linear_83_304)" stroke-opacity="0.1" stroke-width="1.2"/>
</g>
</g>
<defs>
<filter id="filter0_bi_83_304" x="-20.7387" y="-5.96005" width="58.8696" height="71.6575" filterUnits="userSpaceOnUse" color-interpolation-filters="sRGB">
<feFlood flood-opacity="0" result="BackgroundImageFix"/>
<feGaussianBlur in="BackgroundImageFix" stdDeviation="12"/>
<feComposite in2="SourceAlpha" operator="in" result="effect1_backgroundBlur_83_304"/>
<feBlend mode="normal" in="SourceGraphic" in2="effect1_backgroundBlur_83_304" result="shape"/>
<feColorMatrix in="SourceAlpha" type="matrix" values="0 0 0 0 0 0 0 0 0 0 0 0 0 0 0 0 0 0 127 0" result="hardAlpha"/>
<feOffset dy="8"/>
<feGaussianBlur stdDeviation="6"/>
<feComposite in2="hardAlpha" operator="arithmetic" k2="-1" k3="1"/>
<feColorMatrix type="matrix" values="0 0 0 0 1 0 0 0 0 1 0 0 0 0 1 0 0 0 0.15 0"/>
<feBlend mode="normal" in2="shape" result="effect2_innerShadow_83_304"/>
</filter>
<filter id="filter1_bi_83_304" x="-4.43416" y="-22.2178" width="58.8696" height="87.9157" filterUnits="userSpaceOnUse" color-interpolation-filters="sRGB">
<feFlood flood-opacity="0" result="BackgroundImageFix"/>
<feGaussianBlur in="BackgroundImageFix" stdDeviation="12"/>
<feComposite in2="SourceAlpha" operator="in" result="effect1_backgroundBlur_83_304"/>
<feBlend mode="normal" in="SourceGraphic" in2="effect1_backgroundBlur_83_304" result="shape"/>
<feColorMatrix in="SourceAlpha" type="matrix" values="0 0 0 0 0 0 0 0 0 0 0 0 0 0 0 0 0 0 127 0" result="hardAlpha"/>
<feOffset dy="8"/>
<feGaussianBlur stdDeviation="6"/>
<feComposite in2="hardAlpha" operator="arithmetic" k2="-1" k3="1"/>
<feColorMatrix type="matrix" values="0 0 0 0 1 0 0 0 0 1 0 0 0 0 1 0 0 0 0.15 0"/>
<feBlend mode="normal" in2="shape" result="effect2_innerShadow_83_304"/>
</filter>
<filter id="filter2_bi_83_304" x="11.8683" y="3.50244" width="58.8696" height="62.1945" filterUnits="userSpaceOnUse" color-interpolation-filters="sRGB">
<feFlood flood-opacity="0" result="BackgroundImageFix"/>
<feGaussianBlur in="BackgroundImageFix" stdDeviation="12"/>
<feComposite in2="SourceAlpha" operator="in" result="effect1_backgroundBlur_83_304"/>
<feBlend mode="normal" in="SourceGraphic" in2="effect1_backgroundBlur_83_304" result="shape"/>
<feColorMatrix in="SourceAlpha" type="matrix" values="0 0 0 0 0 0 0 0 0 0 0 0 0 0 0 0 0 0 127 0" result="hardAlpha"/>
<feOffset dy="8"/>
<feGaussianBlur stdDeviation="6"/>
<feComposite in2="hardAlpha" operator="arithmetic" k2="-1" k3="1"/>
<feColorMatrix type="matrix" values="0 0 0 0 1 0 0 0 0 1 0 0 0 0 1 0 0 0 0.15 0"/>
<feBlend mode="normal" in2="shape" result="effect2_innerShadow_83_304"/>
</filter>
<linearGradient id="paint0_linear_83_304" x1="3.71421" y1="32.8739" x2="15.5694" y2="34.4967" gradientUnits="userSpaceOnUse">
<stop stop-color="#6C23CC"/>
<stop offset="1" stop-color="#0D0D26"/>
</linearGradient>
<linearGradient id="paint1_linear_83_304" x1="20.0187" y1="19.7646" x2="32.0595" y2="20.4276" gradientUnits="userSpaceOnUse">
<stop stop-color="#6C23CC"/>
<stop offset="1" stop-color="#0D0D26"/>
</linearGradient>
<linearGradient id="paint2_linear_83_304" x1="36.3212" y1="34.9523" x2="48.0233" y2="37.0478" gradientUnits="userSpaceOnUse">
<stop stop-color="#6C23CC"/>
<stop offset="1" stop-color="#0D0D26"/>
</linearGradient>
<linearGradient id="paint3_linear_83_304" x1="2.08333" y1="45.473" x2="12.9889" y2="67.5396" gradientUnits="userSpaceOnUse">
<stop stop-color="#6C23CC"/>
<stop offset="1" stop-color="#0D0D26"/>
</linearGradient>
<linearGradient id="paint4_linear_83_304" x1="3.71421" y1="22.7715" x2="15.7425" y2="23.539" gradientUnits="userSpaceOnUse">
<stop stop-color="#6C23CC"/>
<stop offset="1" stop-color="#010313"/>
</linearGradient>
<linearGradient id="paint5_linear_83_304" x1="3.60098" y1="19.1153" x2="14.1309" y2="19.1153" gradientUnits="userSpaceOnUse">
<stop stop-color="#6C23CC"/>
<stop offset="1" stop-color="#0D0D26"/>
</linearGradient>
<linearGradient id="paint6_linear_83_304" x1="20.0187" y1="9.76537" x2="32.0788" y2="10.2215" gradientUnits="userSpaceOnUse">
<stop stop-color="#6C23CC"/>
<stop offset="1" stop-color="#0D0D26"/>
</linearGradient>
<linearGradient id="paint7_linear_83_304" x1="19.9055" y1="3.59658" x2="30.4354" y2="3.59658" gradientUnits="userSpaceOnUse">
<stop stop-color="#6C23CC"/>
<stop offset="0.963542" stop-color="#010313"/>
</linearGradient>
<linearGradient id="paint8_linear_83_304" x1="36.3212" y1="30.3413" x2="48.2634" y2="31.6115" gradientUnits="userSpaceOnUse">
<stop stop-color="#6C23CC"/>
<stop offset="1" stop-color="#010313"/>
</linearGradient>
<linearGradient id="paint9_linear_83_304" x1="36.208" y1="28.1476" x2="46.7379" y2="28.1476" gradientUnits="userSpaceOnUse">
<stop stop-color="#6C23CC"/>
<stop offset="1" stop-color="#0D0D26"/>
</linearGradient>
</defs>
</svg>
