    <svg xmlns="http://www.w3.org/2000/svg" width="50" height="50" viewBox="0 0 50 50" fill="none">
  <path d="M13.0438 30.6681H4.34819C3.74788 30.6681 3.26123 30.915 3.26123 31.2195V41.1454C3.26123 41.4499 3.74788 41.6968 4.34819 41.6968H13.0438C13.6442 41.6968 14.1308 41.4499 14.1308 41.1454V31.2195C14.1308 30.915 13.6442 30.6681 13.0438 30.6681Z" fill="url(#paint0_linear_45_575)"/>
  <path d="M29.3485 14.2812H20.6529C20.0525 14.2812 19.5659 14.6423 19.5659 15.0876V40.8917C19.5659 41.3371 20.0525 41.6981 20.6529 41.6981H29.3485C29.9489 41.6981 30.4355 41.3371 30.4355 40.8917V15.0876C30.4355 14.6423 29.9489 14.2812 29.3485 14.2812Z" fill="url(#paint1_linear_45_575)"/>
  <path d="M45.6508 33.2662H36.9551C36.3548 33.2662 35.8682 33.5808 35.8682 33.9688V40.994C35.8682 41.382 36.3548 41.6965 36.9551 41.6965H45.6508C46.2511 41.6965 46.7377 41.382 46.7377 40.994V33.9688C46.7377 33.5808 46.2511 33.2662 45.6508 33.2662Z" fill="url(#paint2_linear_45_575)"/>
  <path d="M44.7464 44.7866H5.25362C4.65362 44.7866 0 46.5317 0 47.1317C0 47.7317 0.486957 48.2187 1.08696 48.2187H48.913C49.513 48.2187 50 47.7317 50 47.1317C50 46.5317 45.3464 44.7866 44.7464 44.7866Z" fill="url(#paint3_linear_45_575)"/>
  <g filter="url(#filter0_bi_45_575)">
    <path d="M13.0438 18.0399H4.34819C3.74788 18.0399 3.26123 18.5695 3.26123 19.2228V40.5146C3.26123 41.1679 3.74788 41.6975 4.34819 41.6975H13.0438C13.6442 41.6975 14.1308 41.1679 14.1308 40.5146V19.2228C14.1308 18.5695 13.6442 18.0399 13.0438 18.0399Z" fill="#1D1D1D" fill-opacity="0.05"/>
    <path d="M13.0438 18.0399H4.34819C3.74788 18.0399 3.26123 18.5695 3.26123 19.2228V40.5146C3.26123 41.1679 3.74788 41.6975 4.34819 41.6975H13.0438C13.6442 41.6975 14.1308 41.1679 14.1308 40.5146V19.2228C14.1308 18.5695 13.6442 18.0399 13.0438 18.0399Z" fill="url(#paint4_linear_45_575)" fill-opacity="0.2"/>
    <path d="M4.34819 18.6399H13.0438C13.266 18.6399 13.5308 18.8521 13.5308 19.2228V40.5146C13.5308 40.8853 13.266 41.0975 13.0438 41.0975H4.34819C4.126 41.0975 3.86123 40.8853 3.86123 40.5146V19.2228C3.86123 18.8521 4.126 18.6399 4.34819 18.6399Z" stroke="url(#paint5_linear_45_575)" stroke-opacity="0.1" stroke-width="1.2"/>
  </g>
  <g filter="url(#filter1_bi_45_575)">
    <path d="M29.3485 1.78223H20.6529C20.0525 1.78223 19.5659 2.30785 19.5659 2.95622V40.5239C19.5659 41.1723 20.0525 41.6979 20.6529 41.6979H29.3485C29.9489 41.6979 30.4355 41.1723 30.4355 40.5239V2.95622C30.4355 2.30785 29.9489 1.78223 29.3485 1.78223Z" fill="#1D1D1D" fill-opacity="0.05"/>
    <path d="M29.3485 1.78223H20.6529C20.0525 1.78223 19.5659 2.30785 19.5659 2.95622V40.5239C19.5659 41.1723 20.0525 41.6979 20.6529 41.6979H29.3485C29.9489 41.6979 30.4355 41.1723 30.4355 40.5239V2.95622C30.4355 2.30785 29.9489 1.78223 29.3485 1.78223Z" fill="url(#paint6_linear_45_575)" fill-opacity="0.2"/>
    <path d="M20.6529 2.38223H29.3485C29.5748 2.38223 29.8355 2.59485 29.8355 2.95622V40.5239C29.8355 40.8853 29.5748 41.0979 29.3485 41.0979H20.6529C20.4266 41.0979 20.1659 40.8853 20.1659 40.5239V2.95622C20.1659 2.59485 20.4266 2.38223 20.6529 2.38223Z" stroke="url(#paint7_linear_45_575)" stroke-opacity="0.1" stroke-width="1.2"/>
  </g>
  <g filter="url(#filter2_bi_45_575)">
    <path d="M45.6508 27.5024H36.9551C36.3548 27.5024 35.8682 28.032 35.8682 28.6853V40.5141C35.8682 41.1674 36.3548 41.697 36.9551 41.697H45.6508C46.2511 41.697 46.7377 41.1674 46.7377 40.5141V28.6853C46.7377 28.032 46.2511 27.5024 45.6508 27.5024Z" fill="#1D1D1D" fill-opacity="0.05"/>
    <path d="M45.6508 27.5024H36.9551C36.3548 27.5024 35.8682 28.032 35.8682 28.6853V40.5141C35.8682 41.1674 36.3548 41.697 36.9551 41.697H45.6508C46.2511 41.697 46.7377 41.1674 46.7377 40.5141V28.6853C46.7377 28.032 46.2511 27.5024 45.6508 27.5024Z" fill="url(#paint8_linear_45_575)" fill-opacity="0.2"/>
    <path d="M36.9551 28.1024H45.6508C45.873 28.1024 46.1377 28.3146 46.1377 28.6853V40.5141C46.1377 40.8848 45.873 41.097 45.6508 41.097H36.9551C36.7329 41.097 36.4682 40.8848 36.4682 40.5141V28.6853C36.4682 28.3146 36.7329 28.1024 36.9551 28.1024Z" stroke="url(#paint9_linear_45_575)" stroke-opacity="0.1" stroke-width="1.2"/>
  </g>
  <defs>
    <filter id="filter0_bi_45_575" x="-20.7388" y="-5.96008" width="58.8696" height="71.6576" filterUnits="userSpaceOnUse" color-interpolation-filters="sRGB">
      <feFlood flood-opacity="0" result="BackgroundImageFix"/>
      <feGaussianBlur in="BackgroundImageFix" stdDeviation="12"/>
      <feComposite in2="SourceAlpha" operator="in" result="effect1_backgroundBlur_45_575"/>
      <feBlend mode="normal" in="SourceGraphic" in2="effect1_backgroundBlur_45_575" result="shape"/>
      <feColorMatrix in="SourceAlpha" type="matrix" values="0 0 0 0 0 0 0 0 0 0 0 0 0 0 0 0 0 0 127 0" result="hardAlpha"/>
      <feOffset dy="8"/>
      <feGaussianBlur stdDeviation="6"/>
      <feComposite in2="hardAlpha" operator="arithmetic" k2="-1" k3="1"/>
      <feColorMatrix type="matrix" values="0 0 0 0 1 0 0 0 0 1 0 0 0 0 1 0 0 0 0.15 0"/>
      <feBlend mode="normal" in2="shape" result="effect2_innerShadow_45_575"/>
    </filter>
    <filter id="filter1_bi_45_575" x="-4.43408" y="-22.2178" width="58.8696" height="87.9156" filterUnits="userSpaceOnUse" color-interpolation-filters="sRGB">
      <feFlood flood-opacity="0" result="BackgroundImageFix"/>
      <feGaussianBlur in="BackgroundImageFix" stdDeviation="12"/>
      <feComposite in2="SourceAlpha" operator="in" result="effect1_backgroundBlur_45_575"/>
      <feBlend mode="normal" in="SourceGraphic" in2="effect1_backgroundBlur_45_575" result="shape"/>
      <feColorMatrix in="SourceAlpha" type="matrix" values="0 0 0 0 0 0 0 0 0 0 0 0 0 0 0 0 0 0 127 0" result="hardAlpha"/>
      <feOffset dy="8"/>
      <feGaussianBlur stdDeviation="6"/>
      <feComposite in2="hardAlpha" operator="arithmetic" k2="-1" k3="1"/>
      <feColorMatrix type="matrix" values="0 0 0 0 1 0 0 0 0 1 0 0 0 0 1 0 0 0 0.15 0"/>
      <feBlend mode="normal" in2="shape" result="effect2_innerShadow_45_575"/>
    </filter>
    <filter id="filter2_bi_45_575" x="11.8682" y="3.50244" width="58.8696" height="62.1946" filterUnits="userSpaceOnUse" color-interpolation-filters="sRGB">
      <feFlood flood-opacity="0" result="BackgroundImageFix"/>
      <feGaussianBlur in="BackgroundImageFix" stdDeviation="12"/>
      <feComposite in2="SourceAlpha" operator="in" result="effect1_backgroundBlur_45_575"/>
      <feBlend mode="normal" in="SourceGraphic" in2="effect1_backgroundBlur_45_575" result="shape"/>
      <feColorMatrix in="SourceAlpha" type="matrix" values="0 0 0 0 0 0 0 0 0 0 0 0 0 0 0 0 0 0 127 0" result="hardAlpha"/>
      <feOffset dy="8"/>
      <feGaussianBlur stdDeviation="6"/>
      <feComposite in2="hardAlpha" operator="arithmetic" k2="-1" k3="1"/>
      <feColorMatrix type="matrix" values="0 0 0 0 1 0 0 0 0 1 0 0 0 0 1 0 0 0 0.15 0"/>
      <feBlend mode="normal" in2="shape" result="effect2_innerShadow_45_575"/>
    </filter>
    <linearGradient id="paint0_linear_45_575" x1="3.71413" y1="32.8738" x2="15.5693" y2="34.4966" gradientUnits="userSpaceOnUse">
      <stop stop-color="#8AE6CF"/>
      <stop offset="1" stop-color="#7C3AE7"/>
    </linearGradient>
    <linearGradient id="paint1_linear_45_575" x1="20.0188" y1="19.7646" x2="32.0596" y2="20.4276" gradientUnits="userSpaceOnUse">
      <stop stop-color="#8AE6CF"/>
      <stop offset="1" stop-color="#7C3AE7"/>
    </linearGradient>
    <linearGradient id="paint2_linear_45_575" x1="36.3211" y1="34.9523" x2="48.0231" y2="37.0478" gradientUnits="userSpaceOnUse">
      <stop stop-color="#8AE6CF"/>
      <stop offset="1" stop-color="#7C3AE7"/>
    </linearGradient>
    <linearGradient id="paint3_linear_45_575" x1="2.08333" y1="45.473" x2="12.9889" y2="67.5396" gradientUnits="userSpaceOnUse">
      <stop stop-color="#8AE6CF"/>
      <stop offset="1" stop-color="#7C3AE7"/>
    </linearGradient>
    <linearGradient id="paint4_linear_45_575" x1="3.71413" y1="22.7714" x2="15.7424" y2="23.539" gradientUnits="userSpaceOnUse">
      <stop stop-color="#66FECB"/>
      <stop offset="1" stop-color="#8940FF"/>
    </linearGradient>
    <linearGradient id="paint5_linear_45_575" x1="3.6009" y1="19.1153" x2="14.1308" y2="19.1153" gradientUnits="userSpaceOnUse">
      <stop stop-color="#C8A6FF"/>
      <stop offset="1" stop-color="#69CFB5"/>
    </linearGradient>
    <linearGradient id="paint6_linear_45_575" x1="20.0188" y1="9.76537" x2="32.0789" y2="10.2215" gradientUnits="userSpaceOnUse">
      <stop stop-color="#66FECB"/>
      <stop offset="1" stop-color="#8940FF"/>
    </linearGradient>
    <linearGradient id="paint7_linear_45_575" x1="19.9056" y1="3.59658" x2="30.4355" y2="3.59658" gradientUnits="userSpaceOnUse">
      <stop stop-color="#C8A6FF"/>
      <stop offset="1" stop-color="#69CFB5"/>
    </linearGradient>
    <linearGradient id="paint8_linear_45_575" x1="36.3211" y1="30.3413" x2="48.2633" y2="31.6115" gradientUnits="userSpaceOnUse">
      <stop stop-color="#66FECB"/>
      <stop offset="1" stop-color="#8940FF"/>
    </linearGradient>
    <linearGradient id="paint9_linear_45_575" x1="36.2078" y1="28.1476" x2="46.7377" y2="28.1476" gradientUnits="userSpaceOnUse">
      <stop stop-color="#C8A6FF"/>
      <stop offset="1" stop-color="#69CFB5"/>
    </linearGradient>
  </defs>
</svg>