<svg xmlns="http://www.w3.org/2000/svg" width="50" height="50" viewBox="0 0 50 50" fill="none">
  <g filter="url(#filter0_i_45_556)">
    <path d="M42.9247 33.8358L27.2171 24.9999L42.9247 16.164C43.1651 16.0173 43.3391 15.7831 43.4102 15.5106C43.4813 15.2381 43.4439 14.9487 43.3058 14.7032C43.1677 14.4578 42.9398 14.2756 42.67 14.1948C42.4002 14.1141 42.1097 14.1413 41.8595 14.2705L26.0877 23.1423V5.43467C26.0877 5.14639 25.9732 4.86992 25.7694 4.66608C25.5655 4.46224 25.2891 4.34772 25.0008 4.34772C24.7125 4.34772 24.436 4.46224 24.2322 4.66608C24.0284 4.86992 23.9138 5.14639 23.9138 5.43467V23.1423L8.1421 14.2705C7.89192 14.1413 7.60134 14.1141 7.33156 14.1948C7.06177 14.2756 6.83384 14.4578 6.69577 14.7032C6.5577 14.9487 6.52026 15.2381 6.59135 15.5106C6.66244 15.7831 6.83651 16.0173 7.07688 16.164L22.7845 24.9999L7.07688 33.8358C6.86776 33.9537 6.70358 34.1376 6.60996 34.3587C6.51634 34.5798 6.49856 34.8256 6.55939 35.0579C6.62021 35.2901 6.75623 35.4957 6.9462 35.6425C7.13617 35.7894 7.3694 35.8691 7.60949 35.8695C7.79584 35.8697 7.97904 35.8214 8.14101 35.7292L23.9138 26.8575V44.5651C23.9138 44.8534 24.0284 45.1299 24.2322 45.3337C24.436 45.5375 24.7125 45.6521 25.0008 45.6521C25.2891 45.6521 25.5655 45.5375 25.7694 45.3337C25.9732 45.1299 26.0877 44.8534 26.0877 44.5651V26.8575L41.8595 35.7292C42.0218 35.8216 42.2054 35.8699 42.3921 35.8695C42.6323 35.8694 42.8657 35.7898 43.0558 35.643C43.246 35.4963 43.3822 35.2907 43.4431 35.0584C43.5041 34.8261 43.4864 34.5801 43.3928 34.3589C43.2992 34.1377 43.1339 33.9538 42.9247 33.8358Z" fill="url(#paint0_linear_45_556)"/>
  </g>
  <g filter="url(#filter1_bi_45_556)">
    <path d="M25.0002 30.4349C23.9253 30.4349 22.8746 30.1161 21.9808 29.519C21.0871 28.9218 20.3905 28.073 19.9791 27.0799C19.5678 26.0868 19.4602 24.9941 19.6699 23.9398C19.8796 22.8856 20.3972 21.9172 21.1572 21.1571C21.9173 20.3971 22.8857 19.8794 23.9399 19.6697C24.9942 19.46 26.0869 19.5677 27.08 19.979C28.0731 20.3904 28.9219 21.0869 29.5191 21.9807C30.1163 22.8744 30.435 23.9252 30.435 25.0001C30.4333 26.441 29.8601 27.8223 28.8413 28.8412C27.8224 29.86 26.4411 30.4332 25.0002 30.4349Z" fill="#1D1D1D" fill-opacity="0.05"/>
    <path d="M25.0002 30.4349C23.9253 30.4349 22.8746 30.1161 21.9808 29.519C21.0871 28.9218 20.3905 28.073 19.9791 27.0799C19.5678 26.0868 19.4602 24.9941 19.6699 23.9398C19.8796 22.8856 20.3972 21.9172 21.1572 21.1571C21.9173 20.3971 22.8857 19.8794 23.9399 19.6697C24.9942 19.46 26.0869 19.5677 27.08 19.979C28.0731 20.3904 28.9219 21.0869 29.5191 21.9807C30.1163 22.8744 30.435 23.9252 30.435 25.0001C30.4333 26.441 29.8601 27.8223 28.8413 28.8412C27.8224 29.86 26.4411 30.4332 25.0002 30.4349Z" fill="url(#paint1_linear_45_556)" fill-opacity="0.2"/>
    <path d="M22.3142 29.0201C23.1092 29.5513 24.044 29.8349 25.0002 29.8349C26.2819 29.8332 27.5107 29.3232 28.417 28.4169C29.3233 27.5106 29.8333 26.2818 29.835 25.0001L22.3142 29.0201ZM22.3142 29.0201C21.5191 28.4888 20.8994 27.7337 20.5335 26.8503M22.3142 29.0201L20.5335 26.8503M20.5335 26.8503C20.1675 25.9668 20.0718 24.9947 20.2583 24.0569M20.5335 26.8503L20.2583 24.0569M20.2583 24.0569C20.4449 23.119 20.9054 22.2575 21.5815 21.5814M20.2583 24.0569L21.5815 21.5814M21.5815 21.5814C22.2577 20.9052 23.1191 20.4448 24.057 20.2582M21.5815 21.5814L24.057 20.2582M24.057 20.2582C24.9949 20.0717 25.967 20.1674 26.8504 20.5333M24.057 20.2582L26.8504 20.5333M26.8504 20.5333C27.7338 20.8993 28.4889 21.519 29.0202 22.314M26.8504 20.5333L29.0202 22.314M29.0202 22.314C29.5513 23.1089 29.8349 24.0434 29.835 24.9994L29.0202 22.314Z" stroke="url(#paint2_linear_45_556)" stroke-opacity="0.1" stroke-width="1.2"/>
  </g>
  <g filter="url(#filter2_bi_45_556)">
    <path d="M42.3913 20.6522C45.3929 20.6522 47.8261 18.219 47.8261 15.2174C47.8261 12.2159 45.3929 9.78265 42.3913 9.78265C39.3898 9.78265 36.9565 12.2159 36.9565 15.2174C36.9565 18.219 39.3898 20.6522 42.3913 20.6522Z" fill="#1D1D1D" fill-opacity="0.05"/>
    <path d="M42.3913 20.6522C45.3929 20.6522 47.8261 18.219 47.8261 15.2174C47.8261 12.2159 45.3929 9.78265 42.3913 9.78265C39.3898 9.78265 36.9565 12.2159 36.9565 15.2174C36.9565 18.219 39.3898 20.6522 42.3913 20.6522Z" fill="url(#paint3_linear_45_556)" fill-opacity="0.2"/>
    <path d="M47.2261 15.2174C47.2261 17.8876 45.0615 20.0522 42.3913 20.0522C39.7211 20.0522 37.5565 17.8876 37.5565 15.2174C37.5565 12.5473 39.7211 10.3827 42.3913 10.3827C45.0615 10.3827 47.2261 12.5473 47.2261 15.2174Z" stroke="url(#paint4_linear_45_556)" stroke-opacity="0.1" stroke-width="1.2"/>
  </g>
  <g filter="url(#filter3_i_45_556)">
    <path d="M42.3912 35.8695C42.1029 35.8695 41.8264 35.755 41.6226 35.5511C41.4187 35.3473 41.3042 35.0708 41.3042 34.7825V15.2173C41.3042 14.929 41.4187 14.6526 41.6226 14.4487C41.8264 14.2449 42.1029 14.1304 42.3912 14.1304C42.6794 14.1304 42.9559 14.2449 43.1598 14.4487C43.3636 14.6526 43.4781 14.929 43.4781 15.2173V34.7825C43.4781 35.0708 43.3636 35.3473 43.1598 35.5511C42.9559 35.755 42.6794 35.8695 42.3912 35.8695Z" fill="url(#paint5_linear_45_556)"/>
  </g>
  <g filter="url(#filter4_bi_45_556)">
    <path d="M42.3913 40.2173C45.3929 40.2173 47.8261 37.784 47.8261 34.7825C47.8261 31.781 45.3929 29.3477 42.3913 29.3477C39.3898 29.3477 36.9565 31.781 36.9565 34.7825C36.9565 37.784 39.3898 40.2173 42.3913 40.2173Z" fill="#1D1D1D" fill-opacity="0.05"/>
    <path d="M42.3913 40.2173C45.3929 40.2173 47.8261 37.784 47.8261 34.7825C47.8261 31.781 45.3929 29.3477 42.3913 29.3477C39.3898 29.3477 36.9565 31.781 36.9565 34.7825C36.9565 37.784 39.3898 40.2173 42.3913 40.2173Z" fill="url(#paint6_linear_45_556)" fill-opacity="0.2"/>
    <path d="M47.2261 34.7825C47.2261 37.4527 45.0615 39.6173 42.3913 39.6173C39.7211 39.6173 37.5565 37.4527 37.5565 34.7825C37.5565 32.1123 39.7211 29.9477 42.3913 29.9477C45.0615 29.9477 47.2261 32.1123 47.2261 34.7825Z" stroke="url(#paint7_linear_45_556)" stroke-opacity="0.1" stroke-width="1.2"/>
  </g>
  <g filter="url(#filter5_i_45_556)">
    <path d="M24.9997 45.6524C24.7596 45.6523 24.5262 45.5727 24.336 45.426C24.1458 45.2792 24.0097 45.0737 23.9487 44.8413C23.8877 44.609 23.9054 44.3631 23.999 44.1419C24.0926 43.9207 24.2568 43.7367 24.466 43.6187L41.8573 33.8361C42.1075 33.7068 42.3981 33.6797 42.6679 33.7604C42.9377 33.8411 43.1656 34.0234 43.3037 34.2688C43.4417 34.5142 43.4792 34.8037 43.4081 35.0761C43.337 35.3486 43.1629 35.5829 42.9226 35.7296L25.5313 45.5122C25.3693 45.6043 25.1861 45.6527 24.9997 45.6524Z" fill="url(#paint8_linear_45_556)"/>
  </g>
  <g filter="url(#filter6_bi_45_556)">
    <path d="M25.0002 49.9999C28.0018 49.9999 30.435 47.5667 30.435 44.5652C30.435 41.5636 28.0018 39.1304 25.0002 39.1304C21.9987 39.1304 19.5654 41.5636 19.5654 44.5652C19.5654 47.5667 21.9987 49.9999 25.0002 49.9999Z" fill="#1D1D1D" fill-opacity="0.05"/>
    <path d="M25.0002 49.9999C28.0018 49.9999 30.435 47.5667 30.435 44.5652C30.435 41.5636 28.0018 39.1304 25.0002 39.1304C21.9987 39.1304 19.5654 41.5636 19.5654 44.5652C19.5654 47.5667 21.9987 49.9999 25.0002 49.9999Z" fill="url(#paint9_linear_45_556)" fill-opacity="0.2"/>
    <path d="M29.835 44.5652C29.835 47.2353 27.6704 49.3999 25.0002 49.3999C22.33 49.3999 20.1654 47.2353 20.1654 44.5652C20.1654 41.895 22.33 39.7304 25.0002 39.7304C27.6704 39.7304 29.835 41.895 29.835 44.5652Z" stroke="url(#paint10_linear_45_556)" stroke-opacity="0.1" stroke-width="1.2"/>
  </g>
  <g filter="url(#filter7_i_45_556)">
    <path d="M24.9992 45.6524C24.8129 45.6527 24.6297 45.6043 24.4677 45.5122L7.0764 35.7296C6.83603 35.5829 6.66196 35.3486 6.59087 35.0761C6.51978 34.8037 6.55722 34.5142 6.69529 34.2688C6.83336 34.0234 7.06129 33.8411 7.33108 33.7604C7.60086 33.6797 7.89144 33.7068 8.14162 33.8361L25.5329 43.6187C25.7421 43.7367 25.9063 43.9207 25.9999 44.1419C26.0935 44.3631 26.1112 44.609 26.0503 44.8413C25.9893 45.0737 25.8531 45.2792 25.663 45.426C25.4728 45.5727 25.2394 45.6523 24.9992 45.6524Z" fill="url(#paint11_linear_45_556)"/>
  </g>
  <g filter="url(#filter8_bi_45_556)">
    <path d="M7.60861 40.2173C10.6102 40.2173 13.0434 37.784 13.0434 34.7825C13.0434 31.781 10.6102 29.3477 7.60861 29.3477C4.60706 29.3477 2.17383 31.781 2.17383 34.7825C2.17383 37.784 4.60706 40.2173 7.60861 40.2173Z" fill="#1D1D1D" fill-opacity="0.05"/>
    <path d="M7.60861 40.2173C10.6102 40.2173 13.0434 37.784 13.0434 34.7825C13.0434 31.781 10.6102 29.3477 7.60861 29.3477C4.60706 29.3477 2.17383 31.781 2.17383 34.7825C2.17383 37.784 4.60706 40.2173 7.60861 40.2173Z" fill="url(#paint12_linear_45_556)" fill-opacity="0.2"/>
    <path d="M12.4434 34.7825C12.4434 37.4527 10.2788 39.6173 7.60861 39.6173C4.93843 39.6173 2.77383 37.4527 2.77383 34.7825C2.77383 32.1123 4.93843 29.9477 7.60861 29.9477C10.2788 29.9477 12.4434 32.1123 12.4434 34.7825Z" stroke="url(#paint13_linear_45_556)" stroke-opacity="0.1" stroke-width="1.2"/>
  </g>
  <g filter="url(#filter9_i_45_556)">
    <path d="M7.60893 35.8695C7.32065 35.8695 7.04418 35.755 6.84034 35.5511C6.63649 35.3473 6.52197 35.0708 6.52197 34.7825V15.2173C6.52197 14.929 6.63649 14.6526 6.84034 14.4487C7.04418 14.2449 7.32065 14.1304 7.60893 14.1304C7.89721 14.1304 8.17368 14.2449 8.37752 14.4487C8.58137 14.6526 8.69589 14.929 8.69589 15.2173V34.7825C8.69589 35.0708 8.58137 35.3473 8.37752 35.5511C8.17368 35.755 7.89721 35.8695 7.60893 35.8695Z" fill="url(#paint14_linear_45_556)"/>
  </g>
  <g filter="url(#filter10_bi_45_556)">
    <path d="M7.60861 20.6522C10.6102 20.6522 13.0434 18.219 13.0434 15.2174C13.0434 12.2159 10.6102 9.78265 7.60861 9.78265C4.60706 9.78265 2.17383 12.2159 2.17383 15.2174C2.17383 18.219 4.60706 20.6522 7.60861 20.6522Z" fill="#1D1D1D" fill-opacity="0.05"/>
    <path d="M7.60861 20.6522C10.6102 20.6522 13.0434 18.219 13.0434 15.2174C13.0434 12.2159 10.6102 9.78265 7.60861 9.78265C4.60706 9.78265 2.17383 12.2159 2.17383 15.2174C2.17383 18.219 4.60706 20.6522 7.60861 20.6522Z" fill="url(#paint15_linear_45_556)" fill-opacity="0.2"/>
    <path d="M12.4434 15.2174C12.4434 17.8876 10.2788 20.0522 7.60861 20.0522C4.93843 20.0522 2.77383 17.8876 2.77383 15.2174C2.77383 12.5473 4.93843 10.3827 7.60861 10.3827C10.2788 10.3827 12.4434 12.5473 12.4434 15.2174Z" stroke="url(#paint16_linear_45_556)" stroke-opacity="0.1" stroke-width="1.2"/>
  </g>
  <g filter="url(#filter11_i_45_556)">
    <path d="M7.60862 16.3041C7.36844 16.304 7.13504 16.2244 6.94489 16.0777C6.75474 15.931 6.61854 15.7254 6.55757 15.4931C6.49661 15.2607 6.5143 15.0148 6.6079 14.7936C6.7015 14.5724 6.86573 14.3884 7.07493 14.2704L24.4662 4.4878C24.5908 4.41175 24.7295 4.36159 24.8739 4.3403C25.0184 4.31901 25.1656 4.32703 25.3069 4.36388C25.4481 4.40073 25.5805 4.46567 25.6961 4.5548C25.8117 4.64394 25.9082 4.75545 25.9798 4.88269C26.0514 5.00992 26.0966 5.15027 26.1127 5.29536C26.1289 5.44046 26.1156 5.58731 26.0738 5.72718C26.032 5.86704 25.9624 5.99704 25.8692 6.10942C25.776 6.2218 25.6611 6.31426 25.5314 6.38128L8.14014 16.1639C7.97817 16.256 7.79497 16.3044 7.60862 16.3041Z" fill="url(#paint17_linear_45_556)"/>
  </g>
  <g filter="url(#filter12_bi_45_556)">
    <path d="M25.0002 10.8696C28.0018 10.8696 30.435 8.43633 30.435 5.43478C30.435 2.43324 28.0018 0 25.0002 0C21.9987 0 19.5654 2.43324 19.5654 5.43478C19.5654 8.43633 21.9987 10.8696 25.0002 10.8696Z" fill="#1D1D1D" fill-opacity="0.05"/>
    <path d="M25.0002 10.8696C28.0018 10.8696 30.435 8.43633 30.435 5.43478C30.435 2.43324 28.0018 0 25.0002 0C21.9987 0 19.5654 2.43324 19.5654 5.43478C19.5654 8.43633 21.9987 10.8696 25.0002 10.8696Z" fill="url(#paint18_linear_45_556)" fill-opacity="0.2"/>
    <path d="M29.835 5.43478C29.835 8.10496 27.6704 10.2696 25.0002 10.2696C22.33 10.2696 20.1654 8.10496 20.1654 5.43478C20.1654 2.76461 22.33 0.6 25.0002 0.6C27.6704 0.6 29.835 2.76461 29.835 5.43478Z" stroke="url(#paint19_linear_45_556)" stroke-opacity="0.1" stroke-width="1.2"/>
  </g>
  <g filter="url(#filter13_i_45_556)">
    <path d="M38.3034 11.6718L25.5327 4.48813C25.2826 4.35885 24.992 4.33171 24.7222 4.41243C24.4524 4.49314 24.2245 4.67541 24.0864 4.92083C23.9483 5.16626 23.9109 5.4557 23.982 5.72818C24.0531 6.00066 24.2271 6.23491 24.4675 6.38161L37.2393 13.5664C37.4616 12.8691 37.8236 12.2245 38.3034 11.6718Z" fill="url(#paint20_linear_45_556)"/>
  </g>
  <defs>
    <filter id="filter0_i_45_556" x="6.52393" y="4.34772" width="36.9546" height="49.3043" filterUnits="userSpaceOnUse" color-interpolation-filters="sRGB">
      <feFlood flood-opacity="0" result="BackgroundImageFix"/>
      <feBlend mode="normal" in="SourceGraphic" in2="BackgroundImageFix" result="shape"/>
      <feColorMatrix in="SourceAlpha" type="matrix" values="0 0 0 0 0 0 0 0 0 0 0 0 0 0 0 0 0 0 127 0" result="hardAlpha"/>
      <feOffset dy="8"/>
      <feGaussianBlur stdDeviation="4"/>
      <feComposite in2="hardAlpha" operator="arithmetic" k2="-1" k3="1"/>
      <feColorMatrix type="matrix" values="0 0 0 0 1 0 0 0 0 1 0 0 0 0 1 0 0 0 0.4 0"/>
      <feBlend mode="normal" in2="shape" result="effect1_innerShadow_45_556"/>
    </filter>
    <filter id="filter1_bi_45_556" x="-4.43457" y="-4.43469" width="58.8696" height="58.8696" filterUnits="userSpaceOnUse" color-interpolation-filters="sRGB">
      <feFlood flood-opacity="0" result="BackgroundImageFix"/>
      <feGaussianBlur in="BackgroundImageFix" stdDeviation="12"/>
      <feComposite in2="SourceAlpha" operator="in" result="effect1_backgroundBlur_45_556"/>
      <feBlend mode="normal" in="SourceGraphic" in2="effect1_backgroundBlur_45_556" result="shape"/>
      <feColorMatrix in="SourceAlpha" type="matrix" values="0 0 0 0 0 0 0 0 0 0 0 0 0 0 0 0 0 0 127 0" result="hardAlpha"/>
      <feOffset dy="8"/>
      <feGaussianBlur stdDeviation="6"/>
      <feComposite in2="hardAlpha" operator="arithmetic" k2="-1" k3="1"/>
      <feColorMatrix type="matrix" values="0 0 0 0 1 0 0 0 0 1 0 0 0 0 1 0 0 0 0.15 0"/>
      <feBlend mode="normal" in2="shape" result="effect2_innerShadow_45_556"/>
    </filter>
    <filter id="filter2_bi_45_556" x="12.9565" y="-14.2173" width="58.8696" height="58.8696" filterUnits="userSpaceOnUse" color-interpolation-filters="sRGB">
      <feFlood flood-opacity="0" result="BackgroundImageFix"/>
      <feGaussianBlur in="BackgroundImageFix" stdDeviation="12"/>
      <feComposite in2="SourceAlpha" operator="in" result="effect1_backgroundBlur_45_556"/>
      <feBlend mode="normal" in="SourceGraphic" in2="effect1_backgroundBlur_45_556" result="shape"/>
      <feColorMatrix in="SourceAlpha" type="matrix" values="0 0 0 0 0 0 0 0 0 0 0 0 0 0 0 0 0 0 127 0" result="hardAlpha"/>
      <feOffset dy="8"/>
      <feGaussianBlur stdDeviation="6"/>
      <feComposite in2="hardAlpha" operator="arithmetic" k2="-1" k3="1"/>
      <feColorMatrix type="matrix" values="0 0 0 0 1 0 0 0 0 1 0 0 0 0 1 0 0 0 0.15 0"/>
      <feBlend mode="normal" in2="shape" result="effect2_innerShadow_45_556"/>
    </filter>
    <filter id="filter3_i_45_556" x="41.3042" y="14.1304" width="2.17383" height="29.7391" filterUnits="userSpaceOnUse" color-interpolation-filters="sRGB">
      <feFlood flood-opacity="0" result="BackgroundImageFix"/>
      <feBlend mode="normal" in="SourceGraphic" in2="BackgroundImageFix" result="shape"/>
      <feColorMatrix in="SourceAlpha" type="matrix" values="0 0 0 0 0 0 0 0 0 0 0 0 0 0 0 0 0 0 127 0" result="hardAlpha"/>
      <feOffset dy="8"/>
      <feGaussianBlur stdDeviation="4"/>
      <feComposite in2="hardAlpha" operator="arithmetic" k2="-1" k3="1"/>
      <feColorMatrix type="matrix" values="0 0 0 0 1 0 0 0 0 1 0 0 0 0 1 0 0 0 0.4 0"/>
      <feBlend mode="normal" in2="shape" result="effect1_innerShadow_45_556"/>
    </filter>
    <filter id="filter4_bi_45_556" x="12.9565" y="5.34772" width="58.8696" height="58.8696" filterUnits="userSpaceOnUse" color-interpolation-filters="sRGB">
      <feFlood flood-opacity="0" result="BackgroundImageFix"/>
      <feGaussianBlur in="BackgroundImageFix" stdDeviation="12"/>
      <feComposite in2="SourceAlpha" operator="in" result="effect1_backgroundBlur_45_556"/>
      <feBlend mode="normal" in="SourceGraphic" in2="effect1_backgroundBlur_45_556" result="shape"/>
      <feColorMatrix in="SourceAlpha" type="matrix" values="0 0 0 0 0 0 0 0 0 0 0 0 0 0 0 0 0 0 127 0" result="hardAlpha"/>
      <feOffset dy="8"/>
      <feGaussianBlur stdDeviation="6"/>
      <feComposite in2="hardAlpha" operator="arithmetic" k2="-1" k3="1"/>
      <feColorMatrix type="matrix" values="0 0 0 0 1 0 0 0 0 1 0 0 0 0 1 0 0 0 0.15 0"/>
      <feBlend mode="normal" in2="shape" result="effect2_innerShadow_45_556"/>
    </filter>
    <filter id="filter5_i_45_556" x="23.9131" y="33.7148" width="19.5303" height="19.9376" filterUnits="userSpaceOnUse" color-interpolation-filters="sRGB">
      <feFlood flood-opacity="0" result="BackgroundImageFix"/>
      <feBlend mode="normal" in="SourceGraphic" in2="BackgroundImageFix" result="shape"/>
      <feColorMatrix in="SourceAlpha" type="matrix" values="0 0 0 0 0 0 0 0 0 0 0 0 0 0 0 0 0 0 127 0" result="hardAlpha"/>
      <feOffset dy="8"/>
      <feGaussianBlur stdDeviation="4"/>
      <feComposite in2="hardAlpha" operator="arithmetic" k2="-1" k3="1"/>
      <feColorMatrix type="matrix" values="0 0 0 0 1 0 0 0 0 1 0 0 0 0 1 0 0 0 0.4 0"/>
      <feBlend mode="normal" in2="shape" result="effect1_innerShadow_45_556"/>
    </filter>
    <filter id="filter6_bi_45_556" x="-4.43457" y="15.1304" width="58.8696" height="58.8695" filterUnits="userSpaceOnUse" color-interpolation-filters="sRGB">
      <feFlood flood-opacity="0" result="BackgroundImageFix"/>
      <feGaussianBlur in="BackgroundImageFix" stdDeviation="12"/>
      <feComposite in2="SourceAlpha" operator="in" result="effect1_backgroundBlur_45_556"/>
      <feBlend mode="normal" in="SourceGraphic" in2="effect1_backgroundBlur_45_556" result="shape"/>
      <feColorMatrix in="SourceAlpha" type="matrix" values="0 0 0 0 0 0 0 0 0 0 0 0 0 0 0 0 0 0 127 0" result="hardAlpha"/>
      <feOffset dy="8"/>
      <feGaussianBlur stdDeviation="6"/>
      <feComposite in2="hardAlpha" operator="arithmetic" k2="-1" k3="1"/>
      <feColorMatrix type="matrix" values="0 0 0 0 1 0 0 0 0 1 0 0 0 0 1 0 0 0 0.15 0"/>
      <feBlend mode="normal" in2="shape" result="effect2_innerShadow_45_556"/>
    </filter>
    <filter id="filter7_i_45_556" x="6.55566" y="33.7148" width="19.5303" height="19.9376" filterUnits="userSpaceOnUse" color-interpolation-filters="sRGB">
      <feFlood flood-opacity="0" result="BackgroundImageFix"/>
      <feBlend mode="normal" in="SourceGraphic" in2="BackgroundImageFix" result="shape"/>
      <feColorMatrix in="SourceAlpha" type="matrix" values="0 0 0 0 0 0 0 0 0 0 0 0 0 0 0 0 0 0 127 0" result="hardAlpha"/>
      <feOffset dy="8"/>
      <feGaussianBlur stdDeviation="4"/>
      <feComposite in2="hardAlpha" operator="arithmetic" k2="-1" k3="1"/>
      <feColorMatrix type="matrix" values="0 0 0 0 1 0 0 0 0 1 0 0 0 0 1 0 0 0 0.4 0"/>
      <feBlend mode="normal" in2="shape" result="effect1_innerShadow_45_556"/>
    </filter>
    <filter id="filter8_bi_45_556" x="-21.8262" y="5.34772" width="58.8696" height="58.8696" filterUnits="userSpaceOnUse" color-interpolation-filters="sRGB">
      <feFlood flood-opacity="0" result="BackgroundImageFix"/>
      <feGaussianBlur in="BackgroundImageFix" stdDeviation="12"/>
      <feComposite in2="SourceAlpha" operator="in" result="effect1_backgroundBlur_45_556"/>
      <feBlend mode="normal" in="SourceGraphic" in2="effect1_backgroundBlur_45_556" result="shape"/>
      <feColorMatrix in="SourceAlpha" type="matrix" values="0 0 0 0 0 0 0 0 0 0 0 0 0 0 0 0 0 0 127 0" result="hardAlpha"/>
      <feOffset dy="8"/>
      <feGaussianBlur stdDeviation="6"/>
      <feComposite in2="hardAlpha" operator="arithmetic" k2="-1" k3="1"/>
      <feColorMatrix type="matrix" values="0 0 0 0 1 0 0 0 0 1 0 0 0 0 1 0 0 0 0.15 0"/>
      <feBlend mode="normal" in2="shape" result="effect2_innerShadow_45_556"/>
    </filter>
    <filter id="filter9_i_45_556" x="6.52197" y="14.1304" width="2.17383" height="29.7391" filterUnits="userSpaceOnUse" color-interpolation-filters="sRGB">
      <feFlood flood-opacity="0" result="BackgroundImageFix"/>
      <feBlend mode="normal" in="SourceGraphic" in2="BackgroundImageFix" result="shape"/>
      <feColorMatrix in="SourceAlpha" type="matrix" values="0 0 0 0 0 0 0 0 0 0 0 0 0 0 0 0 0 0 127 0" result="hardAlpha"/>
      <feOffset dy="8"/>
      <feGaussianBlur stdDeviation="4"/>
      <feComposite in2="hardAlpha" operator="arithmetic" k2="-1" k3="1"/>
      <feColorMatrix type="matrix" values="0 0 0 0 1 0 0 0 0 1 0 0 0 0 1 0 0 0 0.4 0"/>
      <feBlend mode="normal" in2="shape" result="effect1_innerShadow_45_556"/>
    </filter>
    <filter id="filter10_bi_45_556" x="-21.8262" y="-14.2173" width="58.8696" height="58.8696" filterUnits="userSpaceOnUse" color-interpolation-filters="sRGB">
      <feFlood flood-opacity="0" result="BackgroundImageFix"/>
      <feGaussianBlur in="BackgroundImageFix" stdDeviation="12"/>
      <feComposite in2="SourceAlpha" operator="in" result="effect1_backgroundBlur_45_556"/>
      <feBlend mode="normal" in="SourceGraphic" in2="effect1_backgroundBlur_45_556" result="shape"/>
      <feColorMatrix in="SourceAlpha" type="matrix" values="0 0 0 0 0 0 0 0 0 0 0 0 0 0 0 0 0 0 127 0" result="hardAlpha"/>
      <feOffset dy="8"/>
      <feGaussianBlur stdDeviation="6"/>
      <feComposite in2="hardAlpha" operator="arithmetic" k2="-1" k3="1"/>
      <feColorMatrix type="matrix" values="0 0 0 0 1 0 0 0 0 1 0 0 0 0 1 0 0 0 0.15 0"/>
      <feBlend mode="normal" in2="shape" result="effect2_innerShadow_45_556"/>
    </filter>
    <filter id="filter11_i_45_556" x="6.52197" y="4.32867" width="19.5977" height="19.9754" filterUnits="userSpaceOnUse" color-interpolation-filters="sRGB">
      <feFlood flood-opacity="0" result="BackgroundImageFix"/>
      <feBlend mode="normal" in="SourceGraphic" in2="BackgroundImageFix" result="shape"/>
      <feColorMatrix in="SourceAlpha" type="matrix" values="0 0 0 0 0 0 0 0 0 0 0 0 0 0 0 0 0 0 127 0" result="hardAlpha"/>
      <feOffset dy="8"/>
      <feGaussianBlur stdDeviation="4"/>
      <feComposite in2="hardAlpha" operator="arithmetic" k2="-1" k3="1"/>
      <feColorMatrix type="matrix" values="0 0 0 0 1 0 0 0 0 1 0 0 0 0 1 0 0 0 0.4 0"/>
      <feBlend mode="normal" in2="shape" result="effect1_innerShadow_45_556"/>
    </filter>
    <filter id="filter12_bi_45_556" x="-4.43457" y="-24" width="58.8696" height="58.8696" filterUnits="userSpaceOnUse" color-interpolation-filters="sRGB">
      <feFlood flood-opacity="0" result="BackgroundImageFix"/>
      <feGaussianBlur in="BackgroundImageFix" stdDeviation="12"/>
      <feComposite in2="SourceAlpha" operator="in" result="effect1_backgroundBlur_45_556"/>
      <feBlend mode="normal" in="SourceGraphic" in2="effect1_backgroundBlur_45_556" result="shape"/>
      <feColorMatrix in="SourceAlpha" type="matrix" values="0 0 0 0 0 0 0 0 0 0 0 0 0 0 0 0 0 0 127 0" result="hardAlpha"/>
      <feOffset dy="8"/>
      <feGaussianBlur stdDeviation="6"/>
      <feComposite in2="hardAlpha" operator="arithmetic" k2="-1" k3="1"/>
      <feColorMatrix type="matrix" values="0 0 0 0 1 0 0 0 0 1 0 0 0 0 1 0 0 0 0.15 0"/>
      <feBlend mode="normal" in2="shape" result="effect2_innerShadow_45_556"/>
    </filter>
    <filter id="filter13_i_45_556" x="23.9468" y="4.36682" width="14.3564" height="17.1996" filterUnits="userSpaceOnUse" color-interpolation-filters="sRGB">
      <feFlood flood-opacity="0" result="BackgroundImageFix"/>
      <feBlend mode="normal" in="SourceGraphic" in2="BackgroundImageFix" result="shape"/>
      <feColorMatrix in="SourceAlpha" type="matrix" values="0 0 0 0 0 0 0 0 0 0 0 0 0 0 0 0 0 0 127 0" result="hardAlpha"/>
      <feOffset dy="8"/>
      <feGaussianBlur stdDeviation="4"/>
      <feComposite in2="hardAlpha" operator="arithmetic" k2="-1" k3="1"/>
      <feColorMatrix type="matrix" values="0 0 0 0 1 0 0 0 0 1 0 0 0 0 1 0 0 0 0.4 0"/>
      <feBlend mode="normal" in2="shape" result="effect1_innerShadow_45_556"/>
    </filter>
    <linearGradient id="paint0_linear_45_556" x1="8.06371" y1="12.6086" x2="48.5002" y2="17.6334" gradientUnits="userSpaceOnUse">
      <stop stop-color="#8AE6CF"/>
      <stop offset="1" stop-color="#7C3AE7"/>
    </linearGradient>
    <linearGradient id="paint1_linear_45_556" x1="20.0183" y1="21.7392" x2="31.8671" y2="23.3849" gradientUnits="userSpaceOnUse">
      <stop stop-color="#66FECB"/>
      <stop offset="1" stop-color="#8940FF"/>
    </linearGradient>
    <linearGradient id="paint2_linear_45_556" x1="19.9051" y1="20.0594" x2="30.435" y2="20.0594" gradientUnits="userSpaceOnUse">
      <stop stop-color="#C8A6FF"/>
      <stop offset="1" stop-color="#69CFB5"/>
    </linearGradient>
    <linearGradient id="paint3_linear_45_556" x1="37.4094" y1="11.9566" x2="49.2582" y2="13.6022" gradientUnits="userSpaceOnUse">
      <stop stop-color="#66FECB"/>
      <stop offset="1" stop-color="#8940FF"/>
    </linearGradient>
    <linearGradient id="paint4_linear_45_556" x1="37.2962" y1="10.2767" x2="47.8261" y2="10.2767" gradientUnits="userSpaceOnUse">
      <stop stop-color="#C8A6FF"/>
      <stop offset="1" stop-color="#69CFB5"/>
    </linearGradient>
    <linearGradient id="paint5_linear_45_556" x1="41.3948" y1="18.4782" x2="43.8098" y2="18.5117" gradientUnits="userSpaceOnUse">
      <stop stop-color="#8AE6CF"/>
      <stop offset="1" stop-color="#7C3AE7"/>
    </linearGradient>
    <linearGradient id="paint6_linear_45_556" x1="37.4094" y1="31.5216" x2="49.2582" y2="33.1673" gradientUnits="userSpaceOnUse">
      <stop stop-color="#66FECB"/>
      <stop offset="1" stop-color="#8940FF"/>
    </linearGradient>
    <linearGradient id="paint7_linear_45_556" x1="37.2962" y1="29.8418" x2="47.8261" y2="29.8418" gradientUnits="userSpaceOnUse">
      <stop stop-color="#C8A6FF"/>
      <stop offset="1" stop-color="#69CFB5"/>
    </linearGradient>
    <linearGradient id="paint8_linear_45_556" x1="24.7268" y1="36.1023" x2="45.3617" y2="40.7911" gradientUnits="userSpaceOnUse">
      <stop stop-color="#8AE6CF"/>
      <stop offset="1" stop-color="#7C3AE7"/>
    </linearGradient>
    <linearGradient id="paint9_linear_45_556" x1="20.0183" y1="41.3043" x2="31.8671" y2="42.9499" gradientUnits="userSpaceOnUse">
      <stop stop-color="#66FECB"/>
      <stop offset="1" stop-color="#8940FF"/>
    </linearGradient>
    <linearGradient id="paint10_linear_45_556" x1="19.9051" y1="39.6244" x2="30.435" y2="39.6244" gradientUnits="userSpaceOnUse">
      <stop stop-color="#C8A6FF"/>
      <stop offset="1" stop-color="#69CFB5"/>
    </linearGradient>
    <linearGradient id="paint11_linear_45_556" x1="7.36942" y1="36.1023" x2="28.0043" y2="40.7911" gradientUnits="userSpaceOnUse">
      <stop stop-color="#8AE6CF"/>
      <stop offset="1" stop-color="#7C3AE7"/>
    </linearGradient>
    <linearGradient id="paint12_linear_45_556" x1="2.62673" y1="31.5216" x2="14.4755" y2="33.1673" gradientUnits="userSpaceOnUse">
      <stop stop-color="#66FECB"/>
      <stop offset="1" stop-color="#8940FF"/>
    </linearGradient>
    <linearGradient id="paint13_linear_45_556" x1="2.5135" y1="29.8418" x2="13.0434" y2="29.8418" gradientUnits="userSpaceOnUse">
      <stop stop-color="#C8A6FF"/>
      <stop offset="1" stop-color="#69CFB5"/>
    </linearGradient>
    <linearGradient id="paint14_linear_45_556" x1="6.61255" y1="18.4782" x2="9.02755" y2="18.5117" gradientUnits="userSpaceOnUse">
      <stop stop-color="#8AE6CF"/>
      <stop offset="1" stop-color="#7C3AE7"/>
    </linearGradient>
    <linearGradient id="paint15_linear_45_556" x1="2.62673" y1="11.9566" x2="14.4755" y2="13.6022" gradientUnits="userSpaceOnUse">
      <stop stop-color="#66FECB"/>
      <stop offset="1" stop-color="#8940FF"/>
    </linearGradient>
    <linearGradient id="paint16_linear_45_556" x1="2.5135" y1="10.2767" x2="13.0434" y2="10.2767" gradientUnits="userSpaceOnUse">
      <stop stop-color="#C8A6FF"/>
      <stop offset="1" stop-color="#69CFB5"/>
    </linearGradient>
    <linearGradient id="paint17_linear_45_556" x1="7.33853" y1="6.72376" x2="28.0438" y2="11.4298" gradientUnits="userSpaceOnUse">
      <stop stop-color="#8AE6CF"/>
      <stop offset="1" stop-color="#7C3AE7"/>
    </linearGradient>
    <linearGradient id="paint18_linear_45_556" x1="20.0183" y1="2.17391" x2="31.8671" y2="3.81957" gradientUnits="userSpaceOnUse">
      <stop stop-color="#66FECB"/>
      <stop offset="1" stop-color="#8940FF"/>
    </linearGradient>
    <linearGradient id="paint19_linear_45_556" x1="19.9051" y1="0.494071" x2="30.435" y2="0.494071" gradientUnits="userSpaceOnUse">
      <stop stop-color="#C8A6FF"/>
      <stop offset="1" stop-color="#69CFB5"/>
    </linearGradient>
    <linearGradient id="paint20_linear_45_556" x1="24.545" y1="6.20674" x2="39.781" y2="9.50909" gradientUnits="userSpaceOnUse">
      <stop stop-color="#8AE6CF"/>
      <stop offset="1" stop-color="#7C3AE7"/>
    </linearGradient>
  </defs>
</svg>