<svg width="138" height="70" viewBox="0 0 138 70" fill="none" xmlns="http://www.w3.org/2000/svg">
<path d="M63.5031 29.4221C64.0044 27.263 64.5514 25.1488 65.0527 22.9896C66.0554 18.8512 67.0126 14.7128 68.0153 10.5744C68.3343 9.22491 68.6534 9 70.0663 9C70.75 9 71.4336 9 72.1173 9C73.3023 9.04498 73.6214 9.2699 73.8948 10.4394C74.9431 14.7128 75.9458 18.9862 76.9941 23.3045C77.4955 25.4637 78.0424 27.6228 78.6805 29.782C78.7717 29.5121 78.8628 29.2872 78.9084 29.0173C80.5036 22.9446 82.0988 16.872 83.6941 10.7993C84.1043 9.2699 84.3777 9.04498 86.0185 9.04498C86.7022 9.04498 87.3859 9.04498 88.0695 9.04498C88.8443 9.04498 89.0722 9.31488 88.9811 10.1246C88.9355 10.3495 88.8899 10.6194 88.7988 10.8443C86.3832 18.4014 84.0131 25.9135 81.5975 33.4706C81.1873 34.8201 80.9138 35 79.4553 35C78.7717 35 78.1336 35 77.4499 35C76.1281 35 75.8091 34.7301 75.49 33.4706C74.3506 28.8824 73.2112 24.2941 72.1173 19.7059C71.7071 18.0865 71.3425 16.5121 70.7955 14.8927C70.4309 16.2872 70.1119 17.7266 69.7472 19.1211C68.6078 23.8443 67.4684 28.5675 66.3289 33.2907C66.0099 34.6851 65.6908 34.955 64.1868 34.955C63.5942 34.955 63.0017 34.955 62.4092 34.955C60.9052 34.955 60.6317 34.7301 60.1759 33.3356C58.5807 28.1626 56.9855 22.9896 55.3902 17.8616C54.661 15.4325 53.8862 12.9585 53.1569 10.5294C52.7923 9.2699 53.0202 9.04498 54.2964 9.04498C55.0256 9.04498 55.7549 9.04498 56.5297 9.04498C57.7147 9.04498 58.0793 9.31488 58.3528 10.4394C59.2188 13.6782 60.0392 16.872 60.8596 20.1107C61.6344 23.0346 62.3636 25.9585 63.1385 28.8824C63.184 29.1073 63.2752 29.2872 63.3208 29.5121C63.3664 29.4221 63.4575 29.4221 63.5031 29.4221Z" fill="#F5F5F5"/>
<path d="M45.678 19.9621C45.5404 18.3636 45.4945 16.7652 45.2193 15.2556C44.8065 13.1687 43.2011 12.1475 40.6324 11.9699C37.8344 11.7479 35.2199 12.3251 32.6513 13.3463C30.8624 14.0567 30.7706 13.9235 30.633 12.0587C30.5413 10.7266 31.0917 10.0606 32.3302 9.57219C35.8621 8.15135 39.5316 7.61854 43.3387 8.28456C47.5128 8.99498 50.0814 11.6147 50.3108 15.744C50.4942 19.2073 50.4484 22.715 50.4484 26.1783C50.4484 28.0431 50.7695 29.7748 51.7327 31.4176C52.1914 32.1724 52.0538 32.5277 51.3658 33.0161C50.7695 33.4157 50.1732 33.8153 49.5769 34.1705C48.9347 34.5701 48.2925 34.5257 47.8338 33.9485C47.1458 33.0605 46.5037 32.128 45.8156 31.1068C45.5863 31.3288 45.3569 31.5952 45.0817 31.8616C42.192 34.5701 38.7518 35.5025 34.8988 34.7477C30.6789 33.9485 28.5689 30.5296 29.0735 26.4003C29.5322 22.5374 32.4678 19.9177 36.6877 19.3849C39.394 19.0297 42.1002 19.3405 44.7606 19.8733C44.9441 19.9177 45.1276 19.9621 45.3569 20.0065C45.3111 20.0065 45.3569 19.9621 45.678 19.9621ZM45.5404 23.2478C43.0176 22.715 40.4948 22.3154 37.9262 22.7594C34.853 23.2922 33.431 25.5567 34.2108 28.5315C34.5778 29.8636 35.4493 30.7516 36.8253 31.018C39.3022 31.5064 41.5498 31.018 43.5222 29.464C45.6321 27.8655 45.5863 25.6011 45.5404 23.2478Z" fill="#F5F5F5"/>
<path d="M100.306 36C97.7906 35.9541 95.3216 35.5414 92.9457 34.5783C91.2686 33.8904 90.6164 32.3311 91.2221 30.6801C91.455 29.9922 91.9674 30.1757 92.4799 30.3591C93.7842 30.7719 95.042 31.2763 96.3464 31.5974C98.5359 32.1018 100.725 32.2394 102.915 31.6891C104.359 31.3222 105.57 30.6801 105.99 29.1209C106.409 27.6533 105.943 26.2775 104.592 25.5437C103.567 24.9934 102.496 24.6265 101.378 24.2596C99.9335 23.7551 98.4894 23.3883 97.0452 22.8838C94.8557 22.1041 93.0855 20.8659 92.0606 18.7104C90.6164 15.6378 91.5947 12.1065 94.5296 9.99687C96.9055 8.30002 99.654 7.79555 102.496 8.07072C104.219 8.25416 105.943 8.62105 107.573 9.12552C109.437 9.67585 110.089 11.1434 109.483 12.9778C109.297 13.6199 108.831 13.5282 108.319 13.3447C107.108 12.932 105.896 12.4734 104.639 12.1982C102.775 11.8313 100.865 11.7854 99.0018 12.2899C97.185 12.7944 96.2999 13.8492 96.3464 15.5002C96.3464 16.6008 96.8589 17.4722 97.8372 18.0225C98.7689 18.527 99.7472 18.9397 100.725 19.2608C102.542 19.9028 104.359 20.4073 106.176 21.0493C108.971 22.1041 110.788 24.0303 110.974 27.0571C111.207 30.1757 109.856 32.6063 107.154 34.2573C105.151 35.6331 102.775 36 100.306 36Z" fill="#F5F5F5"/>
<path d="M69.6707 60.969C53.9036 60.9246 39.9345 55.9891 27.7634 46.3405C27.0258 45.7625 26.2882 45.0955 25.5966 44.473C25.2278 44.1618 24.7668 43.7616 25.1356 43.2725C25.5044 42.7834 26.0115 43.0502 26.4726 43.317C32.0971 46.5184 37.9982 49.0083 44.2221 50.9203C49.3856 52.4765 54.5952 53.5881 59.9431 54.2106C64.2767 54.7441 68.6104 55.0109 72.9901 54.8775C83.7781 54.5218 94.1973 52.3876 104.202 48.3414C104.524 48.208 104.847 48.0746 105.17 47.9857C105.907 47.7633 106.599 47.9412 106.876 48.4303C107.152 48.9194 106.968 49.6308 106.322 50.0754C104.57 51.2315 102.818 52.3876 100.974 53.4102C94.3817 57.0118 87.2358 59.146 79.7672 60.3021C76.4478 60.7912 73.0823 61.1024 69.6707 60.969Z" fill="#F5F5F5"/>
<path d="M105.595 44.1241C103.532 44.3055 101.282 44.4868 99.0314 44.6682C98.7032 44.7135 98.3751 44.5322 98 44.4868C98.1875 44.1695 98.3282 43.7614 98.6095 43.5801C100.25 42.492 102.126 41.8119 104.095 41.4492C106.954 40.9052 109.814 40.8145 112.674 41.4039C112.768 41.4039 112.862 41.4492 112.955 41.4492C114.784 41.9026 115.112 42.492 114.971 44.3508C114.643 48.0232 113.424 51.3782 111.221 54.3704C110.611 55.1865 109.814 55.9119 109.064 56.6373C108.83 56.864 108.408 56.864 108.033 57C108.033 56.6373 107.939 56.2746 108.033 56.0026C108.877 53.4637 109.767 50.9248 110.658 48.4312C110.752 48.1138 110.799 47.7511 110.846 47.4338C111.174 45.5749 110.471 44.6229 108.548 44.3962C107.658 44.2602 106.72 44.2148 105.595 44.1241Z" fill="#F5F5F5"/>
</svg>
