<svg width="153" height="80" viewBox="0 0 153 80" fill="none" xmlns="http://www.w3.org/2000/svg">
<path d="M24 72.5V62.5H30.7805C32.5854 62.5 33.8049 63.3947 33.8049 65.0789C33.8049 66.3421 33.2195 66.9737 32.5366 67.1842C33.3659 67.4474 34 68.2895 34 69.4474C34 71.2895 32.8293 72.4474 31.0244 72.4474H24V72.5ZM26.7805 68.1316V66.6579H30.7805C31.7073 66.6579 32.1463 66.2895 32.1463 65.4474C32.1463 64.3947 31.3659 64.2368 30.1951 64.2368H25.6585V70.7632H30.3415C31.5122 70.7632 32.3415 70.3947 32.3415 69.4474C32.3415 68.6053 31.8537 68.1316 30.9268 68.1316H26.7805Z" fill="#F5F5F5"/>
<path d="M44.6816 72.5L42.3139 69.7105H38.8117V68.1842H42.7085C43.8924 68.1842 44.4843 67.4474 44.4843 66.1842C44.4843 64.8684 43.7937 64.2368 42.7085 64.2368H37.6278V72.5H36V62.5H42.7085C44.8296 62.5 46.1121 63.9211 46.1121 66.1316C46.1121 67.7632 45.3722 68.9211 44.1883 69.4474L47 72.5H44.6816Z" fill="#F5F5F5"/>
<path d="M48 72.5V62.5H50V72.5H48Z" fill="#F5F5F5"/>
<path d="M52 72.5V62.5H57.4455C60.0693 62.5 62 64.5 62 67.3947C62 70.2895 60.0693 72.5 57.4455 72.5H52ZM57.4455 70.7105C59.1287 70.7105 60.3663 69.3421 60.3663 67.4474C60.3663 65.5526 59.1287 64.2368 57.4455 64.2368H53.6337V70.7105H57.4455Z" fill="#F5F5F5"/>
<path d="M67.466 72.5C64.8932 72.5 63 70.2895 63 67.3947C63 64.4474 64.8932 62.5 67.466 62.5H72.466V64.2368H67.466C65.8155 64.2368 64.6019 65.5526 64.6019 67.4474C64.6019 69.3421 65.8155 70.7105 67.466 70.7105H71.3981V68.1316H67.2233V66.6579H73V72.4474H67.466V72.5Z" fill="#F5F5F5"/>
<path d="M75 72.5V62.5H83.9471V64.2368H76.7471V70.7105H84V72.4474H75V72.5ZM78.0176 68.1316V66.6579H83.5765V68.1316H78.0176Z" fill="#F5F5F5"/>
<path d="M87.8218 69.7105V68.0263H91.5842C92.7228 68.0263 93.4158 67.2368 93.4158 66.1316C93.4158 64.9737 92.7228 64.2368 91.5842 64.2368H86.6337V72.5H85V62.5H91.5842C93.7624 62.5 95 63.8684 95 66.0789C95 68.2368 93.7129 69.7105 91.5842 69.7105H87.8218Z" fill="#F5F5F5"/>
<path d="M100.779 72.5C98.026 72.5 96 70.2895 96 67.3947C96 64.4474 98.026 62.5 100.779 62.5H103.169C106.026 62.5 108 64.5 108 67.3947C108 70.2895 105.974 72.5 103.169 72.5H100.779ZM103.169 70.7105C104.987 70.7105 106.286 69.3421 106.286 67.4474C106.286 65.5526 104.987 64.2368 103.169 64.2368H100.779C99.013 64.2368 97.7143 65.5526 97.7143 67.4474C97.7143 69.3421 99.013 70.7105 100.779 70.7105H103.169Z" fill="#F5F5F5"/>
<path d="M118.682 72.5L116.314 69.7105H112.812V68.1842H116.709C117.892 68.1842 118.484 67.4474 118.484 66.1842C118.484 64.8684 117.794 64.2368 116.709 64.2368H111.628V72.5H110V62.5H116.709C118.83 62.5 120.112 63.9211 120.112 66.1316C120.112 67.7632 119.372 68.9211 118.188 69.4474L121 72.5H118.682Z" fill="#F5F5F5"/>
<path d="M124.661 72.5V64.2368H121V62.5H130V64.2368H126.339V72.5H124.661Z" fill="#F5F5F5"/>
<path d="M120.626 44.5624C116.423 48.3733 110.245 48.3733 106.042 44.5624C103.966 46.441 101.535 47.4072 98.8004 47.4072C96.0658 47.4072 93.6351 46.441 91.5083 44.5087C89.3814 46.3874 87.0013 47.3535 84.2162 47.4072C81.4816 47.4072 79.1016 46.441 76.9747 44.5624C72.1133 48.3733 67.2519 48.3733 62.3904 44.6161C57.5797 48.3733 52.7183 48.3733 47.8569 44.6161C43.0461 48.3733 38.1847 48.3733 33.2726 44.5624C32.1585 45.5822 30.8419 46.3874 29.3734 46.8704C25.2209 48.1049 21.5242 47.1925 18.3845 44.133C17.9288 43.7036 17.8781 43.1669 18.2326 42.7912C18.5871 42.3618 19.0935 42.4154 19.5493 42.8985C21.2204 44.6161 23.246 45.5822 25.5754 45.6896C28.2086 45.8506 30.4874 44.9381 32.4624 43.1132C33.2726 42.3618 33.4752 42.3618 34.2854 43.1132C37.8808 46.602 43.3499 46.602 46.9453 43.1669C46.996 43.1132 46.996 43.1132 47.0466 43.0595C47.7556 42.3618 48.0594 42.3618 48.7177 43.0595C49.9837 44.294 51.4016 45.1528 53.0727 45.4749C56.263 46.1727 59.0989 45.3675 61.5296 43.0595C62.2892 42.3618 62.5424 42.3081 63.302 43.0595C66.948 46.602 72.3665 46.602 76.0632 43.1132C76.1138 43.0595 76.1644 43.0059 76.2657 42.9522C76.8228 42.4154 77.1772 42.4154 77.7343 42.9522C79.3547 44.5624 81.2284 45.4749 83.4566 45.6896C86.2418 45.9043 88.6218 45.0455 90.698 43.0595C91.407 42.3618 91.7108 42.3618 92.4198 43.0595C96.1165 46.6557 101.687 46.602 105.333 43.0059C105.941 42.4154 106.295 42.4154 106.903 43.0059C110.701 46.7094 116.119 46.6557 119.917 43.0059C120.525 42.4154 120.879 42.4154 121.436 43.0059C125.133 46.6557 130.703 46.6557 134.4 43.0059C134.451 42.9522 134.451 42.9522 134.501 42.8985C134.957 42.4691 135.413 42.4154 135.767 42.7912C136.122 43.1669 136.071 43.7573 135.615 44.133C134.755 44.8308 133.944 45.6359 133.033 46.119C128.779 48.3196 124.677 47.8902 120.93 44.8308C120.829 44.7234 120.727 44.6698 120.626 44.5624Z" fill="#F5F5F5"/>
<path d="M61.9644 52.5588C57.6041 56.4624 51.4186 56.195 47.3625 52.5588C47.2611 52.6657 47.109 52.7192 47.0076 52.8261C42.5966 56.5159 36.3603 56.195 32.4056 52.1844C32.2028 51.9705 32 51.7032 32 51.4358C32 51.1684 32.2028 50.7406 32.4056 50.6337C32.6591 50.5267 33.0647 50.5802 33.3182 50.7406C33.6731 50.9545 33.9773 51.3289 34.2816 51.5962C37.8813 54.5373 43.0529 54.3234 46.4498 51.0615C47.2104 50.3128 47.4639 50.3128 48.2244 51.0615C51.8749 54.5908 57.3506 54.5908 61.0518 51.0615C61.863 50.3128 62.0658 50.3128 62.8263 51.0615C66.4768 54.5373 71.9019 54.5373 75.5523 51.115C76.4143 50.3128 76.5664 50.3128 77.4283 51.115C81.1295 54.5908 86.6052 54.5373 90.2557 51.008C90.9148 50.3663 91.219 50.3663 91.8781 51.008C95.5793 54.5908 101.106 54.5908 104.807 51.008C105.466 50.3663 105.77 50.3663 106.429 51.008C110.029 54.5373 115.505 54.5908 119.206 51.1684C119.307 51.0615 119.46 50.9011 119.561 50.7941C119.967 50.4198 120.423 50.4733 120.778 50.7941C121.082 51.115 121.082 51.6497 120.727 52.024C120.169 52.5588 119.561 53.147 118.902 53.5748C114.795 56.3554 109.674 56.0346 105.922 52.8261C105.821 52.7727 105.72 52.6657 105.618 52.6122C103.539 54.4838 101.106 55.4464 98.3679 55.4464C95.63 55.4464 93.1964 54.4838 91.0669 52.5588C89.8501 53.6282 88.5825 54.4304 87.0615 54.9116C83.3096 56.0346 79.9126 55.3929 76.8199 52.8796C76.5664 52.6657 76.4143 52.6122 76.1608 52.8796C71.9525 56.4089 66.3754 56.3554 62.1672 52.8261C62.1165 52.6657 62.0151 52.6122 61.9644 52.5588Z" fill="#F5F5F5"/>
<path d="M136.997 32.3164C136.895 31.5057 136.285 30.8471 135.473 30.7964C134.965 30.7457 134.457 30.7964 133.949 30.7964C133.949 28.6178 133.949 26.5406 133.949 24.4633C134.457 24.4633 134.965 24.4633 135.422 24.4633C135.828 24.4633 136.082 24.21 136.133 23.8047C136.184 23.3993 136.031 23.0954 135.676 22.8927C135.524 22.842 135.27 22.7914 135.117 22.7914C132.882 22.7914 130.647 22.538 128.463 22.0314C120.59 20.2075 113.987 16.2556 108.705 10.1758C108.146 9.56783 107.74 8.90919 107.791 7.99722C107.841 6.93326 106.724 6.27462 105.708 6.5786C104.997 6.78126 104.489 7.33858 104.54 8.04789C104.642 8.85852 104.235 9.4665 103.727 10.0238C100.527 13.8237 96.7178 16.7622 92.2989 19.0422C85.7466 22.386 78.8388 23.754 71.5754 22.386C63.0422 20.8154 55.982 16.6609 50.2933 10.1251C49.7853 9.51717 49.379 8.90919 49.4298 8.04789C49.4298 6.78126 47.9568 6.07196 46.8901 6.78126C46.3822 7.13592 46.1282 7.5919 46.179 8.14922C46.2298 8.80786 46.0267 9.31451 45.5695 9.77049C44.96 10.4291 44.3505 11.1891 43.6902 11.8478C39.2204 16.3569 33.9888 19.5995 27.9444 21.4234C24.9477 22.3354 21.9509 22.842 18.8017 22.842C18.1922 22.842 17.8367 23.146 17.8367 23.6527C17.8367 24.21 18.1922 24.4633 18.8525 24.4633C19.2589 24.4633 19.6144 24.4633 20.0716 24.4633C20.0716 26.5912 20.0716 28.6685 20.0716 30.7964C19.5128 30.7964 19.0049 30.7457 18.4462 30.7964C17.4303 30.8977 16.77 31.8604 17.0748 32.823C17.3287 33.6843 17.8875 34.039 18.9541 34.039C27.7921 34.039 36.63 34.039 45.4679 34.039C45.6711 34.039 45.9251 34.039 46.179 34.039C46.179 36.8255 46.179 39.5614 46.179 42.3987C46.4838 42.1453 46.7378 41.9933 46.9409 41.7907C47.652 41.1827 47.906 41.1827 48.6171 41.7907C48.8711 41.9933 49.0742 42.196 49.4298 42.4493C49.4298 42.1453 49.4298 41.9427 49.4298 41.7907C49.4298 39.3588 49.4298 36.9775 49.4298 34.5456C49.4298 34.1403 49.5314 34.039 49.9377 34.039C67.9691 34.039 85.9498 34.039 103.981 34.039C104.388 34.039 104.489 34.1403 104.489 34.5456C104.489 36.9775 104.489 39.3588 104.489 41.7907C104.489 41.9427 104.489 42.1453 104.54 42.3987C104.794 42.196 105.048 42.044 105.2 41.892C106.064 41.1827 106.216 41.1827 107.029 41.892C107.232 42.0947 107.486 42.2467 107.791 42.5C107.791 39.6121 107.791 36.8762 107.791 34.0896C108.045 34.0896 108.299 34.0896 108.502 34.0896C117.289 34.0896 126.076 34.0896 134.914 34.0896C135.219 34.0896 135.473 34.0896 135.727 34.039C136.539 33.8363 137.047 33.0763 136.997 32.3164ZM24.4905 30.7964C23.5255 30.7964 22.662 30.7964 21.6969 30.7964C21.6969 28.6685 21.6969 26.5406 21.6969 24.362C22.6112 24.21 23.5255 24.1086 24.4905 23.9567C24.4905 26.2366 24.4905 28.4658 24.4905 30.7964ZM29.0111 30.7964C28.0968 30.7964 27.1825 30.7964 26.2175 30.7964C26.2175 28.4152 26.2175 26.0339 26.2175 23.6527C27.1317 23.3993 28.046 23.146 29.0111 22.8927C29.0111 25.5273 29.0111 28.1112 29.0111 30.7964ZM32.9729 30.8471C32.211 30.7964 31.4491 30.8471 30.6872 30.8471C30.6872 30.6951 30.6364 30.5938 30.6364 30.4924C30.6364 27.9085 30.6364 25.2739 30.6364 22.69C30.6364 22.538 30.738 22.3354 30.8396 22.2847C31.7031 21.9301 32.5158 21.5754 33.4808 21.1701C33.4808 21.3727 33.4808 21.5247 33.4808 21.6767C33.4808 24.5646 33.4808 27.4525 33.4808 30.3404C33.5316 30.6951 33.43 30.8471 32.9729 30.8471ZM38.0014 30.7964C37.1379 30.7964 36.2744 30.7964 35.411 30.7964C35.3094 30.7964 35.2078 30.6444 35.157 30.5431C35.1062 30.4924 35.157 30.3911 35.157 30.2898C35.157 27.0979 35.157 23.906 35.157 20.6634C35.157 20.3088 35.2586 20.1568 35.5633 19.9541C36.2237 19.5995 36.884 19.1942 37.5443 18.7888C37.6966 18.6875 37.7982 18.6368 38.0014 18.5355C38.0014 22.69 38.0014 26.7432 38.0014 30.7964ZM42.4712 30.7964C41.6077 30.7964 40.795 30.7964 39.9823 30.7964C39.8807 30.7964 39.7791 30.6444 39.6776 30.4924C39.6268 30.4418 39.6776 30.2898 39.6776 30.1884C39.6776 26.0846 39.6776 22.0314 39.6776 17.9275C39.6776 17.5729 39.7791 17.3196 40.0839 17.1169C40.8966 16.5596 41.6585 15.9009 42.4712 15.293C42.4712 20.5114 42.4712 25.6286 42.4712 30.7964ZM45.5695 30.7964C45.1124 30.7457 44.706 30.7964 44.1981 30.7964C44.1981 30.5938 44.1473 30.3911 44.1473 30.2391C44.1473 24.8686 44.1473 19.5488 44.1473 14.1783C44.1473 13.925 44.2997 13.621 44.4521 13.4184C45.0108 12.9117 45.5695 12.4051 46.1282 11.9491C46.1282 11.9491 46.1282 12.1011 46.1282 12.3037C46.1282 18.2822 46.1282 24.2606 46.1282 30.2391C46.179 30.6951 46.0267 30.8471 45.5695 30.7964ZM51.4615 30.4924C51.4615 30.5938 51.4615 30.6444 51.4615 30.7964C50.8012 30.7964 50.1917 30.7964 49.5314 30.7964C49.5314 24.4633 49.5314 18.1302 49.5314 12.0504C50.0901 12.5064 50.7504 13.1144 51.4107 13.6717C51.4615 13.7224 51.4615 13.925 51.4615 14.0263C51.4615 19.4981 51.4615 25.0206 51.4615 30.4924ZM55.9313 30.5431C55.9313 30.5938 55.9313 30.6951 55.8805 30.7964C54.9662 30.7964 54.0519 30.7964 53.1376 30.7964C53.1376 25.6286 53.1376 20.5114 53.1376 15.3436C54.0519 16.0529 54.9154 16.7116 55.7789 17.3702C55.8805 17.4209 55.9313 17.6235 55.9313 17.7755C55.9313 22.0314 55.9313 26.2872 55.9313 30.5431ZM60.4518 30.2391C60.4518 30.6951 60.3502 30.8471 59.8931 30.8471C59.1312 30.7964 58.4201 30.8471 57.6074 30.8471C57.6074 26.7432 57.6074 22.7407 57.6074 18.6875C57.7598 18.7382 57.8614 18.7888 57.963 18.8395C58.5217 19.1435 59.0296 19.5488 59.5883 19.8021C60.2994 20.1061 60.4518 20.5114 60.4518 21.2714C60.4518 24.21 60.4518 27.2499 60.4518 30.2391ZM64.566 30.7964C63.9057 30.7964 63.2454 30.7964 62.5851 30.7964C62.1788 30.7964 62.0772 30.6951 62.0772 30.2898C62.0772 27.6045 62.0772 24.9193 62.0772 22.234C62.0772 21.8794 62.0772 21.5247 62.0772 21.0688C63.0422 21.4741 63.8549 21.8287 64.7184 22.1834C64.82 22.234 64.9216 22.4367 64.9216 22.538C64.9216 25.1726 64.9216 27.8072 64.9216 30.3911C64.9724 30.7457 64.82 30.7964 64.566 30.7964ZM68.8834 30.7964C68.2231 30.7457 67.6136 30.7964 66.9533 30.7964C66.6993 30.7964 66.5977 30.7457 66.5977 30.4924C66.5977 28.0098 66.5977 25.5273 66.5977 23.0447C66.5977 22.994 66.6485 22.9434 66.6485 22.842C67.5628 23.0954 68.4771 23.3487 69.4421 23.602C69.4421 23.906 69.4421 24.1593 69.4421 24.4633C69.4421 26.3886 69.4421 28.3138 69.4421 30.2391C69.4421 30.7457 69.2897 30.8471 68.8834 30.7964ZM73.8611 30.7964C72.9468 30.7964 72.0326 30.7964 71.1183 30.7964C71.1183 28.5165 71.1183 26.2872 71.1183 24.0073C72.0326 24.1086 72.9468 24.2606 73.8611 24.362C73.8611 26.4899 73.8611 28.6178 73.8611 30.7964ZM78.3817 30.7964C77.4674 30.7964 76.5531 30.7964 75.5881 30.7964C75.5881 28.6685 75.5881 26.6419 75.5881 24.514C76.5023 24.514 77.4166 24.514 78.3817 24.514C78.3817 26.5912 78.3817 28.6685 78.3817 30.7964ZM82.8514 30.7964C81.9371 30.7964 81.0229 30.7964 80.0578 30.7964C80.0578 28.6178 80.0578 26.5406 80.0578 24.362C80.9721 24.21 81.8864 24.1086 82.8514 23.9567C82.8514 26.2366 82.8514 28.5165 82.8514 30.7964ZM86.8641 30.7964C86.1022 30.7457 85.3403 30.7964 84.5784 30.7964C84.5784 30.5938 84.5276 30.4418 84.5276 30.3404C84.5276 28.2632 84.5276 26.1859 84.5276 24.1086C84.5276 23.7033 84.6292 23.5513 85.0355 23.5007C85.7974 23.3487 86.5593 23.0954 87.4228 22.842C87.4228 23.146 87.4228 23.3487 87.4228 23.5513C87.4228 25.7806 87.4228 28.0605 87.4228 30.2898C87.4228 30.6951 87.3212 30.8471 86.8641 30.7964ZM91.4354 30.7964C90.6735 30.7964 89.9116 30.7964 89.0989 30.7964C89.0989 30.5938 89.0481 30.4418 89.0481 30.2391C89.0481 27.7059 89.0481 25.2233 89.0481 22.69C89.0481 22.3354 89.1497 22.1327 89.5053 22.0314C90.2672 21.7274 91.0291 21.3727 91.8925 21.0181C91.8925 22.0821 91.8925 23.0954 91.8925 24.1086C91.8925 26.1859 91.8925 28.2125 91.8925 30.2898C91.8925 30.6951 91.7909 30.8471 91.4354 30.7964ZM96.3115 30.7964C95.448 30.7964 94.5845 30.7964 93.7719 30.7964C93.6703 30.7964 93.5179 30.5431 93.5179 30.3911C93.5179 29.1245 93.5179 27.8578 93.5179 26.5912C93.5179 24.666 93.5179 22.69 93.5179 20.7648C93.5179 20.4101 93.6195 20.2075 93.975 20.0555C94.7877 19.6501 95.5496 19.1435 96.3623 18.6875C96.3115 22.69 96.3115 26.6926 96.3115 30.7964ZM100.832 30.7964C99.867 30.7964 99.0035 30.7964 98.0385 30.7964C98.0385 30.5938 98.0385 30.4418 98.0385 30.2898C98.0385 26.1859 98.0385 22.0821 98.0385 17.9782C98.0385 17.6235 98.14 17.3702 98.4448 17.1676C99.2575 16.6102 100.019 15.9516 100.832 15.3436C100.832 20.5114 100.832 25.6286 100.832 30.7964ZM103.93 30.7964C103.473 30.7457 103.067 30.7964 102.559 30.7964C102.559 30.5938 102.508 30.3911 102.508 30.2391C102.508 24.8686 102.508 19.5488 102.508 14.1783C102.508 13.925 102.661 13.621 102.813 13.4184C103.372 12.861 103.93 12.4051 104.489 11.9491C104.489 11.9491 104.489 12.1011 104.489 12.2531C104.489 18.2315 104.489 24.2606 104.489 30.2391C104.54 30.6951 104.388 30.8471 103.93 30.7964ZM109.822 30.4418C109.822 30.5431 109.822 30.6444 109.772 30.8471C109.213 30.8471 108.654 30.8471 108.095 30.8471C107.994 30.8471 107.892 30.6951 107.841 30.5938C107.791 30.4924 107.841 30.3911 107.841 30.2898C107.841 24.2606 107.841 18.2822 107.841 12.2531C107.841 12.2024 107.841 12.1011 107.841 12.0504L107.791 11.9997C107.791 11.9491 107.841 11.8984 107.841 11.8984C107.841 11.9491 107.841 11.9997 107.841 12.1011C108.502 12.6584 109.111 13.165 109.772 13.773C109.873 13.8743 109.873 14.0263 109.873 14.1783C109.822 19.4981 109.822 24.97 109.822 30.4418ZM114.292 30.5431C114.292 30.5938 114.292 30.6951 114.241 30.7964C113.327 30.7964 112.413 30.7964 111.448 30.7964C111.448 25.6793 111.448 20.5621 111.448 15.3436C112.362 16.0529 113.225 16.7116 114.14 17.3702C114.241 17.4209 114.292 17.6235 114.292 17.7755C114.292 22.0314 114.292 26.2872 114.292 30.5431ZM118.457 30.7964C117.746 30.7964 117.035 30.7964 116.324 30.7964C116.07 30.7964 115.968 30.7457 115.968 30.4418C115.968 26.5406 115.968 22.6394 115.968 18.6875C115.968 18.6875 115.968 18.6368 116.019 18.5862C116.933 19.0928 117.797 19.5995 118.66 20.1061C118.762 20.1568 118.813 20.3594 118.813 20.5114C118.813 23.8047 118.813 27.0472 118.813 30.3404C118.813 30.6444 118.762 30.8471 118.457 30.7964ZM123.282 30.7964C122.368 30.7964 121.505 30.7964 120.641 30.7964C120.54 30.7964 120.438 30.4924 120.438 30.3404C120.438 28.9725 120.438 27.6552 120.438 26.2872C120.438 24.5646 120.438 22.8927 120.438 21.1194C121.403 21.5247 122.267 21.8794 123.13 22.234C123.232 22.2847 123.333 22.4367 123.333 22.538C123.282 25.2233 123.282 27.9592 123.282 30.7964ZM127.752 30.7964C126.838 30.7964 125.924 30.7964 124.959 30.7964C124.959 28.1618 124.959 25.5779 124.959 22.8927C125.924 23.146 126.838 23.3993 127.752 23.6527C127.752 26.0339 127.752 28.3645 127.752 30.7964ZM132.222 30.7964C131.257 30.7964 130.393 30.7964 129.428 30.7964C129.428 28.5165 129.428 26.2872 129.428 24.0073C130.343 24.1593 131.257 24.2606 132.222 24.4126C132.222 26.4899 132.222 28.6178 132.222 30.7964Z" fill="#F5F5F5"/>
</svg>
