<svg width="232" height="120" viewBox="0 0 232 120" fill="none" xmlns="http://www.w3.org/2000/svg">
<path d="M23.8682 45.2138C19.534 47.1988 16.4186 50.3137 15.0094 54.0928C12.3738 60.8952 15.3826 61.4602 18.4981 54.757C20.2881 50.8863 21.4231 49.7488 25.285 47.9546C27.9205 46.7255 30 45.2138 30 44.6489C29.9924 42.9464 28.2938 43.1372 23.8682 45.2138Z" fill="#F5F5F5"/>
<path d="M24.4309 49.793C21.9179 51.2868 19.8888 54.0656 19.1161 57.1496C18.3435 60.7235 21.6292 60.0328 22.9793 56.3545C23.752 54.4672 25.2036 52.9734 27.0376 52.1783C30.2218 50.9897 31.0959 48.5 28.3878 48.5C27.4278 48.6044 25.6875 49.1023 24.4309 49.793Z" fill="#F5F5F5"/>
<path d="M26.7968 56.2982L24 59.0964L26.6083 59.3754C29.963 59.745 30.2495 59.4659 29.8725 56.1096L29.5936 53.5L26.7968 56.2982Z" fill="#F5F5F5"/>
<path d="M33 66.5076V74.5H41.9724C52.9508 74.5 54 73.8384 54 66.5C54 59.1616 52.9508 58.5 41.9724 58.5H33V66.5076ZM49.6102 60.9563C50.752 61.4278 51.1378 62.8346 51.1378 66.5989C51.1378 72.4316 50.374 72.903 41.4941 72.4316L36.3406 72.1502L36.0551 66.2186L35.7697 60.3859H41.9724C45.313 60.3859 48.7539 60.6749 49.6102 60.9563Z" fill="#F5F5F5"/>
<path d="M57 66.4886C57 72.986 57.2862 74.4924 58.4385 74.4924C59.5909 74.4924 59.877 73.0773 59.877 67.432V60.2803L66.8608 60.5618C73.1794 60.8433 73.7517 61.0335 74.0379 62.9127C74.3241 64.9822 74.0379 65.0811 68.106 65.0811C63.133 65.0811 61.7873 65.3626 61.7873 66.4962C61.7873 67.6222 63.1253 67.9113 68.0054 67.9113H74.2235V71.2057C74.2235 73.4653 74.703 74.5 75.662 74.5C76.7138 74.5 77 73.0849 77 67.6298C76.9072 63.9551 76.5205 60.2879 75.9482 59.626C75.2753 58.8728 72.0271 58.5 65.9946 58.5H57V66.4886Z" fill="#F5F5F5"/>
<path d="M80.9539 59.3956C79.4296 62.48 79.8145 71.0262 81.5235 72.8094C83.6175 74.9941 100 75.0985 100 72.9058C100 71.8134 98.1909 71.4118 91.7087 71.219L83.325 70.9218V65.4519V59.9819H89.9919C95.9968 59.9819 96.6588 60.1828 96.6588 61.9659C96.6588 63.6527 95.8967 63.9499 91.2314 64.2551C87.1358 64.4559 85.7039 64.9539 85.7039 65.9418C85.7039 68.0302 95.0422 67.9258 97.8983 65.8455C100.185 64.1587 100.662 60.5763 98.8529 58.6888C98.1832 57.99 94.6649 57.5 89.7995 57.5C83.0479 57.508 81.8084 57.8052 80.9539 59.3956Z" fill="#F5F5F5"/>
<path d="M103 58.4903C103 59.086 105.957 59.4886 110.054 59.4886C119.866 59.4886 120.158 59.6898 120.158 66.0657C120.158 72.2404 119.303 72.8361 111.009 72.2404C107.005 71.9425 106.342 71.6447 106.057 69.6482C105.772 67.5551 106.057 67.4585 111.487 67.4585C116.061 67.4585 117.301 67.1606 117.301 65.9611C117.301 63.7714 106.627 63.868 104.533 66.0577C102.723 67.8529 102.53 71.54 104.155 73.2306C105.965 75.1224 119.688 74.8246 121.498 72.8361C123.501 70.8477 123.501 62.6765 121.498 59.6898C120.166 57.7014 119.303 57.5001 111.494 57.5001C106.435 57.4921 103 57.8865 103 58.4903Z" fill="#F5F5F5"/>
<path d="M127.177 59.6331C125.547 61.23 125.64 74.5 127.271 74.5C128.039 74.5 128.327 72.903 128.132 68.8574C127.752 62.0818 128.808 60.3859 133.319 60.3859H136.588V67.443C136.588 72.9943 136.876 74.5 138.033 74.5C139.089 74.5 139.477 72.903 139.663 67.6331L139.951 60.8574H143.794H147.638L147.925 67.6331C148.119 72.903 148.5 74.5 149.556 74.5C150.705 74.5 151 73.0856 151 68.2871C151 58.5989 150.806 58.5 138.7 58.5C131.891 58.5076 127.946 58.8802 127.177 59.6331Z" fill="#F5F5F5"/>
<path d="M155.157 58.7177C153.349 60.5999 153.726 65.2613 155.826 66.4467C156.872 66.9433 160.487 67.4399 163.917 67.4399C170.385 67.4399 172.1 68.433 170.101 71.004C169.147 72.1894 167.247 72.4938 161.44 72.1894C156.018 71.9892 154.018 72.1894 154.018 73.0785C154.018 75.1609 170.577 74.8646 172.477 72.7821C174.377 70.8999 174.377 69.4102 172.477 66.6389C171.239 64.7567 170.193 64.4604 163.909 64.4604C157.626 64.4604 156.864 64.2602 156.864 62.5782C156.864 59.9992 158.672 59.5026 166.955 59.5026C171.047 59.5026 174 59.1102 174 58.5095C174 57.0357 156.58 57.236 155.157 58.7177Z" fill="#F5F5F5"/>
<path d="M177 66.5C177 72.8042 177.33 74.5 178.542 74.5C179.861 74.5 180.084 72.903 179.977 66.5C179.87 60.8574 179.317 58.5 178.435 58.5C177.33 58.5 177 60.7586 177 66.5Z" fill="#F5F5F5"/>
<path d="M194.212 60.6533C194.212 63.9476 192.428 65.0812 186.979 65.0812C183.222 65.0812 182 65.454 182 66.4963C182 67.5386 183.123 67.9114 186.319 67.9114C191.768 67.9114 194.204 69.2276 194.204 72.1491C194.204 73.6555 194.766 74.5 195.616 74.5C197.399 74.5 197.491 70.734 195.707 68.3831C194.675 66.968 194.675 66.3137 195.707 64.2443C197.399 61.0413 197.399 58.5002 195.616 58.5002C194.773 58.485 194.212 59.3295 194.212 60.6533Z" fill="#F5F5F5"/>
<path d="M200 60.8891C200 66.2665 201.901 67.466 210.1 67.466C216.959 67.466 217.244 67.5626 216.959 69.6556C216.674 71.8452 216.289 71.9499 208.291 71.9499C202.286 71.9499 200 72.2477 200 73.1413C200 74.9365 217.244 74.9365 218.861 73.2379C219.53 72.5375 220 69.0519 220 64.7692C220 58.9893 219.715 57.5 218.568 57.5C217.614 57.5 217.136 58.5948 217.136 60.9857V64.4714H209.992H202.848V60.9857C202.848 58.5948 202.371 57.5 201.416 57.5C200.47 57.5 200 58.4982 200 60.8891Z" fill="#F5F5F5"/>
<path d="M27 68.5C27 73.2062 27.2984 74.5 28.5 74.5C29.7016 74.5 30 73.1981 30 68.5C30 63.7938 29.7016 62.5 28.5 62.5C27.2984 62.5 27 63.7938 27 68.5Z" fill="#F5F5F5"/>
</svg>
