<?xml version="1.0" standalone="no"?>
<!DOCTYPE svg PUBLIC "-//W3C//DTD SVG 20010904//EN"
 "http://www.w3.org/TR/2001/REC-SVG-20010904/DTD/svg10.dtd">
<svg version="1.0" xmlns="http://www.w3.org/2000/svg"
 width="512.000000pt" height="512.000000pt" viewBox="0 0 512.000000 512.000000"
 preserveAspectRatio="xMidYMid meet">

<g transform="translate(0.000000,512.000000) scale(0.100000,-0.100000)"
fill="#F5F5F5" stroke="none">
<path d="M1988 4652 l-148 -97 0 -1298 0 -1298 153 3 152 3 3 1393 c1 765 -1
1392 -5 1392 -5 0 -74 -44 -155 -98z"/>
<path d="M2387 4708 c-47 -28 -82 -94 -73 -141 16 -84 96 -145 172 -131 74 14
130 87 121 160 -12 110 -124 167 -220 112z"/>
<path d="M2820 4368 l0 -183 198 -169 c199 -171 240 -214 260 -274 8 -24 13
-412 18 -1320 8 -1424 11 -1354 -55 -1433 -17 -20 -118 -99 -226 -174 l-195
-138 0 -168 c0 -93 1 -169 3 -169 1 0 146 101 322 223 350 243 374 266 394
370 14 75 25 2885 11 2936 -5 21 -20 53 -33 72 -21 32 -673 607 -689 608 -5 1
-8 -81 -8 -181z"/>
<path d="M2458 4147 l-147 -162 2 -825 2 -825 148 -3 147 -3 0 991 c0 544 -1
990 -2 990 -2 0 -69 -74 -150 -163z"/>
<path d="M2820 3326 l0 -586 150 0 150 0 0 463 0 464 -142 119 c-78 65 -146
121 -150 122 -4 2 -8 -260 -8 -582z"/>
<path d="M2879 2597 c-87 -57 -91 -171 -10 -240 45 -38 94 -43 149 -15 57 28
85 73 85 135 0 109 -133 181 -224 120z"/>
<path d="M1513 2418 l-121 -113 -1 -683 c-1 -776 -2 -761 73 -839 34 -35 87
-64 311 -168 149 -70 326 -153 395 -186 69 -32 129 -59 133 -59 4 0 6 68 5
151 -2 122 -6 154 -18 160 -8 5 -134 66 -280 135 -160 76 -278 138 -298 157
-71 67 -66 14 -72 825 l-5 732 -122 -112z"/>
<path d="M2310 1511 l0 -670 26 -20 c23 -18 41 -21 124 -21 83 0 101 3 124 21
l26 20 0 670 0 669 -150 0 -150 0 0 -669z"/>
<path d="M2820 1544 c0 -350 4 -634 9 -632 4 2 72 50 149 108 l141 105 1 528
0 527 -150 0 -150 0 0 -636z"/>
<path d="M1930 1882 c-96 -48 -109 -189 -22 -250 67 -48 170 -29 212 40 58 95
-14 228 -125 228 -16 0 -46 -8 -65 -18z"/>
<path d="M1842 1328 l3 -212 145 -73 c80 -39 148 -72 153 -72 4 -1 6 126 5
282 l-3 282 -153 3 -152 3 2 -213z"/>
<path d="M2492 669 c-111 -55 -133 -204 -42 -290 76 -72 174 -72 251 1 90 86
68 235 -44 289 -55 27 -111 27 -165 0z"/>
</g>
</svg>
