<svg width="191" height="98" viewBox="0 0 191 98" fill="none" xmlns="http://www.w3.org/2000/svg">
<path d="M39.1388 26.1831C28.3458 32.9963 19.376 38.5824 19.1791 38.6463C18.9885 38.7422 18.9567 38.87 19.052 38.9978C19.1473 39.1256 28.1552 33.6354 39.0117 26.7903C60.5976 13.2341 59.0984 14.1992 58.9079 14.0011C58.8443 13.9116 49.9317 19.4018 39.1388 26.1831Z" fill="#F5F5F5"/>
<path d="M41.4943 30.4614C30.6256 37.3126 21.8427 42.9355 22.0021 42.9994C22.1297 43.0634 30.9764 37.6324 41.6219 30.9732C63.3592 17.3413 62.3961 17.981 61.7582 18.013C61.4967 18.0194 52.363 23.6487 41.4943 30.4614Z" fill="#F5F5F5"/>
<path d="M44.0006 33.2898C33.2628 40.0524 24.3659 45.6118 24.1735 45.6761C24.0131 45.7404 23.949 45.9013 24.0452 45.9978C24.1414 46.1265 33.2692 40.535 44.3278 33.6115C55.3863 26.6559 64.2511 21 63.9946 21C63.7316 21.0322 54.7385 26.5336 44.0006 33.2898Z" fill="#F5F5F5"/>
<path d="M46.1806 37.1287C35.5251 43.8252 26.6009 49.4258 26.3463 49.5851C26.0917 49.7125 25.9325 49.9355 26.028 49.9992C26.1871 50.1585 65.1938 25.8829 65.8303 25.2394C66.8488 24.22 63.647 26.1442 46.1806 37.1287Z" fill="#F5F5F5"/>
<path d="M47.8031 41.4085C36.8469 48.2442 27.9366 53.9037 28.0003 53.9985C28.2234 54.2198 67.9182 29.59 67.9182 29.2359C67.9182 28.8565 70.4166 27.3641 47.8031 41.4085Z" fill="#F5F5F5"/>
<path d="M50.926 45.2157C40.0453 52.0613 31.0667 57.7702 31.0027 57.9629C30.9386 58.1555 32.0337 57.5776 33.417 56.7042C34.8324 55.8309 43.7854 50.2182 53.3404 44.246C62.9018 38.2416 70.7853 33.2712 70.8493 33.207C71.9124 32.1795 67.564 34.7932 50.926 45.2157Z" fill="#F5F5F5"/>
<path d="M37.6223 34.9292C36.6451 35.4361 35.9088 35.9377 36.0092 35.9904C36.1096 36.0696 37.1538 35.6473 38.3318 35.0612C39.4764 34.4752 40.2127 34 39.9449 34C39.6705 34 38.633 34.4277 37.6223 34.9292Z" fill="#F5F5F5"/>
<path d="M43.0719 35.9023C40.7692 37.4861 38.1881 39.2443 37.3462 39.7811C36.5354 40.3516 35.9164 40.8951 36.0092 40.9958C36.1021 41.0965 38.8071 39.3785 42.0444 37.2176C48.6427 32.7281 48.2961 33.0033 47.7081 33.0033C47.4543 33.0368 45.3745 34.3186 43.0719 35.9023Z" fill="#F5F5F5"/>
<path d="M49.6039 37.4658C45.8009 39.8823 42.8387 41.9316 43.0068 41.9984C43.1685 42.0651 46.4865 40.0492 50.3865 37.5659C54.2543 35.0493 57.2488 33 56.9837 33C56.7249 33 53.4135 35.016 49.6039 37.4658Z" fill="#F5F5F5"/>
<path d="M57.5531 37.4582C53.7793 39.8946 50.8399 41.9327 51.0068 41.9991C51.2635 42.0987 63.9775 34.0923 64.7477 33.3554C65.813 32.2866 63.5218 33.621 57.5531 37.4582Z" fill="#F5F5F5"/>
<path d="M52.6083 48.4357C41.7464 55.2515 32.9052 60.9036 33.0008 60.9995C33.1283 61.1274 71.929 37.0228 72.7641 36.2875C74.1409 35.0279 69.7554 37.7005 52.6083 48.4357Z" fill="#F5F5F5"/>
<path d="M61.7887 39.9343C60.1096 41.0128 58.827 41.9336 59.0191 41.9967C59.3908 42.1229 64.9982 38.572 64.9982 38.1936C64.9982 37.8404 65.1841 37.7458 61.7887 39.9343Z" fill="#F5F5F5"/>
<path d="M56.0831 51.541C34.5247 64.9997 34.8434 64.8085 35.0409 64.9997C35.1365 65.0954 74.3468 40.8046 74.9522 40.2563C75.0159 40.1926 75.0159 40.0651 74.9522 40.0013C74.8566 39.9057 66.3684 45.1017 56.0831 51.541Z" fill="#F5F5F5"/>
<path d="M58.1828 56.1723C47.5261 62.8142 38.601 68.3957 38.3463 68.5544C38.0917 68.7132 37.9325 68.9037 38.028 68.9989C38.2508 69.1894 77.9938 44.5522 77.9938 44.1966C78.0257 44.0697 77.9302 43.9744 77.8028 44.0062C77.6373 44.0062 68.8331 49.4987 58.1828 56.1723Z" fill="#F5F5F5"/>
<path d="M59.9155 60.3373C49.1299 67.0922 40.2034 72.7319 40.0761 72.8594C39.4012 73.6305 42.9858 71.451 60.1447 60.7834C78.386 49.4147 80.5953 48 79.8886 48C79.6976 48.0382 70.7329 53.576 59.9155 60.3373Z" fill="#F5F5F5"/>
<path d="M134.574 49.6119C133.757 50.4517 133.817 51.3471 134.724 52.2486C135.51 53.0884 136.111 53.2119 137.018 52.6809C138.254 52.0263 138.345 50.0133 137.168 49.2353C136.537 48.803 135.174 48.9883 134.574 49.6119Z" fill="#F5F5F5"/>
<path d="M37.6716 50.3192C36.7499 51.0547 36 51.7829 36 51.965C36 52.147 36.8644 51.6009 37.9578 50.7562C40.3163 48.892 40.2018 49.0012 39.7152 49.0012C39.4863 49.0012 38.5646 49.6202 37.6716 50.3192Z" fill="#F5F5F5"/>
<path d="M41.8555 52.721C38.7039 54.794 36.0806 56.6352 36.0192 56.8283C35.927 57.0858 36.1727 57.0536 36.6396 56.7318C37.039 56.4421 39.6684 54.7232 42.476 52.882C47.7286 49.4506 48.3737 49 47.8515 49C47.6918 49 44.9702 50.6803 41.8555 52.721Z" fill="#F5F5F5"/>
<path d="M49.4861 53.4494C45.7409 55.8753 42.8445 57.9326 43.0065 57.9996C43.2657 58.0666 56.0045 50.0853 56.9117 49.241C57.0737 49.0734 57.0089 48.9729 56.7497 49.0064C56.484 49.0064 53.1989 51.0302 49.4861 53.4494Z" fill="#F5F5F5"/>
<path d="M57.7616 53.2517C51.1816 57.5943 50.6348 58 51.1434 58C51.3977 58 64.5324 49.5409 64.9838 49.1086C65.0474 49.0421 64.9202 48.9756 64.6659 49.0088C64.4053 49.0088 61.3091 50.9108 57.7616 53.2517Z" fill="#F5F5F5"/>
<path d="M62.2 63.1518C51.5342 69.8363 42.6015 75.4268 42.3466 75.5858C42.0917 75.713 41.9325 75.9356 42.028 75.9992C42.1873 76.1582 81.1295 52.0217 81.8049 51.3539C82.0279 51.1313 82.0597 50.9722 81.9004 51.0041C81.7029 51.0041 72.8594 56.4674 62.2 63.1518Z" fill="#F5F5F5"/>
<path d="M143.924 54.7283V57.4439H142.446H141L141.096 58.7858C141.192 60.1595 141.192 60.1595 142.574 60.2549L143.924 60.3503V67.9565C143.924 76.3004 143.924 76.3004 145.953 76.7774L146.823 77V68.6879V60.3439L149.332 60.2485L151.808 60.1531L151.904 58.8112L152 57.4693L149.492 57.3739L146.983 57.2786L146.887 55.1989C146.791 52.9285 146.177 52 144.699 52C143.956 52.0127 143.924 52.0763 143.924 54.7283Z" fill="#F5F5F5"/>
<path d="M61.6123 55.9891C59.9742 57.0944 58.8069 58 59.0266 58C59.4973 58 64.6749 54.7172 64.926 54.2511C65.2712 53.6518 64.449 54.0846 61.6123 55.9891Z" fill="#F5F5F5"/>
<path d="M86.0425 57.4434C84.3145 58.0482 83.3199 58.8359 82.6121 60.1339C82.0701 61.1483 82 62.0998 82 71.2487C82 82.3951 82 82.3951 84.1806 82.811L85.2072 83V79.043V75.0545L86.3294 75.8169C88.5419 77.2724 92.9989 77.1464 95.4983 75.5334C97.4877 74.2039 97.8703 73.0319 97.9659 67.298C98.0616 63.215 97.9659 61.98 97.5515 60.9026C96.9075 59.258 95.2752 57.7647 93.6429 57.3236C91.9086 56.8448 87.5218 56.9078 86.0425 57.4434ZM93.2539 60.3292C94.7587 61.0916 95.1476 62.4211 95.1476 66.7877C95.1476 72.3325 94.4399 73.5675 91.1115 73.9455C88.9628 74.1976 87.0435 73.6305 86.0489 72.4585C85.2455 71.5071 85.2136 71.3495 85.2136 67.109C85.2136 64.702 85.3411 62.3581 85.5324 61.917C86.0425 60.556 87.6493 59.8251 90.1169 59.8251C91.4622 59.8188 92.6482 60.0141 93.2539 60.3292Z" fill="#F5F5F5"/>
<path d="M105.821 57.3955C104.127 57.9383 101.663 59.9308 101.663 60.7355C101.663 61.3805 102.624 62.3704 103.229 62.3704C103.452 62.3704 104.095 61.9872 104.668 61.5018C106.171 60.2501 107.482 59.8031 109.787 59.8031C112.665 59.8031 113.468 60.512 113.722 63.175L113.882 65.1037L109.622 65.1356C104.598 65.1356 103.286 65.4868 102.07 67.0962C100.854 68.6991 100.631 71.9752 101.625 74.0316C102.65 76.1518 104.312 76.9501 107.737 76.9501C110.456 76.9501 111.8 76.5669 113.245 75.3152C113.691 74.9001 113.786 74.932 113.983 75.5387C114.238 76.3753 116.32 77.3332 116.766 76.8862C116.989 76.6627 117.053 73.7378 116.957 69.0567C116.83 62.3448 116.766 61.4188 116.155 60.1033C115.161 57.8553 113.754 57.1209 110.138 57.0187C108.285 56.9485 106.75 57.0762 105.821 57.3955ZM113.824 69.3377C113.824 71.9688 112.162 73.7059 109.31 74.089C105.661 74.5999 104.095 73.5782 104.159 70.781C104.159 69.5932 104.318 69.1461 105.025 68.565C105.795 67.888 106.177 67.8242 109.857 67.8242H113.824V69.3377Z" fill="#F5F5F5"/>
<path d="M121.006 66.1361C121.006 71.4703 121.132 75.5011 121.321 75.8508C121.636 76.4612 123.442 77.2241 123.883 76.938C124.04 76.8426 124.166 73.4857 124.166 69.493C124.166 62.366 124.166 62.207 124.896 61.5649C126.287 60.2552 127.584 59.8419 129.926 59.9055C131.795 59.9691 132.236 59.8737 132.582 59.3969C133.532 58.119 132.865 57.3815 130.555 57.0954C128.465 56.8728 127.011 57.1589 125.589 58.119L124.418 58.92L123.53 57.96C122.995 57.3878 122.328 57 121.825 57H121V66.1361H121.006Z" fill="#F5F5F5"/>
<path d="M135 66.1222C135 76.2595 135.03 76.3553 137.02 76.7766L138 77L137.911 67.5969L137.823 58.2257L137.108 57.6128C136.724 57.2936 136.098 57 135.715 57H135V66.1222Z" fill="#F5F5F5"/>
<path d="M154.004 57.4869C153.909 57.7423 155.345 61.7593 157.199 66.4404C159.053 71.096 160.584 75.1066 160.584 75.362C160.584 75.6175 159.943 77.3865 159.149 79.2768C158.349 81.2055 157.713 82.8084 157.713 82.8723C157.713 82.9361 158.253 83 158.958 83C159.854 83 160.394 82.7765 160.971 82.1953C161.93 81.231 171.285 58.2149 170.993 57.4805C170.771 56.8674 169.075 56.8355 168.504 57.4166C168.281 57.6721 166.846 60.9163 165.373 64.6395C163.874 68.3946 162.597 71.4473 162.502 71.4473C162.407 71.4473 161.13 68.3627 159.663 64.6076C158.196 60.8844 156.856 57.6082 156.666 57.3847C156.202 56.8482 154.227 56.9121 154.004 57.4869Z" fill="#F5F5F5"/>
</svg>
