<svg width="245" height="126" viewBox="0 0 245 126" fill="none" xmlns="http://www.w3.org/2000/svg">
<path d="M49.9587 29.2477C49.6953 29.4775 49.1108 30.2571 48.6168 31.0122C48.1229 31.7918 47.5055 32.4155 47.275 32.4155C47.0115 32.4155 46.3282 31.8246 45.7355 31.1106C43.9326 28.9605 43.2164 29.0918 42.4919 31.603C41.8416 33.8845 41.4793 34.0158 39.3801 32.5797C37.2561 31.1106 36.7622 31.3076 36.4329 33.6547C36.1036 35.969 35.8731 36.2645 34.5641 35.7064C31.9462 34.6642 31.3205 34.5657 30.9995 35.0581C30.8019 35.3207 30.736 36.2645 30.8348 37.1754C31.0653 39.3256 30.6372 39.7852 28.8426 39.2928C28.1593 39.0958 27.2043 38.9317 26.7186 38.9317C25.9365 38.9317 25.8048 39.063 25.8048 39.8098C25.8048 40.3351 25.9695 41.2788 26.167 41.96C26.661 43.7573 26.2 44.1758 24.0431 43.946C23.1293 43.8476 22.1743 43.9132 21.9191 44.1102C21.4252 44.4384 21.524 45.0539 22.5695 47.6637C23.1293 48.9686 22.8658 49.1984 20.5772 49.4938C18.1569 49.8221 17.9593 50.3391 19.4329 52.4647C20.8407 54.5164 20.7419 54.8775 18.552 55.534C17.0784 55.9936 16.3293 56.445 16.3293 56.9045C16.3293 57.0687 16.9797 57.8155 17.8029 58.5705C18.6261 59.3255 19.2765 60.138 19.2765 60.4006C19.2765 60.6304 18.5603 61.2788 17.6383 61.8368C16.4939 62.5508 16 63.076 16 63.5356C16 64.0609 16.4939 64.5122 17.6383 65.2016C18.552 65.7268 19.2765 66.3752 19.2765 66.605C19.2765 66.8676 18.6261 67.7129 17.8029 68.4679C16 70.1339 16.0988 70.6509 18.3298 71.4388C20.7501 72.3169 20.816 72.5467 19.4082 74.6394C17.9675 76.8552 18.1651 77.282 20.783 77.6103C22.9729 77.8729 23.2363 78.3242 22.2566 80.2528C21.0794 82.7313 21.2111 82.9939 23.829 82.9939C26.4799 82.9939 26.6116 83.158 26.0518 85.7678C25.5578 88.1806 25.8213 88.476 28.2745 87.918C30.6619 87.3927 31.1559 87.721 30.8595 89.7153C30.629 91.3484 30.9254 92.4563 31.5757 92.4563C31.8392 92.4563 32.6213 92.1609 33.3457 91.808C34.0619 91.4469 34.9181 91.1596 35.2803 91.1596C35.9636 91.1596 36.0295 91.3238 36.5563 93.9335C36.8856 95.6323 37.6019 95.7636 39.4706 94.3931C41.2735 93.1211 41.6934 93.2852 42.5825 95.6652C43.3646 97.7497 43.8914 97.8153 45.6285 96.0591C46.3118 95.3451 47.135 94.7542 47.4314 94.7542C47.6948 94.7542 48.3452 95.501 48.905 96.3874C50.181 98.5375 50.8643 98.5375 52.1732 96.3874C52.7001 95.4764 53.3505 94.7542 53.6468 94.7542C53.9432 94.7542 54.7253 95.3451 55.3839 96.0591C57.0551 97.922 57.6725 97.7907 58.5616 95.4108C58.9568 94.3357 59.4754 93.4575 59.7059 93.4575C59.9035 93.4575 60.7185 93.9171 61.4759 94.467C63.534 95.936 64.1926 95.7062 64.6207 93.3262C64.7853 92.2511 65.1475 91.3402 65.3698 91.2417C65.6003 91.1761 66.547 91.4387 67.4279 91.8326C68.3417 92.2265 69.2967 92.4563 69.5519 92.3578C69.8482 92.2594 70.0129 91.4797 70.0788 89.9779L70.1775 87.762L71.6511 87.8933C75.3475 88.1888 75.0841 88.2544 74.9523 86.6213C74.8865 85.8088 74.8206 84.6927 74.7877 84.1757L74.7548 83.1991L76.9775 83.1006C78.484 83.0349 79.2661 82.8708 79.3649 82.5754C79.4637 82.3127 79.2332 81.369 78.838 80.458C78.4429 79.5799 78.1877 78.6279 78.2453 78.4063C78.3441 78.1765 79.2579 77.8154 80.3363 77.6595C82.6908 77.2327 82.8884 76.7814 81.4806 74.5902C80.9208 73.7449 80.4681 72.8913 80.4681 72.6944C80.4681 72.4974 81.3489 72.0132 82.4274 71.6193C84.8477 70.7083 85.0124 69.9862 83.0777 68.3858C82.3615 67.7949 81.7688 67.0809 81.7688 66.7855C81.7688 66.4572 82.5179 65.7433 83.407 65.1524C85.531 63.7818 85.531 63.1335 83.407 61.9189C82.4932 61.3937 81.7688 60.7781 81.7688 60.4827C81.7688 60.1873 82.3615 59.4076 83.0777 58.7511C84.8806 57.1179 84.8148 56.4696 82.6826 55.6817C80.2952 54.8036 80.1305 54.3769 81.4066 52.5796C82.7814 50.7166 82.6497 50.0026 80.9455 49.6744C78.3276 49.1491 78.163 49.0835 78.163 48.4023C78.163 48.0412 78.4593 47.1959 78.8133 46.4737C79.1756 45.7597 79.4637 44.9719 79.4637 44.7093C79.4637 44.0609 78.3523 43.7655 76.7141 43.9953C74.7218 44.2907 74.3925 43.7983 74.9112 41.4183C75.471 38.9727 75.1746 38.7101 72.7543 39.2025C70.1364 39.7606 69.9717 39.6293 69.9717 36.9867C69.9717 34.3769 69.7083 34.2456 67.2221 35.4192C65.2875 36.3958 64.8347 36.1332 64.5713 33.9502C64.242 31.3404 63.8221 31.1435 61.5911 32.5797C59.5001 33.983 59.2696 33.9174 58.3805 31.5046C57.5984 29.2887 57.0715 29.1902 55.4004 30.9793C54.6512 31.7918 53.795 32.4483 53.5645 32.4483C53.3011 32.4483 52.6837 31.7015 52.1568 30.8152C51.1113 29.0179 50.6502 28.6896 49.9587 29.2477ZM51.8275 35.6736C52.6096 36.5517 52.5437 37.9551 51.6628 38.6773C50.2551 39.818 48.3946 39.0056 48.3946 37.2411C48.3946 35.2468 50.5515 34.2702 51.8275 35.6736ZM50.288 42.198C50.749 42.198 51.8604 41.4512 53.1035 40.2694L55.1945 38.3162L57.0633 38.8086C62.5955 40.2448 67.7654 43.864 71.1984 48.6567L72.672 50.7084L71.2971 53.7449C70.548 55.4109 69.9553 57.0359 70.0211 57.397C70.1199 57.8237 71.1325 58.5049 73.0342 59.4158L75.8826 60.852V63.1007V65.3493H74.4419H73.0342L72.8695 67.0153C72.639 69.2968 71.5935 70.339 69.5354 70.339C67.9301 70.339 66.7199 69.5922 66.7199 68.6074C66.7199 67.2697 65.5427 64.8241 64.2337 63.4536C62.826 61.9845 62.7931 61.9845 63.5175 61.5003C66.4647 59.4487 67.8066 57.3231 67.8066 54.7462C67.8066 52.6288 66.8599 50.7987 64.9253 49.0999C62.1098 46.6214 62.1427 46.6214 45.9825 46.4901L31.6169 46.3917L32.7283 45.2181C35.3462 42.477 39.9893 39.8016 43.8832 38.7922L45.6202 38.3326L47.5796 40.2612C48.8144 41.484 49.827 42.198 50.288 42.198ZM27.0561 54.1389C27.9699 54.7626 28.0029 56.3219 27.122 57.2082C26.307 58.0207 25.4508 58.0207 24.5699 57.2739C23.5574 56.3957 23.4256 55.4766 24.2077 54.5C24.9651 53.5151 25.9777 53.3838 27.0561 54.1389ZM76.3683 54.4343C77.2821 55.3124 77.348 55.6407 76.8293 56.6501C76.3354 57.5611 75.9155 57.8565 74.9276 57.8565C73.1247 57.8565 72.2768 55.575 73.5858 54.2702C74.4749 53.3838 75.4216 53.4495 76.3683 54.4343ZM33.3375 62.0994V70.257H29.6082H25.8789L25.5167 68.2053C25.3191 67.0645 25.1544 64.8815 25.1544 63.3469V60.573L27.6406 59.4979C30.6208 58.193 31.0406 57.5447 30.2585 55.5832C29.9622 54.8693 29.7317 54.1799 29.7317 54.1142C29.7317 54.0158 30.5467 53.9501 31.5346 53.9501H33.3375V62.0994ZM55.3592 54.9185C56.4047 55.7638 56.7011 56.6501 56.2401 57.5283C55.5568 58.8003 53.9844 59.1614 49.2013 59.1614H44.7805V56.7158V54.2702H49.6541C54.0502 54.2702 54.61 54.3358 55.3592 54.9185ZM53.3999 66.4326C54.61 67.2123 55.2028 68.5171 55.9519 71.9804C56.7011 75.337 57.4914 76.8716 58.9979 77.7908C59.8788 78.3489 60.702 78.4145 65.5756 78.4145H71.1407L69.7988 79.7522L68.457 81.0571L66.0366 80.5647C62.8918 79.9164 62.3403 80.2036 61.8134 82.879C61.0643 86.7936 61.0643 86.7936 56.5447 87.9344C52.6507 88.8782 46.4352 88.6484 42.5742 87.4091C41.0677 86.9167 39.7917 86.3341 39.7258 86.1371C39.66 85.9073 39.3636 84.6024 39.0425 83.1991C38.3592 79.9656 38.0299 79.7768 34.6217 80.4908L32.2014 80.9832L31.1559 79.7768L30.1104 78.5704L39.8328 78.3735C45.1675 78.275 49.8764 78.1437 50.3045 78.1109C50.9878 78.078 51.0207 77.9796 51.0207 74.3275V70.577H47.9089H44.797V68.0986V65.6201L48.6909 65.7515C51.597 65.8499 52.7742 66.0141 53.3999 66.4326ZM36.3835 83.0431C36.6798 83.2729 37.0091 83.8556 37.0997 84.348C37.2643 85.0292 37.1326 85.4231 36.474 86.0468C35.4614 87.0563 35.0004 87.0891 33.8561 86.211C32.9094 85.4641 32.7777 84.4465 33.5268 83.3714C34.0949 82.5507 35.4944 82.3866 36.3835 83.0431ZM67.041 83.2976C68.317 84.5696 67.4032 86.8839 65.6003 86.8839C64.7853 86.8839 63.4434 85.5462 63.4434 84.7009C63.4434 84.0197 64.95 82.6492 65.732 82.6492C66.0943 82.6492 66.687 82.9447 67.041 83.2976Z" fill="#F5F5F5"/>
<path d="M94.0671 49.9214L94.1677 58.8833H96.6667H99.1656L99.2663 56.2069L99.3669 53.5305L100.231 53.6278C100.96 53.6927 101.43 54.2117 102.662 56.3042L104.197 58.8833L107.099 58.9806C108.7 59.013 110 59.013 110 58.9157C110 58.8508 109.17 57.3991 108.164 55.6959C106.193 52.4112 106.101 52.1193 106.797 51.8597C107.56 51.5678 108.667 48.9562 108.667 47.3504C108.667 45.4445 108.197 44.3171 106.897 42.9627C105.195 41.219 104.264 41 98.8302 41H94L94.0671 49.9214ZM103.4 46.4988C103.568 47.0179 103.568 47.691 103.367 48.1776C103.031 48.9806 102.864 49.0454 101.17 49.0454H99.3333V47.2693V45.4607L101.237 45.558C102.939 45.6634 103.14 45.7608 103.4 46.4988Z" fill="#F5F5F5"/>
<path d="M139.62 44.1502C139.62 46.1941 139.588 46.2595 138.81 46.2595C138.033 46.2595 138 46.3576 138 48.2053C138 50.0612 138.033 50.1511 138.81 50.1511H139.62V53.6912C139.62 55.637 139.751 57.6237 139.948 58.0815C140.627 59.9047 143.327 60.4852 146.584 59.5777C147.918 59.2179 148.115 59.0544 147.951 58.4739C147.853 58.0815 147.656 57.2394 147.558 56.5281C147.329 55.359 147.264 55.2936 146.323 55.4571C144.629 55.7188 144.498 55.5225 144.498 52.7265V50.1593H145.799H147.133L147.034 48.2707L146.936 46.4149L145.733 46.3168L144.53 46.2186L144.432 44.2074L144.334 42.1962L141.994 42.0981L139.62 42V44.1502Z" fill="#F5F5F5"/>
<path d="M130.44 45.1294C127.962 45.7592 126.607 47.1678 126.374 49.4132C126.241 50.8301 126.341 51.1616 127.031 51.8493C127.464 52.2802 128.553 52.9016 129.443 53.233C132.81 54.451 133.309 54.7162 133.143 55.1139C132.943 55.7436 130.831 55.5116 129.276 54.7162C128.553 54.3516 127.788 54.1196 127.622 54.219C127.422 54.3516 126.99 55.0062 126.632 55.7022L126 56.9534L126.823 57.5168C128.312 58.4697 130.291 59 132.478 59C136.012 59 137.966 57.4837 137.999 54.7162C138.032 52.5453 137.109 51.6173 133.7 50.4656C132.012 49.9021 131.089 49.4464 131.089 49.115C131.089 48.3278 132.212 48.3278 133.933 49.1481C134.823 49.5458 135.621 49.8358 135.654 49.7447C135.721 49.6784 136.186 49.0238 136.644 48.3278L137.5 47.0435L136.477 46.2563C135.139 45.262 132.162 44.74 130.44 45.1294Z" fill="#F5F5F5"/>
<path d="M110.229 45.1846C109.86 45.5875 109.96 54.2242 110.363 55.8609C110.9 57.9928 112.234 59 114.498 59C116.528 59 117.828 58.5971 118.868 57.6319C119.531 56.994 119.531 56.994 120.269 58.0012C120.965 58.9329 121.2 59 123.004 59H125V56.8681C125 55.265 124.866 54.7026 124.497 54.5348C124.094 54.4005 123.993 53.536 123.993 49.6667V45H121.494H118.994V49.2722C118.994 52.94 118.894 53.6451 118.424 54.0731C117.526 54.8369 116.688 55.0384 115.991 54.6775C115.421 54.3753 115.329 53.8465 115.262 49.7422L115.161 45.1679L112.829 45.0672C111.529 45.0168 110.363 45.0504 110.229 45.1846Z" fill="#F5F5F5"/>
<path d="M163.985 68.3211V71.609L163.12 70.9547C160.213 68.7186 155.744 70.4247 154.441 74.2758C152.501 80.04 157.281 85.564 162.49 83.5929C163.321 83.2948 164.229 82.7399 164.489 82.3424C164.859 81.8123 164.993 81.7792 164.993 82.1436C164.993 83.3279 167.026 84.2803 168.866 83.9242L170 83.7254V81.6218C170 80.2387 169.866 79.4851 169.597 79.4188C169.261 79.2863 169.126 77.4726 169.059 72.1473L168.958 65H166.455H163.985V68.3211ZM163.212 74.9383C164.279 75.9239 164.313 78.5575 163.246 79.2863C162.212 80.0068 161.246 79.9406 160.171 79.1207C159.507 78.5906 159.306 78.1683 159.306 77.2076C159.306 74.6402 161.515 73.3565 163.212 74.9383Z" fill="#F5F5F5"/>
<path d="M197 67V69H199.5H202V67V65H199.5H197V67Z" fill="#F5F5F5"/>
<path d="M94.2225 66.2122C94.0954 66.3093 94 70.3637 94 75.2194V84H96.5272H99.0543V80.7872V77.5744H101.899H104.744V75.4864V73.3985H101.899H99.0543V71.9499V70.5013H102.527H106V68.2515V66.0018H100.223C97.0358 65.9856 94.3179 66.0827 94.2225 66.2122Z" fill="#F5F5F5"/>
<path d="M187.62 68.1377C187.62 70.2012 187.587 70.2672 186.81 70.2672C186.033 70.2672 186 70.3662 186 72.0748C186 73.7833 186.033 73.8823 186.81 73.8823H187.62V77.8194C187.62 81.6574 187.653 81.7564 188.529 82.7386C189.699 84.0509 191.687 84.3481 194.257 83.5887C195.95 83.0935 196.114 82.9367 195.95 82.3094C195.852 81.9132 195.656 81.0301 195.558 80.3698C195.361 79.1895 195.328 79.1565 193.995 79.2225L192.661 79.2885L192.563 76.5648L192.464 73.8741H193.798H195.099V72.0665V70.2589H193.798H192.497V68.1295V66H190.059H187.62V68.1377Z" fill="#F5F5F5"/>
<path d="M110.693 70.3893C105.138 72.2929 104.305 80.0555 109.321 82.9314C112.932 84.9916 117.889 83.978 120.06 80.7065C121.432 78.6134 121.297 75.2018 119.69 72.845C118.124 70.4882 113.807 69.3427 110.693 70.3893ZM115.179 75.1111C116.618 76.9158 115.515 79.8247 113.403 79.8247C112.267 79.8247 111.198 78.4156 111.198 76.9076C111.198 74.4849 113.739 73.3394 115.179 75.1111Z" fill="#F5F5F5"/>
<path d="M144.929 70.8309C143.533 71.5588 143.437 71.5588 143.437 70.9982C143.437 70.4377 143.182 70.3624 141.219 70.3624H139V77.1812V84H141.378H143.756V80.0091C143.756 76.0852 143.788 75.9513 144.578 75.1899C145.528 74.2612 145.751 74.2278 146.637 74.6879C147.18 75.0226 147.244 75.4158 147.244 79.5071V84H149.622H152V78.4111C152 73.458 151.936 72.7552 151.37 71.7596C150.26 69.8353 147.499 69.4337 144.929 70.8309Z" fill="#F5F5F5"/>
<path d="M173.908 70.5346C171.517 71.3839 171.388 71.5818 172.087 73.1897C172.504 74.138 172.817 74.5008 173.17 74.3689C173.459 74.2699 174.382 73.9401 175.209 73.6515C177.063 73.0001 178.716 73.3217 178.876 74.3689C178.973 74.9956 178.812 75.0203 176.806 75.0203C174.221 74.9873 172.464 75.7377 171.573 77.2467C170.843 78.4918 170.81 80.4296 171.477 81.7406C171.99 82.7549 174.061 83.967 175.273 84C176.453 84 178.146 83.3486 178.941 82.59L179.735 81.8066L180.281 82.7219C180.891 83.7361 182.416 84.1979 184.013 83.8351C184.968 83.6372 185 83.5712 185 81.7077C185 80.4955 184.839 79.6792 184.551 79.4483C184.262 79.2174 184.069 78.1042 183.973 76.3644C183.812 73.1155 183.082 71.6148 181.228 70.6913C179.518 69.8502 176.011 69.7512 173.908 70.5346ZM178.949 78.7309C178.949 79.4483 178.756 79.7452 177.994 80.075C176.236 80.8254 174.647 79.3906 175.827 78.1702C176.051 77.9393 176.814 77.7744 177.584 77.7744C178.884 77.7827 178.949 77.8486 178.949 78.7309Z" fill="#F5F5F5"/>
<path d="M207.522 70.5318C202.576 72.2631 201.374 79.0405 205.487 82.3718C209.499 85.5718 216.388 83.8077 217.691 79.2374C219.399 73.2066 213.747 68.3492 207.522 70.5318ZM212.14 75.0036C212.905 76.0784 212.838 78.3595 212.005 79.18C210.735 80.419 208.397 79.5738 208.296 77.7769C208.161 75.3318 208.834 74.2897 210.533 74.2897C211.307 74.2815 211.804 74.5113 212.14 75.0036Z" fill="#F5F5F5"/>
<path d="M225.937 70.8309C224.541 71.5588 224.445 71.5588 224.445 70.9982C224.445 70.4377 224.19 70.3624 222.227 70.3624H220V77.1812V84H222.378H224.756V80.0091C224.756 76.0852 224.788 75.9513 225.578 75.1899C226.528 74.2612 226.751 74.2278 227.637 74.6879C228.18 75.0226 228.244 75.4158 228.244 79.5071V84H230.622H233V78.4111C233 73.458 232.936 72.7552 232.37 71.7596C231.26 69.8353 228.507 69.4337 225.937 70.8309Z" fill="#F5F5F5"/>
<path d="M122 75.1872C122 80.8982 122.288 82.2752 123.689 83.2468C125.474 84.4886 128.428 84.1507 130.277 82.5456C130.941 81.9373 131.229 81.8444 131.229 82.1738C131.229 83.3143 133.198 84.2859 134.919 83.9226L136 83.7199V81.574C136 80.3321 135.872 79.3944 135.68 79.3944C135.488 79.3944 135.36 77.6118 135.36 74.6972V70H132.814H130.269V74.3339C130.269 78.4651 130.237 78.7354 129.572 79.2001C128.588 79.9351 127.507 79.8675 127.091 79.0987C126.931 78.727 126.771 76.5474 126.771 74.2325V70H124.385H122V75.1872Z" fill="#F5F5F5"/>
<path d="M197 77.5V84H199.5H202V77.5V71H199.5H197V77.5Z" fill="#F5F5F5"/>
</svg>
