<svg width="245" height="126" viewBox="0 0 245 126" fill="none" xmlns="http://www.w3.org/2000/svg">
<path d="M17.1748 17.6559C16.2848 19.1315 18.5503 20.4432 29.6352 25.1162C56.4171 36.1838 56.6598 36.3477 54.5561 38.0694C53.9897 38.5613 45.494 42.3324 35.7036 46.3496L17.903 53.8099L17.4985 61.1883C17.2557 65.2874 17.1748 68.6487 17.3366 68.6487C17.4985 68.6487 22.515 66.5991 28.5025 64.1396L39.3447 59.6306L46.4649 62.582C55.2843 66.1892 56.4171 67.255 53.8279 68.8946C52.776 69.5505 44.1185 73.3216 34.7327 77.2568L17.4985 84.4712V96.1946V108L21.3822 106.442C41.6102 98.3261 59.4108 90.3739 60.6245 88.9802C61.7573 87.5865 62 85.6189 62 77.2568C62 67.4189 61.9191 67.091 59.9772 65.4514C58.8444 64.5495 54.7988 62.582 51.0769 61.1063C47.274 59.6306 44.1994 58.2369 44.1994 57.909C44.1994 57.6631 47.5977 56.1054 51.7242 54.3838C61.8382 50.2027 62 50.0387 62 42.6604C62 37.7414 61.6763 36.4297 60.4627 35.364C59.249 34.2982 19.1167 17 17.903 17C17.7412 17 17.4175 17.3279 17.1748 17.6559Z" fill="#F5F5F5"/>
<path d="M132.477 34.3569C132.238 34.5994 132 39.3687 132 44.8655C132 52.8681 132.238 54.8082 133.112 54.8082C133.748 54.8082 134.383 54.404 134.542 53.919C134.701 53.434 135.655 53.5148 137.085 54.3232C143.758 57.7991 149.24 47.048 143.758 41.147C141.931 39.1262 137.879 38.8837 135.814 40.8237C134.463 42.0362 134.383 41.9554 134.383 38.3986C134.383 34.8419 133.589 33.2252 132.477 34.3569ZM142.408 42.4404C143.043 43.1679 143.52 45.2696 143.52 47.1288C143.52 51.2514 142.09 53.1915 139.071 53.1915C136.37 53.1915 134.383 50.6047 134.383 47.1288C134.383 43.6529 136.37 41.0662 139.071 41.0662C140.342 41.0662 141.852 41.632 142.408 42.4404Z" fill="#F5F5F5"/>
<path d="M153.692 34.8638C151.762 35.7511 149.497 39.5423 150.839 39.5423C151.259 39.5423 152.517 38.655 153.692 37.5257C156.881 34.4605 161.748 35.3478 161.748 38.9777C161.748 41.3169 160.237 42.7689 157.804 42.7689C156.629 42.7689 155.874 43.2529 155.874 43.9789C155.874 44.7048 156.629 45.1888 157.888 45.1888C162 45.1888 164.014 49.3833 161.244 52.0453C159.23 53.9812 154.028 53.3359 152.937 50.9966C152.014 49.0607 150 48.5767 150 50.2706C150 51.8033 153.44 54.7072 155.454 54.8685C159.23 55.2718 161.077 54.7878 163.007 52.8519C165.608 50.3513 165.692 48.0927 163.09 45.5921C161.16 43.7369 161.16 43.6562 162.671 42.2849C167.706 37.8484 160.321 31.7179 153.692 34.8638Z" fill="#F5F5F5"/>
<path d="M95.1661 45.0632C98.4474 56.9368 99.1856 57.5263 101.154 50.1158C103.451 41.7789 103.697 41.4421 104.764 45.7368C106.65 52.9789 107.471 55 108.455 55C109.768 55 113.951 39.5895 112.803 39.0842C111.654 38.6632 110.916 40.3474 109.768 45.8211C108.701 50.9579 107.881 51.5474 106.979 47.6737C105.256 40.5158 104.682 39 103.615 39C102.549 39 101.482 41.8632 100.252 48.0947C99.5958 51.5474 98.6114 51.5474 97.9552 48.0947C96.7247 41.8632 95.6583 39 94.5919 39C93.6896 39 93.7716 40.1789 95.1661 45.0632Z" fill="#F5F5F5"/>
<path d="M118.395 39.8908C114.488 42.3296 113.771 49.2255 117.199 53.0099C119.512 55.5328 124.934 55.701 127.007 53.2622C128.841 51.1598 127.963 49.9824 125.97 51.8325C123.977 53.7668 120.548 53.5986 118.635 51.5802C116.003 48.8051 116.721 48.2164 123.02 48.2164C128.522 48.2164 129 48.0482 129 46.5345C129 44.0957 126.927 40.1431 125.412 39.4704C123.419 38.7135 119.99 38.8817 118.395 39.8908ZM125.173 42.0774C127.884 44.6843 127.007 45.6935 121.824 45.6935C116.721 45.6935 116.083 45.0207 118.635 42.3296C120.548 40.3113 123.179 40.1431 125.173 42.0774Z" fill="#F5F5F5"/>
<path d="M97.7198 65.4408C97.017 65.6033 96.236 66.741 95.9236 67.9599C95.6112 69.1788 94.9864 70.479 94.5178 70.8041C93.8149 71.2916 93.8149 71.6167 94.5959 71.9417C95.2207 72.1855 95.5331 74.4608 95.5331 79.174C95.5331 84.6998 95.7674 86 96.7046 86C97.6417 86 97.876 84.6998 97.876 79.0928C97.876 72.7544 98.0322 72.1855 99.438 72.1855C100.297 72.1855 101 71.7792 101 71.3729C101 70.8853 100.297 70.5603 99.438 70.5603C97.3294 70.5603 97.3294 67.5536 99.438 66.9035C100.297 66.5785 100.844 66.0096 100.61 65.6033C100.141 64.872 99.9066 64.7907 97.7198 65.4408Z" fill="#F5F5F5"/>
<path d="M164.529 68.6079C164.529 70.6123 164.365 72.2158 164.2 72.2158C164.035 72.2158 162.882 71.7348 161.729 71.0933C157.282 68.8484 153 72.3762 153 78.229C153 84.5629 158.847 88.2509 163.047 84.4827C164.447 83.28 164.529 83.28 164.529 84.4827C164.529 85.2844 165.106 85.8457 165.765 85.8457C166.835 85.8457 167 84.162 167 75.4228C167 66.6837 166.835 65 165.765 65C164.859 65 164.529 65.9621 164.529 68.6079ZM163.047 73.5788C164.941 75.2625 165.024 80.7144 163.129 82.799C160 86.2465 155.471 83.5206 155.471 78.1488C155.471 72.777 159.424 70.3718 163.047 73.5788Z" fill="#F5F5F5"/>
<path d="M196.177 65.7428C195.667 66.6457 196.323 68 197.344 68C197.708 68 198 67.3228 198 66.4952C198 64.9152 196.906 64.4637 196.177 65.7428Z" fill="#F5F5F5"/>
<path d="M187.867 66.8182C187.63 67.2352 187.551 67.9858 187.867 68.4028C188.104 68.9032 187.63 69.5704 186.919 70.0708C185.814 70.738 185.735 71.155 186.524 71.6554C187.077 72.0724 187.551 74.6577 187.709 78.4107C187.867 84.5822 188.578 86 191.658 86C193.474 86 193.395 84.6656 191.421 84.0818C189.999 83.6648 189.841 82.9142 189.841 77.7435C189.841 72.406 189.999 71.8222 191.421 71.8222C192.289 71.8222 193 71.4886 193 71.0716C193 70.6546 192.289 70.1542 191.421 69.904C190.473 69.6538 189.841 68.7364 189.841 67.7356C189.841 65.9008 188.736 65.4004 187.867 66.8182Z" fill="#F5F5F5"/>
<path d="M174.871 70.6454C172.426 71.722 170.572 74.3721 172.258 74.3721C172.764 74.3721 174.112 73.6268 175.293 72.7986C177.906 70.6454 181.025 71.5564 181.025 74.4549C181.025 75.9456 180.519 76.5253 178.917 76.6909C172.511 77.4362 169.476 80.5832 171.752 83.9786C173.185 86.2146 176.894 86.6287 180.013 85.0552C181.362 84.3099 181.868 84.3099 182.121 85.0552C182.29 85.5521 182.795 85.9662 183.217 85.9662C184.481 85.9662 184.144 74.1237 182.711 72.1361C181.194 69.9829 178.074 69.4032 174.871 70.6454ZM180.519 83.1505C179.255 84.724 175.208 84.6411 173.859 82.9848C172.342 81.3285 174.281 79.4238 178.159 78.5957C180.772 78.0988 181.025 78.1816 181.278 80.0035C181.447 81.0801 181.109 82.488 180.519 83.1505Z" fill="#F5F5F5"/>
<path d="M224.119 70.9406C222.656 71.6812 221.762 71.8458 221.6 71.2697C221.438 70.776 220.787 70.3645 220.137 70.3645C219.244 70.3645 219 72.0103 219 78.1823C219 84.601 219.244 86 220.219 86C221.194 86 221.438 84.8479 221.438 80.8156C221.438 74.9729 222.9 72.0103 225.825 72.0103C228.831 72.0103 229.562 73.5739 229.562 79.9927C229.562 84.7656 229.806 86 230.781 86C231.756 86 232 84.7656 232 79.9927C232 71.4343 229.237 68.2249 224.119 70.9406Z" fill="#F5F5F5"/>
<path d="M105.212 72.1617C102.263 75.0154 102.263 81.0584 105.212 83.9121C107.907 86.6818 112.288 86.6818 115.49 83.996C118.691 81.2263 118.86 75.435 115.827 72.2456C113.047 69.308 108.076 69.2241 105.212 72.1617ZM114.563 73.8403C115.574 75.3511 115.827 76.9458 115.49 79.128C114.647 83.996 110.519 85.9264 107.149 82.9049C105.212 81.1423 105.043 74.9314 106.981 73.0849C109.003 70.9866 112.962 71.4063 114.563 73.8403Z" fill="#F5F5F5"/>
<path d="M121 76.6526C121 81.6211 121.32 83.7263 122.28 84.6526C123.8 86.2526 127.48 86.4211 128.92 84.9053C129.8 84.0632 130.04 84.0632 130.36 84.9053C130.6 85.4947 131.24 86 131.88 86C132.76 86 133 84.3158 133 78C133 71.4316 132.76 70 131.8 70C130.84 70 130.6 71.1789 130.6 75.7263C130.6 82.0421 129.32 84.3158 125.88 84.3158C123.8 84.3158 122.36 81.0316 123.08 77.9158C123.72 75.3895 122.76 70 121.8 70C121.32 70 121 73.0316 121 76.6526Z" fill="#F5F5F5"/>
<path d="M137.055 77.7474C137.217 82.9684 137.623 85.5789 138.353 85.8316C139.083 86.0842 139.326 84.6526 139.326 80.7789C139.326 74.7158 140.787 71.6842 143.707 71.6842C146.709 71.6842 147.439 73.2842 147.439 79.8526C147.439 84.7368 147.682 86 148.656 86C150.603 86 150.359 73.2842 148.412 71.4316C146.628 69.7474 142.571 69.5789 141.03 71.0105C140.138 71.8526 139.894 71.8526 139.57 71.0105C139.326 70.5053 138.677 70 138.028 70C137.055 70 136.893 71.4316 137.055 77.7474Z" fill="#F5F5F5"/>
<path d="M195 78C195 84.5684 195.2 86 196 86C196.8 86 197 84.5684 197 78C197 71.4316 196.8 70 196 70C195.2 70 195 71.4316 195 78Z" fill="#F5F5F5"/>
<path d="M203.504 71.4681C198.571 77.2133 201.355 86 208.118 86C209.47 86 211.3 85.4086 212.334 84.7327C215.835 82.0291 215.915 74.5097 212.414 71.3837C210.186 69.5249 205.174 69.5249 203.504 71.4681ZM211.141 72.7355C213.448 74.4252 213.687 79.241 211.698 82.0291C207.402 87.8587 200.878 81.5222 203.981 74.5097C205.015 72.2285 205.811 71.6371 207.561 71.6371C208.754 71.6371 210.425 72.144 211.141 72.7355Z" fill="#F5F5F5"/>
</svg>
