<svg width="120" height="34" viewBox="0 0 120 34" fill="none" xmlns="http://www.w3.org/2000/svg">
<g id="logo 1">
<g id="Group 2">
<path id="Vector" d="M16.1072 18.6211C17.1894 18.6211 18.0668 17.7364 18.0668 16.6452C18.0668 15.554 17.1894 14.6693 16.1072 14.6693C15.0251 14.6693 14.1477 15.554 14.1477 16.6452C14.1477 17.7364 15.0251 18.6211 16.1072 18.6211Z" fill="#F5F5F5"/>
<path id="Vector_2" d="M7.74922 23.3939L13.279 17.8024L12.6737 17.1903L7.74922 22.177L6.60485 21.02L8.1922 19.4075L4.75911 15.9361L5.85917 14.8238L9.29227 18.3026L11.6105 15.9585L8.30294 12.6066L9.77954 11.1135L7.59417 8.90375L2.17505 14.3833L2.78046 14.9954L7.59417 10.1206L8.57611 11.1135L7.09952 12.6066L10.4071 15.9585L9.29227 17.0857L5.85917 13.6069L3.55567 15.9361L6.98877 19.4075L5.40142 21.02L7.74922 23.3939Z" fill="#F5F5F5"/>
<path id="Vector_3" d="M0.653178 17.3038C1.01392 17.3038 1.30636 17.009 1.30636 16.6453C1.30636 16.2814 1.01392 15.9866 0.653178 15.9866C0.292438 15.9866 0 16.2814 0 16.6453C0 17.009 0.292438 17.3038 0.653178 17.3038Z" fill="#F5F5F5"/>
<path id="Vector_4" d="M22.6717 8.43449L17.1266 14.0106L16.5195 13.4002L21.465 8.43449L20.3175 7.28056L18.7183 8.88119L15.2757 5.41935L14.1726 6.52863L17.6226 9.99046L15.2979 12.3281L11.9738 8.99286L10.4932 10.4818L8.30176 8.27816L13.7358 2.81369L14.3429 3.42416L9.50851 8.27816L10.4932 9.26831L11.9738 7.77936L15.2979 11.1146L16.4158 9.99046L12.9658 6.52863L15.2757 4.20586L18.7183 7.66768L20.3175 6.06705L22.6717 8.43449Z" fill="#F5F5F5"/>
<path id="Vector_5" d="M15.9833 2.31729C16.3441 2.31729 16.6364 2.0224 16.6364 1.65864C16.6364 1.29488 16.3441 1 15.9833 1C15.6226 1 15.3301 1.29488 15.3301 1.65864C15.3301 2.0224 15.6226 2.31729 15.9833 2.31729Z" fill="#F5F5F5"/>
<path id="Vector_6" d="M24.002 9.7724L18.4722 15.364L19.0775 15.976L24.002 10.9893L25.1464 12.1464L23.5516 13.7589L26.992 17.2302L25.8921 18.3351L22.459 14.8637L20.1406 17.2079L23.4483 20.5523L21.9717 22.0528L24.157 24.2626L29.5761 18.783L28.9707 18.1709L24.157 23.0457L23.1751 22.0528L24.6517 20.5523L21.3441 17.2079L22.459 16.0806L25.8921 19.5519L28.1955 17.2302L24.755 13.7589L26.3497 12.1464L24.002 9.7724Z" fill="#F5F5F5"/>
<path id="Vector_7" d="M30.7615 17.3989C31.112 17.3132 31.3284 16.9566 31.2449 16.6028C31.1614 16.2489 30.8095 16.0316 30.4589 16.1175C30.1083 16.2034 29.8919 16.5598 29.9754 16.9137C30.059 17.2675 30.4109 17.4848 30.7615 17.3989Z" fill="#F5F5F5"/>
<path id="Vector_8" d="M9.0791 24.7318L14.6242 19.1557L15.2312 19.7661L10.2859 24.7318L11.4334 25.8858L13.0325 24.2777L16.475 27.7469L17.5708 26.6376L14.1281 23.1759L16.4528 20.8382L19.7695 24.1735L21.2577 22.6845L23.4491 24.8882L18.0149 30.3527L17.4079 29.7421L22.2422 24.8882L21.2577 23.898L19.7695 25.387L16.4528 22.0517L15.335 23.1759L18.7775 26.6376L16.475 28.9605L13.0325 25.4911L11.4334 27.0993L9.0791 24.7318Z" fill="#F5F5F5"/>
<path id="Vector_9" d="M16.2151 32.1007C16.566 32.0164 16.7814 31.6615 16.6963 31.308C16.6112 30.9545 16.2577 30.7362 15.9068 30.8205C15.5559 30.9048 15.3404 31.2597 15.4256 31.6131C15.5107 31.9667 15.8641 32.1849 16.2151 32.1007Z" fill="#F5F5F5"/>
<path id="Vector_10" d="M24.5391 8.92153C24.8895 8.83469 25.1065 8.47726 25.024 8.12316C24.9413 7.76906 24.5904 7.55241 24.2401 7.63924C23.8897 7.72606 23.6727 8.08351 23.7554 8.4376C23.838 8.79171 24.1889 9.00836 24.5391 8.92153Z" fill="#F5F5F5"/>
<path id="Vector_11" d="M7.68055 25.674C8.03086 25.5872 8.24789 25.2297 8.16528 24.8756C8.08268 24.5216 7.73174 24.3049 7.38143 24.3916C7.03111 24.4785 6.81409 24.836 6.89669 25.1901C6.97929 25.5441 7.33024 25.7608 7.68055 25.674Z" fill="#F5F5F5"/>
<path id="Vector_12" d="M7.1522 8.36919C7.51294 8.36919 7.80537 8.07431 7.80537 7.71056C7.80537 7.3468 7.51294 7.05191 7.1522 7.05191C6.79147 7.05191 6.49902 7.3468 6.49902 7.71056C6.49902 8.07431 6.79147 8.36919 7.1522 8.36919Z" fill="#F5F5F5"/>
<path id="Vector_13" d="M24.8792 26.2767C25.2399 26.2767 25.5324 25.9818 25.5324 25.6181C25.5324 25.2542 25.2399 24.9594 24.8792 24.9594C24.5184 24.9594 24.2261 25.2542 24.2261 25.6181C24.2261 25.9818 24.5184 26.2767 24.8792 26.2767Z" fill="#F5F5F5"/>
</g>
<g id="Group 1">
<path id="Vector_14" d="M41.3632 10.3121H36.7515V7H49.6694V10.3121H45.0576V25.6591H41.3632V10.3121Z" fill="#F5F5F5"/>
<path id="Vector_15" d="M62.3777 7L69.7639 25.6591H65.7764L64.506 22.2979H56.3626L55.0923 25.6591H51.1047L58.4658 7H62.3777ZM63.2694 18.9858L60.4343 11.4926L57.6077 18.9858H63.2694Z" fill="#F5F5F5"/>
<path id="Vector_16" d="M73.3521 21.6774L76.2498 20.3206C76.7707 21.7767 77.9428 23.0756 79.8231 23.0756C81.2802 23.0756 82.5337 22.3062 82.5337 20.6597C82.5337 19.278 81.7279 18.6741 79.8476 17.9045L78.6755 17.4496C76.1439 16.4154 74.0601 14.984 74.0601 12.1214C74.0601 8.96912 76.6405 7 79.7744 7C82.9081 7 84.8861 8.98566 85.7245 10.9796L83.0627 12.4937C82.2813 10.9796 81.2639 10.2433 79.9045 10.2433C78.5452 10.2433 77.5847 10.9051 77.5847 12.1545C77.5847 13.139 78.1301 13.9085 80.165 14.7027L81.4186 15.2074C84.6501 16.5312 86.2699 18.0205 86.2699 20.701C86.2699 24.5235 82.9813 26.3768 79.8801 26.3768C76.7788 26.3768 74.0032 24.4324 73.3521 21.6774Z" fill="#F5F5F5"/>
<path id="Vector_17" d="M103.435 18.0102H95.6585V25.6591H92.0112V7H95.6585V14.6981H103.435V7H107.082V25.6591H103.435V18.0102Z" fill="#F5F5F5"/>
<path id="Vector_18" d="M113.541 7H117.129V25.6591H113.541V7Z" fill="#F5F5F5"/>
</g>
</g>
</svg>
