<svg width="967" height="268" viewBox="0 0 967 268" fill="none" xmlns="http://www.w3.org/2000/svg">
<path d="M129.797 149.909C138.518 149.909 145.588 142.78 145.588 133.987C145.588 125.193 138.518 118.064 129.797 118.064C121.077 118.064 114.007 125.193 114.007 133.987C114.007 142.78 121.077 149.909 129.797 149.909Z" fill="#F5F5F5"/>
<path d="M62.4458 188.37L107.007 143.312L102.129 138.379L62.4458 178.564L53.2241 169.24L66.0155 156.246L38.3505 128.272L47.2152 119.309L74.8802 147.342L93.5615 128.453L66.9079 101.442L78.8068 89.41L61.1964 71.6033L17.5273 115.759L22.4059 120.692L61.1964 81.409L69.1092 89.41L57.2103 101.442L83.8639 128.453L74.8802 137.536L47.2152 109.503L28.6528 128.272L56.3179 156.246L43.5265 169.24L62.4458 188.37Z" fill="#F5F5F5"/>
<path d="M5.26353 139.294C8.17049 139.294 10.5271 136.918 10.5271 133.987C10.5271 131.055 8.17049 128.679 5.26353 128.679C2.35656 128.679 0 131.055 0 133.987C0 136.918 2.35656 139.294 5.26353 139.294Z" fill="#F5F5F5"/>
<path d="M182.697 67.8218L138.013 112.756L133.121 107.837L172.973 67.8218L163.726 58.523L150.839 71.4214L123.098 43.5248L114.209 52.4637L142.01 80.3603L123.277 99.1979L96.4901 72.3213L84.5584 84.3198L66.8994 66.562L110.689 22.5275L115.581 27.4469L76.6238 66.562L84.5584 74.541L96.4901 62.5425L123.277 89.4191L132.285 80.3603L104.484 52.4637L123.098 33.7461L150.839 61.6426L163.726 48.7442L182.697 67.8218Z" fill="#F5F5F5"/>
<path d="M128.798 18.5275C131.705 18.5275 134.061 16.1512 134.061 13.2199C134.061 10.2886 131.705 7.91235 128.798 7.91235C125.891 7.91235 123.534 10.2886 123.534 13.2199C123.534 16.1512 125.891 18.5275 128.798 18.5275Z" fill="#F5F5F5"/>
<path d="M193.415 78.6032L148.854 123.662L153.732 128.594L193.415 88.409L202.637 97.7334L189.786 110.728L217.51 138.701L208.646 147.604L180.981 119.631L162.299 138.521L188.953 165.471L177.054 177.563L194.664 195.37L238.333 151.214L233.455 146.281L194.664 185.564L186.752 177.563L198.651 165.471L171.997 138.521L180.981 129.437L208.646 157.41L227.208 138.701L199.483 110.728L212.334 97.7334L193.415 78.6032Z" fill="#F5F5F5"/>
<path d="M247.886 140.06C250.711 139.369 252.455 136.496 251.782 133.645C251.109 130.793 248.273 129.042 245.448 129.734C242.623 130.426 240.879 133.298 241.552 136.15C242.225 139.001 245.061 140.752 247.886 140.06Z" fill="#F5F5F5"/>
<path d="M73.1631 199.151L117.847 154.217L122.739 159.136L82.8875 199.151L92.1346 208.45L105.021 195.492L132.762 223.448L141.592 214.509L113.85 186.613L132.583 167.775L159.31 194.652L171.302 182.653L188.961 200.411L145.171 244.446L140.279 239.526L179.236 200.411L171.302 192.432L159.31 204.431L132.583 177.554L123.575 186.613L151.316 214.509L132.762 233.227L105.021 205.27L92.1346 218.229L73.1631 199.151Z" fill="#F5F5F5"/>
<path d="M130.666 258.532C133.494 257.853 135.23 254.993 134.544 252.144C133.858 249.296 131.01 247.537 128.182 248.216C125.354 248.895 123.618 251.755 124.304 254.603C124.99 257.452 127.838 259.211 130.666 258.532Z" fill="#F5F5F5"/>
<path d="M197.744 71.7467C200.567 71.0469 202.316 68.1666 201.651 65.3131C200.985 62.4597 198.157 60.7138 195.334 61.4135C192.511 62.1132 190.762 64.9936 191.428 67.847C192.094 70.7005 194.922 72.4464 197.744 71.7467Z" fill="#F5F5F5"/>
<path d="M61.8929 206.744C64.7158 206.044 66.4647 203.163 65.799 200.31C65.1334 197.457 62.3054 195.711 59.4825 196.41C56.6595 197.11 54.9107 199.991 55.5763 202.844C56.2419 205.697 59.07 207.443 61.8929 206.744Z" fill="#F5F5F5"/>
<path d="M57.6346 67.2956C60.5416 67.2956 62.8981 64.9193 62.8981 61.9881C62.8981 59.0568 60.5416 56.6805 57.6346 56.6805C54.7277 56.6805 52.3711 59.0568 52.3711 61.9881C52.3711 64.9193 54.7277 67.2956 57.6346 67.2956Z" fill="#F5F5F5"/>
<path d="M200.486 211.6C203.393 211.6 205.75 209.224 205.75 206.293C205.75 203.361 203.393 200.985 200.486 200.985C197.579 200.985 195.223 203.361 195.223 206.293C195.223 209.224 197.579 211.6 200.486 211.6Z" fill="#F5F5F5"/>
<path d="M333.318 50.8103H296.155V24.1205H400.252V50.8103H363.089V174.482H333.318V50.8103Z" fill="#F5F5F5"/>
<path d="M502.659 24.1205L562.18 174.482H530.047L519.81 147.396H454.188L443.951 174.482H411.818L471.136 24.1205H502.659ZM509.845 120.706L486.999 60.3235L464.221 120.706H509.845Z" fill="#F5F5F5"/>
<path d="M591.095 142.396L614.446 131.462C618.644 143.196 628.089 153.663 643.241 153.663C654.983 153.663 665.084 147.463 665.084 134.195C665.084 123.061 658.59 118.194 643.438 111.993L633.993 108.327C613.593 99.9926 596.801 88.4585 596.801 65.3901C596.801 39.9883 617.594 24.1205 642.848 24.1205C668.101 24.1205 684.04 40.1216 690.796 56.1895L669.347 68.3903C663.05 56.1895 654.851 50.2557 643.897 50.2557C632.943 50.2557 625.203 55.5894 625.203 65.6568C625.203 73.5907 629.598 79.7912 645.996 86.1916L656.098 90.2586C682.138 100.926 695.191 112.927 695.191 134.528C695.191 165.331 668.691 180.265 643.7 180.265C618.709 180.265 596.342 164.597 591.095 142.396Z" fill="#F5F5F5"/>
<path d="M833.511 112.844H770.847V174.482H741.456V24.1205H770.847V86.1545H833.511V24.1205H862.902V174.482H833.511V112.844Z" fill="#F5F5F5"/>
<path d="M914.95 24.1205H943.866V174.482H914.95V24.1205Z" fill="#F5F5F5"/>
<path d="M845.941 247.409C844.421 247.409 843.117 246.864 842.028 245.776C840.94 244.687 840.396 243.383 840.396 241.864C840.396 240.344 840.94 239.04 842.028 237.951C843.117 236.863 844.421 236.319 845.941 236.319C847.46 236.319 848.764 236.863 849.853 237.951C850.941 239.04 851.486 240.344 851.486 241.864C851.486 242.87 851.229 243.794 850.715 244.636C850.223 245.478 849.555 246.156 848.713 246.669C847.892 247.162 846.967 247.409 845.941 247.409ZM883.631 265.645C880.119 265.645 877.1 265.193 874.574 264.29C872.048 263.407 869.943 262.236 868.259 260.778C866.595 259.34 865.271 257.8 864.285 256.157L870.076 252.091C870.734 252.953 871.565 253.939 872.572 255.048C873.578 256.178 874.954 257.153 876.699 257.975C878.466 258.817 880.776 259.238 883.631 259.238C887.45 259.238 890.603 258.314 893.088 256.465C895.573 254.617 896.815 251.721 896.815 247.778V238.167H896.199C895.665 239.03 894.905 240.097 893.919 241.371C892.954 242.623 891.558 243.743 889.73 244.728C887.923 245.694 885.479 246.176 882.398 246.176C878.579 246.176 875.149 245.273 872.11 243.465C869.091 241.658 866.698 239.03 864.932 235.579C863.186 232.129 862.314 227.94 862.314 223.011C862.314 218.164 863.166 213.944 864.87 210.35C866.575 206.736 868.947 203.943 871.986 201.971C875.026 199.979 878.537 198.983 882.522 198.983C885.602 198.983 888.046 199.496 889.853 200.523C891.681 201.53 893.077 202.68 894.043 203.973C895.028 205.247 895.788 206.294 896.322 207.116H897.062V199.599H904.085V248.271C904.085 252.337 903.161 255.644 901.313 258.19C899.485 260.757 897.021 262.636 893.919 263.828C890.839 265.039 887.409 265.645 883.631 265.645ZM883.384 239.646C886.3 239.646 888.765 238.978 890.777 237.643C892.79 236.308 894.32 234.388 895.367 231.883C896.415 229.377 896.938 226.379 896.938 222.888C896.938 219.479 896.425 216.47 895.398 213.862C894.371 211.254 892.852 209.21 890.839 207.732C888.826 206.253 886.341 205.514 883.384 205.514C880.304 205.514 877.737 206.294 875.683 207.855C873.65 209.416 872.12 211.51 871.093 214.139C870.087 216.768 869.584 219.684 869.584 222.888C869.584 226.174 870.097 229.08 871.124 231.606C872.171 234.111 873.711 236.083 875.745 237.52C877.798 238.937 880.345 239.646 883.384 239.646ZM936.492 265.645C932.98 265.645 929.961 265.193 927.435 264.29C924.909 263.407 922.804 262.236 921.12 260.778C919.457 259.34 918.132 257.8 917.146 256.157L922.938 252.091C923.595 252.953 924.427 253.939 925.433 255.048C926.439 256.178 927.815 257.153 929.561 257.975C931.327 258.817 933.637 259.238 936.492 259.238C940.312 259.238 943.464 258.314 945.949 256.465C948.434 254.617 949.677 251.721 949.677 247.778V238.167H949.06C948.527 239.03 947.767 240.097 946.781 241.371C945.816 242.623 944.419 243.743 942.591 244.728C940.784 245.694 938.34 246.176 935.26 246.176C931.44 246.176 928.01 245.273 924.971 243.465C921.952 241.658 919.56 239.03 917.793 235.579C916.048 232.129 915.175 227.94 915.175 223.011C915.175 218.164 916.027 213.944 917.732 210.35C919.436 206.736 921.808 203.943 924.848 201.971C927.887 199.979 931.399 198.983 935.383 198.983C938.464 198.983 940.907 199.496 942.715 200.523C944.542 201.53 945.939 202.68 946.904 203.973C947.89 205.247 948.65 206.294 949.184 207.116H949.923V199.599H956.947V248.271C956.947 252.337 956.022 255.644 954.174 258.19C952.346 260.757 949.882 262.636 946.781 263.828C943.7 265.039 940.271 265.645 936.492 265.645ZM936.246 239.646C939.162 239.646 941.626 238.978 943.639 237.643C945.651 236.308 947.181 234.388 948.229 231.883C949.276 229.377 949.8 226.379 949.8 222.888C949.8 219.479 949.286 216.47 948.26 213.862C947.233 211.254 945.713 209.21 943.7 207.732C941.688 206.253 939.203 205.514 936.246 205.514C933.165 205.514 930.598 206.294 928.544 207.855C926.511 209.416 924.981 211.51 923.954 214.139C922.948 216.768 922.445 219.684 922.445 222.888C922.445 226.174 922.958 229.08 923.985 231.606C925.033 234.111 926.573 236.083 928.606 237.52C930.66 238.937 933.206 239.646 936.246 239.646Z" fill="#F5F5F5"/>
</svg>
