<svg width="346" height="346" viewBox="0 0 346 346" fill="none" xmlns="http://www.w3.org/2000/svg">
<circle cx="172.966" cy="172.966" r="172.966" fill="url(#paint0_linear_83_194)"/>
<path d="M157.56 213.775H154.689L149.647 197.044C149.408 196.304 149.14 195.369 148.844 194.242C148.548 193.114 148.394 192.436 148.383 192.208C148.132 193.712 147.733 195.358 147.186 197.147L142.299 213.775H139.427L132.78 188.79H135.856L139.803 204.222C140.35 206.387 140.749 208.346 141 210.101C141.307 208.016 141.763 205.977 142.367 203.983L146.844 188.79H149.921L154.62 204.119C155.167 205.885 155.629 207.879 156.005 210.101C156.221 208.483 156.631 206.512 157.235 204.188L161.166 188.79H164.242L157.56 213.775ZM175.641 214.117C172.872 214.117 170.685 213.274 169.078 211.588C167.483 209.902 166.686 207.56 166.686 204.564C166.686 201.545 167.426 199.146 168.907 197.369C170.4 195.592 172.399 194.703 174.906 194.703C177.253 194.703 179.11 195.478 180.477 197.027C181.844 198.565 182.528 200.599 182.528 203.128V204.923H169.625C169.682 207.122 170.235 208.791 171.283 209.93C172.343 211.069 173.829 211.639 175.743 211.639C177.76 211.639 179.754 211.217 181.725 210.374V212.904C180.722 213.337 179.771 213.644 178.871 213.826C177.982 214.02 176.906 214.117 175.641 214.117ZM174.872 197.078C173.368 197.078 172.166 197.568 171.266 198.548C170.377 199.528 169.853 200.884 169.694 202.616H179.486C179.486 200.827 179.087 199.46 178.29 198.514C177.492 197.557 176.353 197.078 174.872 197.078ZM196.097 194.737C198.558 194.737 200.467 195.58 201.823 197.266C203.19 198.941 203.873 201.317 203.873 204.393C203.873 207.469 203.184 209.862 201.805 211.571C200.438 213.268 198.536 214.117 196.097 214.117C194.878 214.117 193.762 213.895 192.748 213.451C191.745 212.995 190.902 212.3 190.219 211.366H190.013L189.415 213.775H187.382V187.183H190.219V193.643C190.219 195.09 190.173 196.389 190.082 197.54H190.219C191.54 195.671 193.5 194.737 196.097 194.737ZM195.687 197.113C193.75 197.113 192.355 197.671 191.5 198.787C190.646 199.893 190.219 201.761 190.219 204.393C190.219 207.025 190.657 208.91 191.534 210.05C192.412 211.178 193.819 211.742 195.756 211.742C197.499 211.742 198.798 211.109 199.652 209.845C200.507 208.569 200.934 206.74 200.934 204.359C200.934 201.921 200.507 200.103 199.652 198.907C198.798 197.711 197.476 197.113 195.687 197.113ZM223.971 213.775H207.548V211.331L214.127 204.718C216.132 202.69 217.454 201.243 218.092 200.377C218.73 199.511 219.209 198.668 219.528 197.847C219.847 197.027 220.006 196.144 220.006 195.199C220.006 193.866 219.602 192.812 218.793 192.037C217.984 191.251 216.862 190.858 215.426 190.858C214.389 190.858 213.404 191.029 212.469 191.37C211.547 191.712 210.516 192.333 209.376 193.233L207.872 191.302C210.174 189.388 212.68 188.431 215.392 188.431C217.739 188.431 219.579 189.035 220.912 190.242C222.245 191.439 222.911 193.051 222.911 195.079C222.911 196.663 222.467 198.229 221.578 199.779C220.69 201.328 219.026 203.288 216.588 205.658L211.119 211.007V211.143H223.971V213.775Z" fill="white"/>
<g clip-path="url(#clip0_83_194)">
<path d="M209 123.886C209 119.153 208.067 114.468 206.257 110.096C204.446 105.724 201.791 101.751 198.445 98.4053C195.099 95.0592 191.127 92.4049 186.755 90.594C182.383 88.7831 177.697 87.8511 172.965 87.8511C163.408 87.8511 154.243 91.6476 147.485 98.4053C140.727 105.163 136.931 114.329 136.931 123.886C136.931 133.442 140.727 142.608 147.485 149.366C154.243 156.124 163.408 159.92 172.965 159.92C182.522 159.92 191.687 156.124 198.445 149.366C205.203 142.608 209 133.442 209 123.886ZM201.54 120.282H190.982C190.388 111.807 187.484 103.657 182.586 96.7156C187.618 98.5027 192.055 101.653 195.402 105.814C198.749 109.975 200.874 114.984 201.54 120.282ZM162.443 127.489H183.775C182.853 136.392 179.059 144.752 172.965 151.308C166.875 144.78 163.168 136.387 162.443 127.489ZM162.443 120.282C163.282 111.424 166.975 103.078 172.965 96.4994C179.108 103.008 182.911 111.375 183.775 120.282H162.443ZM163.74 96.6075C158.816 103.587 155.866 111.766 155.2 120.282H144.39C145.07 114.918 147.246 109.854 150.667 105.668C154.089 101.482 158.619 98.3419 163.74 96.6075ZM144.39 127.489H155.2C155.793 135.998 158.724 144.178 163.668 151.128C158.566 149.385 154.054 146.246 150.646 142.067C147.238 137.888 145.071 132.838 144.39 127.489ZM182.406 151.092C187.337 144.139 190.3 135.985 190.982 127.489H201.612C200.931 132.823 198.771 137.86 195.377 142.031C191.983 146.202 187.49 149.34 182.406 151.092Z" fill="white"/>
</g>
<defs>
<linearGradient id="paint0_linear_83_194" x1="172.966" y1="0" x2="172.966" y2="345.931" gradientUnits="userSpaceOnUse">
<stop stop-color="#E1BA1B"/>
<stop offset="1" stop-color="#6C23CC" stop-opacity="0"/>
</linearGradient>
<clipPath id="clip0_83_194">
<rect width="86.4828" height="86.4828" fill="white" transform="translate(129.724 80.6442)"/>
</clipPath>
</defs>
</svg>
