<svg width="346" height="347" viewBox="0 0 346 347" fill="none" xmlns="http://www.w3.org/2000/svg">
<circle cx="173.035" cy="173.83" r="172.966" fill="url(#paint0_linear_83_203)"/>
<path d="M160.225 214.64H157.354L152.312 197.909C152.073 197.168 151.805 196.234 151.509 195.106C151.213 193.978 151.059 193.3 151.047 193.073C150.797 194.576 150.398 196.223 149.851 198.011L144.964 214.64H142.092L135.444 189.655H138.521L142.468 205.087C143.015 207.251 143.414 209.211 143.665 210.966C143.972 208.881 144.428 206.841 145.032 204.847L149.509 189.655H152.586L157.285 204.984C157.832 206.75 158.294 208.744 158.67 210.966C158.886 209.348 159.296 207.377 159.9 205.052L163.831 189.655H166.907L160.225 214.64ZM178.306 214.982C175.537 214.982 173.35 214.139 171.743 212.452C170.148 210.766 169.351 208.425 169.351 205.428C169.351 202.409 170.091 200.011 171.572 198.234C173.065 196.456 175.064 195.568 177.571 195.568C179.918 195.568 181.775 196.342 183.142 197.892C184.509 199.43 185.193 201.464 185.193 203.993V205.787H172.29C172.347 207.986 172.9 209.655 173.948 210.795C175.007 211.934 176.494 212.504 178.408 212.504C180.425 212.504 182.419 212.082 184.39 211.239V213.768C183.387 214.201 182.436 214.509 181.536 214.691C180.647 214.885 179.57 214.982 178.306 214.982ZM177.537 197.943C176.033 197.943 174.831 198.433 173.931 199.413C173.042 200.393 172.518 201.748 172.359 203.48H182.151C182.151 201.691 181.752 200.324 180.955 199.379C180.157 198.422 179.018 197.943 177.537 197.943ZM198.762 195.602C201.223 195.602 203.132 196.445 204.487 198.131C205.855 199.806 206.538 202.181 206.538 205.258C206.538 208.334 205.849 210.726 204.47 212.435C203.103 214.133 201.2 214.982 198.762 214.982C197.543 214.982 196.427 214.76 195.413 214.315C194.41 213.859 193.567 213.164 192.883 212.23H192.678L192.08 214.64H190.047V188.048H192.883V194.508C192.883 195.955 192.838 197.254 192.747 198.405H192.883C194.205 196.536 196.165 195.602 198.762 195.602ZM198.352 197.977C196.415 197.977 195.02 198.536 194.165 199.652C193.311 200.757 192.883 202.626 192.883 205.258C192.883 207.889 193.322 209.775 194.199 210.914C195.077 212.042 196.484 212.606 198.421 212.606C200.164 212.606 201.463 211.974 202.317 210.709C203.172 209.433 203.599 207.605 203.599 205.223C203.599 202.785 203.172 200.968 202.317 199.772C201.463 198.575 200.141 197.977 198.352 197.977ZM225.696 195.533C225.696 197.128 225.246 198.433 224.346 199.447C223.457 200.461 222.193 201.139 220.552 201.481V201.617C222.557 201.868 224.044 202.506 225.012 203.531C225.981 204.557 226.465 205.901 226.465 207.565C226.465 209.946 225.639 211.78 223.987 213.068C222.335 214.344 219.988 214.982 216.946 214.982C215.624 214.982 214.411 214.879 213.306 214.674C212.212 214.48 211.147 214.133 210.11 213.632V210.931C211.192 211.467 212.343 211.877 213.562 212.162C214.793 212.435 215.955 212.572 217.048 212.572C221.366 212.572 223.526 210.88 223.526 207.496C223.526 204.466 221.144 202.95 216.382 202.95H213.921V200.507H216.416C218.364 200.507 219.908 200.079 221.047 199.225C222.187 198.359 222.756 197.163 222.756 195.636C222.756 194.417 222.335 193.46 221.492 192.765C220.66 192.07 219.526 191.722 218.091 191.722C216.997 191.722 215.966 191.871 214.998 192.167C214.029 192.463 212.924 193.01 211.682 193.807L210.247 191.893C211.272 191.084 212.451 190.452 213.784 189.996C215.129 189.529 216.541 189.296 218.023 189.296C220.449 189.296 222.335 189.854 223.679 190.97C225.024 192.076 225.696 193.597 225.696 195.533Z" fill="white"/>
<g clip-path="url(#clip0_83_203)">
<path d="M209.07 124.75C209.07 120.018 208.138 115.332 206.327 110.961C204.516 106.589 201.862 102.616 198.516 99.2701C195.169 95.924 191.197 93.2697 186.825 91.4588C182.453 89.6479 177.767 88.7158 173.035 88.7158C163.478 88.7158 154.313 92.5123 147.555 99.2701C140.797 106.028 137.001 115.193 137.001 124.75C137.001 134.307 140.797 143.473 147.555 150.231C154.313 156.988 163.478 160.785 173.035 160.785C182.592 160.785 191.758 156.988 198.516 150.231C205.273 143.473 209.07 134.307 209.07 124.75ZM201.611 121.147H191.053C190.458 112.672 187.555 104.522 182.657 97.5803C187.689 99.3675 192.125 102.517 195.472 106.678C198.819 110.84 200.944 115.849 201.611 121.147ZM162.513 128.354H183.846C182.924 137.256 179.129 145.617 173.035 152.173C166.946 145.644 163.238 137.252 162.513 128.354ZM162.513 121.147C163.352 112.289 167.045 103.943 173.035 97.3641C179.178 103.872 182.981 112.239 183.846 121.147H162.513ZM163.811 97.4722C158.887 104.452 155.936 112.631 155.27 121.147H144.46C145.141 115.783 147.316 110.719 150.738 106.533C154.159 102.346 158.689 99.2067 163.811 97.4722ZM144.46 128.354H155.27C155.864 136.862 158.794 145.042 163.738 151.992C158.636 150.249 154.124 147.11 150.717 142.932C147.309 138.753 145.141 133.703 144.46 128.354ZM182.476 151.956C187.407 145.004 190.37 136.85 191.053 128.354H201.683C201.001 133.688 198.842 138.725 195.447 142.896C192.053 147.067 187.561 150.205 182.476 151.956Z" fill="white"/>
</g>
<defs>
<linearGradient id="paint0_linear_83_203" x1="173.035" y1="0.864746" x2="173.035" y2="346.796" gradientUnits="userSpaceOnUse">
<stop stop-color="#6C23CC"/>
<stop offset="1" stop-color="#6C23CC" stop-opacity="0"/>
</linearGradient>
<clipPath id="clip0_83_203">
<rect width="86.4828" height="86.4828" fill="white" transform="translate(129.794 81.5089)"/>
</clipPath>
</defs>
</svg>
