<svg xmlns="http://www.w3.org/2000/svg" width="34" height="34" viewBox="0 0 34 34" fill="none">
  <g clip-path="url(#clip0_26_1628)">
    <path d="M19.8704 14.2126C19.0207 14.7803 18.0218 15.0833 16.9999 15.0833C15.6296 15.0833 14.3155 14.539 13.3465 13.5701C12.3776 12.6011 11.8333 11.287 11.8333 9.91667C11.8333 8.8948 12.1363 7.89588 12.704 7.04622C13.2717 6.19657 14.0786 5.53434 15.0227 5.14329C15.9668 4.75224 17.0057 4.64992 18.0079 4.84928C19.0101 5.04864 19.9307 5.54071 20.6533 6.26328C21.3759 6.98585 21.868 7.90647 22.0673 8.9087C22.2667 9.91094 22.1643 10.9498 21.7733 11.8939C21.3822 12.838 20.72 13.6449 19.8704 14.2126Z" fill="white" fill-opacity="0.2" stroke="white"/>
    <path d="M26.1481 28.9815C25.9762 29.1534 25.743 29.25 25.4999 29.25H8.49992C8.2568 29.25 8.02365 29.1534 7.85174 28.9815C7.67983 28.8096 7.58325 28.5764 7.58325 28.3333C7.58325 25.8358 8.57536 23.4407 10.3413 21.6747C12.1073 19.9087 14.5025 18.9166 16.9999 18.9166C19.4974 18.9166 21.8925 19.9087 23.6585 21.6747C25.4245 23.4407 26.4166 25.8358 26.4166 28.3333C26.4166 28.5764 26.32 28.8096 26.1481 28.9815Z" fill="white" fill-opacity="0.2" stroke="white"/>
  </g>
  <defs>
    <clipPath id="clip0_26_1628">
      <rect width="34" height="34" fill="white"/>
    </clipPath>
  </defs>
</svg>