<svg xmlns="http://www.w3.org/2000/svg" width="34" height="34" viewBox="0 0 34 34" fill="none">
  <g clip-path="url(#clip0_26_1617)">
    <path d="M9.91675 3.33325H24.0834C25.078 3.33325 26.0318 3.72834 26.7351 4.4316C27.4383 5.13486 27.8334 6.08869 27.8334 7.08325V26.9166C27.8334 27.9111 27.4383 28.865 26.7351 29.5682C26.0318 30.2715 25.078 30.6666 24.0834 30.6666H9.91675C8.92219 30.6666 7.96836 30.2715 7.2651 29.5682C6.56184 28.865 6.16675 27.9111 6.16675 26.9166V7.08325C6.16675 6.08869 6.56184 5.13486 7.2651 4.4316C7.96836 3.72834 8.92219 3.33325 9.91675 3.33325ZM15.5417 25.5575C15.9734 25.846 16.4809 25.9999 17.0001 25.9999C17.6963 25.9999 18.364 25.7234 18.8562 25.2311C19.3485 24.7388 19.6251 24.0711 19.6251 23.3749C19.6251 22.8557 19.4711 22.3482 19.1827 21.9165C18.8943 21.4849 18.4843 21.1484 18.0046 20.9497C17.525 20.7511 16.9972 20.6991 16.488 20.8004C15.9788 20.9016 15.511 21.1517 15.1439 21.5188C14.7768 21.8859 14.5268 22.3536 14.4255 22.8628C14.3242 23.372 14.3762 23.8998 14.5749 24.3795C14.7736 24.8591 15.11 25.2691 15.5417 25.5575ZM13.4584 11.8333H20.5417C21.0501 11.8333 21.5376 11.6313 21.897 11.2719C22.2565 10.9124 22.4584 10.4249 22.4584 9.91659C22.4584 9.40825 22.2565 8.92074 21.897 8.5613C21.5376 8.20185 21.0501 7.99992 20.5417 7.99992H13.4584C12.9501 7.99992 12.4626 8.20185 12.1031 8.5613C11.7437 8.92074 11.5417 9.40825 11.5417 9.91659C11.5417 10.4249 11.7437 10.9124 12.1031 11.2719C12.4626 11.6313 12.9501 11.8333 13.4584 11.8333Z" fill="white" fill-opacity="0.2" stroke="white"/>
  </g>
  <defs>
    <clipPath id="clip0_26_1617">
      <rect width="34" height="34" fill="white"/>
    </clipPath>
  </defs>
</svg>