<svg xmlns="http://www.w3.org/2000/svg" width="34" height="34" viewBox="0 0 34 34" fill="none">
  <g clip-path="url(#clip0_26_1634)">
    <path d="M18.625 17C18.625 17.8975 17.8975 18.625 17 18.625C16.1025 18.625 15.375 17.8975 15.375 17C15.375 16.1025 16.1025 15.375 17 15.375C17.8975 15.375 18.625 16.1025 18.625 17Z" fill="white" fill-opacity="0.2" stroke="white"/>
    <path d="M29.4118 11.1905L29.4117 11.1905L29.4146 11.1995L30.5333 14.7683C30.5334 14.7686 30.5335 14.7689 30.5336 14.7692C30.7523 15.4737 30.6887 16.2357 30.3561 16.8941C30.0233 17.5529 29.4475 18.0564 28.7502 18.2984L28.749 18.2988L28.4694 18.3967C28.4687 18.3969 28.4681 18.3971 28.4674 18.3974C27.9799 18.564 27.5402 18.8468 27.1862 19.2212C26.8326 19.5953 26.5751 20.0498 26.436 20.5454C26.3017 21.0047 26.2678 21.4875 26.3367 21.9611C26.4057 22.4357 26.5763 22.8898 26.8369 23.2924L26.8368 23.2925L26.844 23.3031L27.2123 23.8414L27.2133 23.8428C27.6293 24.4466 27.7986 25.1867 27.6864 25.9113C27.5744 26.6346 27.1906 27.2878 26.6133 27.7375L23.7411 29.888L23.7411 29.888L23.7371 29.8911C23.4473 30.1127 23.1152 30.2727 22.7612 30.3611C22.4072 30.4496 22.0389 30.4647 21.6789 30.4054C21.3189 30.3461 20.9749 30.2138 20.6679 30.0166C20.361 29.8194 20.0977 29.5614 19.8942 29.2586L19.8943 29.2585L19.8876 29.2491L19.7215 29.0136C19.443 28.5973 19.0641 28.2579 18.6196 28.0268C18.1731 27.7946 17.675 27.6793 17.1719 27.6917L17.1712 27.6918C16.6933 27.7041 16.2251 27.8287 15.8042 28.0553C15.3833 28.2819 15.0215 28.6043 14.7482 28.9965L14.7481 28.9965L14.4223 29.464L14.4164 29.4725L14.4108 29.4813C14.2146 29.7892 13.9577 30.0539 13.6559 30.2593C13.3605 30.4602 13.0281 30.6002 12.6781 30.6711C12.5344 30.6838 12.3898 30.683 12.2462 30.669L12.2189 30.6663L12.1915 30.6666C11.6143 30.6735 11.0503 30.4944 10.5829 30.1559L7.65465 27.9349L7.65213 27.933C7.0491 27.4816 6.64871 26.8103 6.53807 26.0651C6.42743 25.32 6.61549 24.5614 7.06134 23.9542L7.06698 23.9465L7.07232 23.9386C7.37547 23.491 7.56812 22.9778 7.63447 22.4413C7.70082 21.9048 7.63896 21.3602 7.45397 20.8522L7.454 20.8522L7.45232 20.8477L7.37451 20.6402C7.24208 20.1803 7.00466 19.7572 6.68085 19.4045C6.352 19.0463 5.9433 18.7707 5.48794 18.6L5.4031 18.5683H5.31249H5.17107C4.50168 18.3222 3.94957 17.8307 3.62801 17.1919C3.29466 16.5297 3.236 15.7627 3.46477 15.0575L3.466 15.0536L4.62767 11.3703L4.62773 11.3703L4.62999 11.3627C4.73144 11.0224 4.90186 10.7065 5.13063 10.4349C5.3594 10.1632 5.64164 9.94152 5.95977 9.78362L5.9598 9.78367L5.9665 9.78022C6.27095 9.62336 6.60407 9.52989 6.94568 9.50549C7.2873 9.48109 7.63032 9.52626 7.95398 9.63826L7.95397 9.63828L7.958 9.63963C8.45718 9.80763 8.98983 9.85118 9.50966 9.76648C10.0295 9.68179 10.5208 9.47143 10.9408 9.15367L10.9408 9.15368L10.944 9.15123L11.1282 9.00956L11.1282 9.00963L11.1352 9.00408C11.5151 8.70094 11.8221 8.31641 12.0337 7.87883C12.2452 7.44125 12.3559 6.96177 12.3575 6.47574V6.47409L12.3575 6.13409L12.3575 6.13189C12.3543 5.39694 12.6415 4.69048 13.1567 4.16631C13.6711 3.64287 14.3713 3.34355 15.105 3.33325H18.7135C19.0691 3.3343 19.421 3.40554 19.7491 3.54291C20.077 3.68023 20.3746 3.88091 20.6248 4.13346C21.1553 4.67331 21.45 5.40163 21.4442 6.15854H21.4442V6.16242V6.55465C21.4363 7.02202 21.538 7.48475 21.7412 7.90578C21.945 8.32824 22.2453 8.69688 22.6178 8.98197L22.6177 8.98209L22.6276 8.98929L22.7806 9.10058C23.1624 9.38608 23.6074 9.57534 24.0779 9.65228C24.5491 9.72933 25.0319 9.69144 25.4853 9.54185C25.4858 9.54168 25.4864 9.5415 25.4869 9.54132L25.9656 9.38649L25.969 9.38536C26.3133 9.27121 26.6772 9.22758 27.0387 9.25708C27.4003 9.28658 27.7523 9.38861 28.0736 9.55707C28.3949 9.72553 28.679 9.95697 28.9089 10.2376C29.1388 10.5182 29.3098 10.8423 29.4118 11.1905ZM13.9675 21.5384C14.8651 22.1381 15.9204 22.4583 17 22.4583C18.4476 22.4583 19.836 21.8832 20.8596 20.8595C21.8833 19.8359 22.4583 18.4476 22.4583 16.9999C22.4583 15.9204 22.1382 14.865 21.5384 13.9674C20.9387 13.0698 20.0862 12.3702 19.0888 11.9571C18.0914 11.5439 16.9939 11.4359 15.9351 11.6465C14.8763 11.8571 13.9037 12.3769 13.1404 13.1403C12.377 13.9037 11.8571 14.8762 11.6465 15.935C11.4359 16.9939 11.544 18.0914 11.9571 19.0887C12.3703 20.0861 13.0699 20.9386 13.9675 21.5384Z" fill="white" fill-opacity="0.2" stroke="white"/>
  </g>
  <defs>
    <clipPath id="clip0_26_1634">
      <rect width="34" height="34" fill="white"/>
    </clipPath>
  </defs>
</svg>