<svg xmlns="http://www.w3.org/2000/svg" width="34" height="34" viewBox="0 0 34 34" fill="none">
    <g clip-path="url(#clip0_26_1565)">
      <path d="M15.7399 32.0833H15.7398C15.6336 32.0832 15.5283 32.0646 15.4286 32.0285C15.2362 31.9578 15.0731 31.8248 14.9652 31.6505C14.8572 31.476 14.8108 31.2703 14.8336 31.0663L14.8338 31.0648L15.9246 21.0206L15.9848 20.4666H15.4275H7.08335H7.0826C6.91607 20.4669 6.75262 20.4218 6.6098 20.3361C6.46698 20.2505 6.35018 20.1276 6.27196 19.9805L5.83055 20.2154L6.27196 19.9805C6.19374 19.8335 6.15705 19.668 6.16582 19.5017C6.1746 19.3354 6.22851 19.1746 6.32177 19.0366L6.32317 19.0346L17.4993 2.31993C17.4995 2.31962 17.4997 2.31931 17.4999 2.319C17.6143 2.15019 17.7817 2.02433 17.9757 1.96133C18.1694 1.89841 18.3786 1.90182 18.5702 1.971C18.754 2.03967 18.911 2.16556 19.018 2.33016L19.4337 2.05997L19.018 2.33016C19.1235 2.49246 19.1749 2.68391 19.1649 2.87705L18.0754 12.9797L18.0157 13.5333H18.5725L26.9167 13.5333L26.9174 13.5333C27.084 13.5331 27.2474 13.5782 27.3902 13.6638C27.5331 13.7495 27.6499 13.8724 27.7281 14.0194C27.8063 14.1664 27.843 14.332 27.8342 14.4983C27.8254 14.6646 27.7715 14.8253 27.6783 14.9633L27.6769 14.9654L16.5008 31.68C16.5005 31.6803 16.5003 31.6807 16.5001 31.681C16.4161 31.8049 16.303 31.9064 16.1707 31.9765C16.038 32.0469 15.8901 32.0835 15.7399 32.0833Z" fill="white" fill-opacity="0.3" stroke="white"/>
    </g>
    <defs>
      <clipPath id="clip0_26_1565">
        <rect width="34" height="34" fill="white"/>
      </clipPath>
    </defs>
  </svg>