{
	"asset":{
		"generator":"Khronos glTF Blender I/O v3.5.30",
		"version":"2.0"
	},
	"scene":0,
	"scenes":[
		{
			"name":"Scene",
			"nodes":[
				18
			]
		}
	],
	"nodes":[
		{
			"mesh":0,
			"name":"3_Wall_Hori_1__0",
			"translation":[
				0,
				-3.0517578125e-05,
				0
			]
		},
		{
			"children":[
				0
			],
			"name":"3_Wall_Hori_1",
			"translation":[
				0,
				474.31390380859375,
				0
			]
		},
		{
			"mesh":1,
			"name":"Black_Ground_Black_0",
			"translation":[
				0,
				-1.1507359886309132e-05,
				-2.1848129108548164e-05
			]
		},
		{
			"children":[
				2
			],
			"name":"Black_Ground",
			"translation":[
				-226.26390075683594,
				508.7339782714844,
				303.99945068359375
			]
		},
		{
			"mesh":2,
			"name":"Black_LightUpper_Black-Upper_0",
			"translation":[
				0,
				-1.1507359886309132e-05,
				-2.1848129108548164e-05
			]
		},
		{
			"children":[
				4
			],
			"name":"Black_LightUpper",
			"translation":[
				-226.26390075683594,
				508.7339782714844,
				303.99945068359375
			]
		},
		{
			"mesh":3,
			"name":"Black_Wall_Black-Wall_0",
			"translation":[
				0,
				-1.1507359886309132e-05,
				-2.1848129108548164e-05
			]
		},
		{
			"children":[
				6
			],
			"name":"Black_Wall",
			"translation":[
				-226.26390075683594,
				508.7339782714844,
				303.99945068359375
			]
		},
		{
			"name":"Object_18"
		},
		{
			"children":[
				8
			],
			"name":"Camera",
			"rotation":[
				0,
				0.7071066498756409,
				0,
				0.70710688829422
			],
			"scale":[
				99.99999237060547,
				99.99999237060547,
				99.99998474121094
			],
			"translation":[
				0,
				299.9999694824219,
				2399.999755859375
			]
		},
		{
			"mesh":4,
			"name":"Emissive_Cyan__0",
			"translation":[
				0,
				-5.753679943154566e-06,
				-2.2492677089758217e-06
			]
		},
		{
			"children":[
				10
			],
			"name":"Emissive_Cyan",
			"translation":[
				-113.13195037841797,
				107.46368408203125,
				151.99972534179688
			]
		},
		{
			"mesh":5,
			"name":"Emissive_Red_Emissive-Red_0",
			"translation":[
				0,
				1.9010218238690868e-05,
				-1.0384188499301672e-05
			]
		},
		{
			"children":[
				12
			],
			"name":"Emissive_Red",
			"translation":[
				4.631989002227783,
				438.3688049316406,
				303.99945068359375
			]
		},
		{
			"mesh":6,
			"name":"Light_Upper_Light-Upper_0",
			"translation":[
				0,
				5.235252956481418e-06,
				0
			]
		},
		{
			"children":[
				14
			],
			"name":"Light_Upper",
			"translation":[
				-461.791748046875,
				451.1839904785156,
				32.13375473022461
			]
		},
		{
			"children":[
				1,
				3,
				5,
				7,
				9,
				11,
				13,
				15
			],
			"name":"RootNode"
		},
		{
			"children":[
				16
			],
			"name":"ad1345f11d2c4e0da935587239e40846.fbx",
			"rotation":[
				0.70710688829422,
				0,
				0,
				0.7071066498756409
			],
			"scale":[
				0.009999999776482582,
				0.010000000707805157,
				0.010000000707805157
			]
		},
		{
			"children":[
				17
			],
			"name":"Sketchfab_model",
			"rotation":[
				-0.70710688829422,
				0,
				0,
				0.7071066498756409
			]
		}
	],
	"materials":[
		{
			"doubleSided":true,
			"emissiveFactor":[
				0.3419138789176941,
				0,
				1
			],
			"name":"Emissive_Cyan__0",
			"pbrMetallicRoughness":{
				"baseColorFactor":[
					0,
					0,
					0,
					1
				]
			}
		},
		{
			"doubleSided":true,
			"name":"Black",
			"pbrMetallicRoughness":{}
		},
		{
			"doubleSided":true,
			"emissiveFactor":[
				1,
				1,
				1
			],
			"emissiveTexture":{
				"index":0
			},
			"name":"Black-Upper",
			"pbrMetallicRoughness":{
				"baseColorFactor":[
					0,
					0,
					0,
					1
				]
			}
		},
		{
			"doubleSided":true,
			"emissiveFactor":[
				1,
				1,
				1
			],
			"emissiveTexture":{
				"index":1
			},
			"name":"Black-Wall",
			"pbrMetallicRoughness":{
				"baseColorFactor":[
					0,
					0,
					0,
					1
				]
			}
		},
		{
			"doubleSided":true,
			"emissiveFactor":[
				1,
				1,
				1
			],
			"emissiveTexture":{
				"index":2
			},
			"name":"Emissive-Red",
			"pbrMetallicRoughness":{
				"baseColorFactor":[
					0,
					0,
					0,
					1
				]
			}
		},
		{
			"doubleSided":true,
			"emissiveFactor":[
				0.2807151675224304,
				0,
				0.5
			],
			"name":"Light-Upper",
			"pbrMetallicRoughness":{
				"baseColorFactor":[
					0,
					0,
					0,
					1
				]
			}
		}
	],
	"meshes":[
		{
			"name":"3_Wall_Hori_1__0",
			"primitives":[
				{
					"attributes":{
						"POSITION":0,
						"TEXCOORD_0":1,
						"NORMAL":2
					},
					"indices":3,
					"material":0
				}
			]
		},
		{
			"name":"Black_Ground_Black_0",
			"primitives":[
				{
					"attributes":{
						"POSITION":4,
						"TEXCOORD_0":5,
						"NORMAL":6
					},
					"indices":7,
					"material":1
				}
			]
		},
		{
			"name":"Black_LightUpper_Black-Upper_0",
			"primitives":[
				{
					"attributes":{
						"POSITION":8,
						"TEXCOORD_0":9,
						"NORMAL":10
					},
					"indices":11,
					"material":2
				}
			]
		},
		{
			"name":"Black_Wall_Black-Wall_0",
			"primitives":[
				{
					"attributes":{
						"POSITION":12,
						"TEXCOORD_0":13,
						"NORMAL":14
					},
					"indices":15,
					"material":3
				}
			]
		},
		{
			"name":"Emissive_Cyan__0",
			"primitives":[
				{
					"attributes":{
						"POSITION":16,
						"TEXCOORD_0":17,
						"NORMAL":18
					},
					"indices":19,
					"material":0
				}
			]
		},
		{
			"name":"Emissive_Red_Emissive-Red_0",
			"primitives":[
				{
					"attributes":{
						"POSITION":20,
						"TEXCOORD_0":21,
						"NORMAL":22
					},
					"indices":23,
					"material":4
				}
			]
		},
		{
			"name":"Light_Upper_Light-Upper_0",
			"primitives":[
				{
					"attributes":{
						"POSITION":24,
						"TEXCOORD_0":25,
						"NORMAL":26
					},
					"indices":27,
					"material":5
				}
			]
		}
	],
	"textures":[
		{
			"sampler":0,
			"source":0
		},
		{
			"sampler":0,
			"source":1
		},
		{
			"sampler":0,
			"source":2
		}
	],
	"images":[
		{
			"mimeType":"image/png",
			"name":"Image_2",
			"uri":"textures/Image_2.png"
		},
		{
			"mimeType":"image/jpeg",
			"name":"Image_1",
			"uri":"textures/Image_1.jpg"
		},
		{
			"mimeType":"image/png",
			"name":"Image_3",
			"uri":"textures/Image_3.png"
		}
	],
	"accessors":[
		{
			"bufferView":0,
			"componentType":5126,
			"count":490,
			"max":[
				1981.8907470703125,
				359.484375,
				1831.0283203125
			],
			"min":[
				-1981.8907470703125,
				-375.23046875,
				-1401.408447265625
			],
			"type":"VEC3"
		},
		{
			"bufferView":1,
			"componentType":5126,
			"count":490,
			"type":"VEC2"
		},
		{
			"bufferView":2,
			"componentType":5126,
			"count":490,
			"type":"VEC3"
		},
		{
			"bufferView":3,
			"componentType":5123,
			"count":1434,
			"type":"SCALAR"
		},
		{
			"bufferView":4,
			"componentType":5126,
			"count":24287,
			"max":[
				2213.454345703125,
				573.196533203125,
				1683.19091796875
			],
			"min":[
				-1760.926513671875,
				-635.4661254882812,
				-2291.18994140625
			],
			"type":"VEC3"
		},
		{
			"bufferView":5,
			"componentType":5126,
			"count":24287,
			"type":"VEC2"
		},
		{
			"bufferView":6,
			"componentType":5126,
			"count":24287,
			"type":"VEC3"
		},
		{
			"bufferView":7,
			"componentType":5123,
			"count":51990,
			"type":"SCALAR"
		},
		{
			"bufferView":8,
			"componentType":5126,
			"count":13005,
			"max":[
				1320.8968505859375,
				602.4591674804688,
				683.6236572265625
			],
			"min":[
				-868.3690795898438,
				69.8299560546875,
				-1291.6224365234375
			],
			"type":"VEC3"
		},
		{
			"bufferView":9,
			"componentType":5126,
			"count":13005,
			"type":"VEC2"
		},
		{
			"bufferView":10,
			"componentType":5126,
			"count":13005,
			"type":"VEC3"
		},
		{
			"bufferView":11,
			"componentType":5123,
			"count":43956,
			"type":"SCALAR"
		},
		{
			"bufferView":12,
			"componentType":5126,
			"count":11487,
			"max":[
				2214.46337890625,
				545.215087890625,
				1564.1312255859375
			],
			"min":[
				-1761.9359130859375,
				-603.1096801757812,
				-1767.6544189453125
			],
			"type":"VEC3"
		},
		{
			"bufferView":13,
			"componentType":5126,
			"count":11487,
			"type":"VEC2"
		},
		{
			"bufferView":14,
			"componentType":5126,
			"count":11487,
			"type":"VEC3"
		},
		{
			"bufferView":15,
			"componentType":5123,
			"count":24498,
			"type":"SCALAR"
		},
		{
			"bufferView":16,
			"componentType":5126,
			"count":2257,
			"max":[
				2075.222900390625,
				655.3084716796875,
				1754.669921875
			],
			"min":[
				-1856.76708984375,
				-191.5414581298828,
				-2029.5919189453125
			],
			"type":"VEC3"
		},
		{
			"bufferView":17,
			"componentType":5126,
			"count":2257,
			"type":"VEC2"
		},
		{
			"bufferView":18,
			"componentType":5126,
			"count":2257,
			"type":"VEC3"
		},
		{
			"bufferView":19,
			"componentType":5123,
			"count":5001,
			"type":"SCALAR"
		},
		{
			"bufferView":20,
			"componentType":5126,
			"count":707,
			"max":[
				704.7390747070312,
				480.7512512207031,
				1350.3563232421875
			],
			"min":[
				-714.0029907226562,
				-490.7298889160156,
				-1013.3704833984375
			],
			"type":"VEC3"
		},
		{
			"bufferView":21,
			"componentType":5126,
			"count":707,
			"type":"VEC2"
		},
		{
			"bufferView":22,
			"componentType":5126,
			"count":707,
			"type":"VEC3"
		},
		{
			"bufferView":23,
			"componentType":5123,
			"count":1416,
			"type":"SCALAR"
		},
		{
			"bufferView":24,
			"componentType":5126,
			"count":3743,
			"max":[
				838.9794311523438,
				253.3059844970703,
				345.0539245605469
			],
			"min":[
				84.60408782958984,
				179.91859436035156,
				-409.3214416503906
			],
			"type":"VEC3"
		},
		{
			"bufferView":25,
			"componentType":5126,
			"count":3743,
			"type":"VEC2"
		},
		{
			"bufferView":26,
			"componentType":5126,
			"count":3743,
			"type":"VEC3"
		},
		{
			"bufferView":27,
			"componentType":5123,
			"count":20874,
			"type":"SCALAR"
		}
	],
	"bufferViews":[
		{
			"buffer":0,
			"byteLength":5880,
			"byteOffset":0,
			"target":34962
		},
		{
			"buffer":0,
			"byteLength":3920,
			"byteOffset":5880,
			"target":34962
		},
		{
			"buffer":0,
			"byteLength":5880,
			"byteOffset":9800,
			"target":34962
		},
		{
			"buffer":0,
			"byteLength":2868,
			"byteOffset":15680,
			"target":34963
		},
		{
			"buffer":0,
			"byteLength":291444,
			"byteOffset":18548,
			"target":34962
		},
		{
			"buffer":0,
			"byteLength":194296,
			"byteOffset":309992,
			"target":34962
		},
		{
			"buffer":0,
			"byteLength":291444,
			"byteOffset":504288,
			"target":34962
		},
		{
			"buffer":0,
			"byteLength":103980,
			"byteOffset":795732,
			"target":34963
		},
		{
			"buffer":0,
			"byteLength":156060,
			"byteOffset":899712,
			"target":34962
		},
		{
			"buffer":0,
			"byteLength":104040,
			"byteOffset":1055772,
			"target":34962
		},
		{
			"buffer":0,
			"byteLength":156060,
			"byteOffset":1159812,
			"target":34962
		},
		{
			"buffer":0,
			"byteLength":87912,
			"byteOffset":1315872,
			"target":34963
		},
		{
			"buffer":0,
			"byteLength":137844,
			"byteOffset":1403784,
			"target":34962
		},
		{
			"buffer":0,
			"byteLength":91896,
			"byteOffset":1541628,
			"target":34962
		},
		{
			"buffer":0,
			"byteLength":137844,
			"byteOffset":1633524,
			"target":34962
		},
		{
			"buffer":0,
			"byteLength":48996,
			"byteOffset":1771368,
			"target":34963
		},
		{
			"buffer":0,
			"byteLength":27084,
			"byteOffset":1820364,
			"target":34962
		},
		{
			"buffer":0,
			"byteLength":18056,
			"byteOffset":1847448,
			"target":34962
		},
		{
			"buffer":0,
			"byteLength":27084,
			"byteOffset":1865504,
			"target":34962
		},
		{
			"buffer":0,
			"byteLength":10002,
			"byteOffset":1892588,
			"target":34963
		},
		{
			"buffer":0,
			"byteLength":8484,
			"byteOffset":1902592,
			"target":34962
		},
		{
			"buffer":0,
			"byteLength":5656,
			"byteOffset":1911076,
			"target":34962
		},
		{
			"buffer":0,
			"byteLength":8484,
			"byteOffset":1916732,
			"target":34962
		},
		{
			"buffer":0,
			"byteLength":2832,
			"byteOffset":1925216,
			"target":34963
		},
		{
			"buffer":0,
			"byteLength":44916,
			"byteOffset":1928048,
			"target":34962
		},
		{
			"buffer":0,
			"byteLength":29944,
			"byteOffset":1972964,
			"target":34962
		},
		{
			"buffer":0,
			"byteLength":44916,
			"byteOffset":2002908,
			"target":34962
		},
		{
			"buffer":0,
			"byteLength":41748,
			"byteOffset":2047824,
			"target":34963
		}
	],
	"samplers":[
		{
			"magFilter":9729,
			"minFilter":9987
		}
	],
	"buffers":[
		{
			"byteLength":2089572,
			"uri":"room.bin"
		}
	]
}
