<svg width="93" height="14" viewBox="0 0 93 14" fill="none" xmlns="http://www.w3.org/2000/svg">
<g id="beamable-logo 1" clip-path="url(#clip0_83_119)">
<g id="Layer 2">
<g id="Layer 1">
<g id="Group 201">
<path id="Path 662" d="M0.0109253 0.860962H5.64831C6.74708 0.785839 7.83734 1.10205 8.73276 1.75555C9.09555 2.07423 9.381 2.47426 9.56672 2.92425C9.75245 3.37425 9.8334 3.86199 9.80323 4.34922C9.8085 4.95548 9.61534 5.54622 9.2543 6.028C8.85629 6.54834 8.2937 6.912 7.66229 7.05709C8.37772 7.1826 9.02617 7.56305 9.49204 8.1306C9.97678 8.75885 10.2237 9.54386 10.1878 10.3423C10.2093 10.8396 10.1171 11.3351 9.91862 11.7898C9.72011 12.2446 9.42068 12.646 9.04394 12.9626C8.14776 13.6477 7.04297 13.9879 5.92464 13.9232H0.0109253V0.860962ZM5.59355 6.1219C5.80904 6.13201 6.02436 6.09854 6.2271 6.0234C6.42984 5.94827 6.61599 5.83296 6.7748 5.68412C7.06279 5.36701 7.22278 4.95077 7.22278 4.51862C7.22278 4.08647 7.06279 3.67023 6.7748 3.35312C6.61579 3.20474 6.42955 3.08989 6.22682 3.0152C6.02409 2.9405 5.80887 2.90743 5.59355 2.91788H2.59125V6.12444L5.59355 6.1219ZM5.37447 11.8701C5.96972 11.9158 6.56256 11.7543 7.05611 11.412C7.40948 11.0382 7.60692 10.5392 7.60692 10.02C7.60692 9.50084 7.40948 9.00188 7.05611 8.62801C6.56269 8.28553 5.96964 8.12443 5.37447 8.1712H2.59125V11.8701H5.37447Z" fill="white"/>
<path id="Path 663" d="M12.6773 12.8763C12.3054 12.4744 12.0191 11.9984 11.8364 11.4782C11.6537 10.9581 11.5785 10.405 11.6155 9.85377V4.92782C11.5783 4.3762 11.6534 3.82269 11.8361 3.30208C12.0188 2.78148 12.3052 2.30504 12.6773 1.90272C13.3843 1.20651 14.5502 0.858398 16.175 0.858398H20.4581V2.91785H16.175C15.6339 2.87218 15.097 3.04642 14.6813 3.40258C14.5037 3.61147 14.3689 3.85448 14.2849 4.11731C14.2009 4.38013 14.1694 4.65745 14.1921 4.9329V6.36804H19.6466V8.41735H14.1934V9.8563C14.1217 10.3178 14.2328 10.7895 14.5021 11.1676C14.7715 11.5457 15.1771 11.7993 15.6298 11.8726C15.8088 11.9005 15.991 11.9005 16.17 11.8726H20.4905V13.9245H16.17C14.5494 13.9236 13.3851 13.5742 12.6773 12.8763Z" fill="white"/>
<path id="Path 664" d="M35.2455 0.860867H36.5811C37.1314 0.838449 37.6801 0.933985 38.1918 1.1413C38.6092 1.34061 38.969 1.6466 39.2362 2.02954C39.6268 2.60544 39.9695 3.21369 40.2606 3.8479L41.3223 6.03171L42.3841 3.8479C42.6751 3.21369 43.0178 2.60544 43.4085 2.02954C43.6741 1.64716 44.0321 1.3412 44.4478 1.1413C44.9621 0.93362 45.5134 0.838508 46.066 0.862136H47.4016V13.9219H45.0565V3.603C44.9849 3.60437 44.9146 3.62358 44.8519 3.65897C44.7892 3.69436 44.736 3.74485 44.6968 3.80603C44.5383 4.04107 44.3917 4.28417 44.2574 4.53439L41.3223 10.0783L38.3935 4.53693C38.1976 4.1884 38.0512 3.94476 37.9541 3.80603C37.9132 3.74326 37.8592 3.69054 37.7959 3.65169C37.7326 3.61284 37.6617 3.58884 37.5881 3.58143V13.9193H35.2455V0.860867Z" fill="white"/>
<path id="Path 665" d="M57.2823 10.8803H52.2672L51.4071 13.9257H48.8256L51.9561 3.52053C52.1169 2.91205 52.3506 2.32606 52.6519 1.77577C52.8556 1.40574 53.1576 1.10182 53.5232 0.898945C53.9156 0.711169 54.3458 0.620312 54.7791 0.633741C55.2085 0.618515 55.6353 0.708137 56.0238 0.895139C56.3871 1.10285 56.6883 1.40722 56.8952 1.77577C57.2012 2.3216 57.438 2.90491 57.5997 3.51165L60.7289 13.9231H58.1399L57.2823 10.8803ZM56.7147 8.92105L55.1774 3.55225C55.0944 3.22826 54.96 3.06668 54.7741 3.06753C54.5883 3.06837 54.4534 3.22995 54.3696 3.55225L52.8323 8.92105H56.7147Z" fill="white"/>
<path id="Path 666" d="M62.1517 0.860907H67.7891C68.8878 0.785996 69.978 1.10219 70.8735 1.75549C71.2361 2.07437 71.5214 2.47442 71.7071 2.92437C71.8928 3.37432 71.9739 3.86196 71.944 4.34917C71.9488 4.95555 71.7552 5.54628 71.3938 6.02795C70.9958 6.54828 70.4332 6.91195 69.8018 7.05704C70.5174 7.1829 71.1662 7.56325 71.6328 8.13054C72.1181 8.75857 72.3655 9.54363 72.3298 10.3423C72.3513 10.8394 72.2592 11.3348 72.0609 11.7895C71.8626 12.2442 71.5635 12.6457 71.1872 12.9626C70.2905 13.6475 69.1853 13.9877 68.0666 13.9232H62.1542L62.1517 0.860907ZM67.7343 6.12185C67.9496 6.13207 68.1648 6.09864 68.3673 6.0235C68.5699 5.94835 68.7558 5.83298 68.9143 5.68407C69.2028 5.36723 69.3632 4.95089 69.3632 4.51857C69.3632 4.08624 69.2028 3.6699 68.9143 3.35306C68.7556 3.20461 68.5696 3.0897 68.367 3.01499C68.1645 2.94029 67.9494 2.90726 67.7343 2.91782H64.737V6.12438L67.7343 6.12185ZM67.5152 11.87C68.1105 11.9157 68.7033 11.7543 69.1969 11.412C69.5491 11.0383 69.7459 10.5401 69.7459 10.0219C69.7459 9.5036 69.5491 9.00545 69.1969 8.63177C68.7032 8.28984 68.1103 8.12879 67.5152 8.17496H64.737V11.87H67.5152Z" fill="white"/>
<path id="Path 667" d="M74.8193 12.8764C74.4607 12.4671 74.1861 11.9889 74.0117 11.4698C73.8372 10.9507 73.7665 10.4012 73.8036 9.85379V0.860962H76.3877V9.85379C76.3438 10.3993 76.5004 10.9421 76.8271 11.3765C77.0052 11.5521 77.218 11.687 77.4513 11.7721C77.6847 11.8572 77.9331 11.8906 78.1801 11.8701H82.2877V13.9219H78.1801C76.6167 13.9219 75.4964 13.5734 74.8193 12.8764Z" fill="white"/>
<path id="Path 668" d="M84.4909 12.8763C84.119 12.4744 83.8327 11.9984 83.65 11.4782C83.4673 10.9581 83.3921 10.405 83.4291 9.85377V4.92782C83.3919 4.3762 83.467 3.82269 83.6497 3.30208C83.8324 2.78148 84.1188 2.30504 84.4909 1.90272C85.1979 1.20651 86.3638 0.858398 87.9886 0.858398H92.2717V2.91785H87.9886C87.4474 2.87218 86.9105 3.04642 86.4949 3.40258C86.3177 3.61161 86.1835 3.85475 86.1001 4.1176C86.0167 4.38045 85.9859 4.65769 86.0095 4.9329V6.36804H91.4639V8.41735H86.0107V9.8563C85.939 10.3178 86.0501 10.7895 86.3194 11.1676C86.5888 11.5457 86.9944 11.7993 87.4471 11.8726C87.6261 11.9005 87.8083 11.9005 87.9873 11.8726H92.3078V13.9245H87.9873C86.3642 13.9236 85.1987 13.5742 84.4909 12.8763Z" fill="white"/>
<path id="Path 669" d="M31.2375 13.9207H33.8178L30.6886 3.51552C30.5268 2.90742 30.2896 2.32282 29.9828 1.77583C29.7756 1.40856 29.4744 1.10552 29.1115 0.899005C28.7229 0.712191 28.2962 0.622579 27.8668 0.637608C27.4346 0.623342 27.0053 0.712885 26.6133 0.899005C26.2476 1.10166 25.9455 1.40563 25.742 1.77583C25.4419 2.32357 25.2083 2.90647 25.0462 3.51171L21.9182 13.9207H24.4985C25.8341 9.19901 24.2633 14.734 27.4635 3.54724C27.5465 3.22324 27.6809 3.06167 27.8668 3.06251C28.0527 3.06336 28.1883 3.22663 28.2738 3.55232C31.3782 14.413 29.5372 7.91867 31.2375 13.9207Z" fill="#04C6F1"/>
</g>
</g>
</g>
</g>
<defs>
<clipPath id="clip0_83_119">
<rect width="92.2969" height="13.297" fill="white" transform="translate(0.0109253 0.633789)"/>
</clipPath>
</defs>
</svg>
