<svg width="33" height="35" viewBox="0 0 33 35" fill="none" xmlns="http://www.w3.org/2000/svg">
<g id="36cbc8ae92c7711afb9ab1ec9f7174863f4d7c19-22x24-2 1" clip-path="url(#clip0_83_117)">
<path id="Vector" d="M17.3979 6.6227L22.8232 9.76727C23.0182 9.87767 23.0253 10.1839 22.8232 10.2943L16.3767 14.0336C16.1817 14.1476 15.9512 14.1405 15.7703 14.0336L9.3238 10.2943C9.12523 10.1875 9.12169 9.87412 9.3238 9.76727L14.7455 6.6227V0.465332L0.902222 8.49235V24.5463L6.21048 21.4696V15.1804C6.20693 14.9559 6.46933 14.7957 6.66436 14.9168L13.1109 18.6561C13.3059 18.7701 13.4158 18.9731 13.4158 19.1832V26.6582C13.4194 26.8826 13.157 27.0428 12.9619 26.9217L7.53666 23.7771L2.2284 26.8541L16.0718 34.8811L29.915 26.8541L24.6067 23.7771L19.1815 26.9217C18.99 27.0393 18.7205 26.8862 18.7276 26.6582V19.1832C18.7276 18.9588 18.8518 18.7595 19.0325 18.6561L25.4791 14.9168C25.6705 14.7993 25.94 14.9489 25.9329 15.1804V21.4696L31.2411 24.5463V8.49235L17.3979 0.465332V6.6227Z" fill="white"/>
</g>
<defs>
<clipPath id="clip0_83_117">
<rect width="31.2871" height="34.4158" fill="white" transform="translate(0.902222 0.465332)"/>
</clipPath>
</defs>
</svg>
