<svg width="30" height="30" viewBox="0 0 30 30" fill="none" xmlns="http://www.w3.org/2000/svg">
<g id="pin 1" clip-path="url(#clip0_83_855)">
<g id="Layer 2">
<g id="pin">
<path id="Vector" d="M15 13.75C16.0355 13.75 16.875 12.9105 16.875 11.875C16.875 10.8395 16.0355 10 15 10C13.9645 10 13.125 10.8395 13.125 11.875C13.125 12.9105 13.9645 13.75 15 13.75Z" fill="white"/>
<path id="Vector_2" d="M15 2.5C12.3651 2.49987 9.83657 3.5397 7.96405 5.39349C6.09154 7.24728 5.02635 9.7652 5 12.4C5 19.25 13.8125 26.875 14.1875 27.2C14.4139 27.3937 14.7021 27.5001 15 27.5001C15.2979 27.5001 15.5861 27.3937 15.8125 27.2C16.25 26.875 25 19.25 25 12.4C24.9736 9.7652 23.9085 7.24728 22.0359 5.39349C20.1634 3.5397 17.6349 2.49987 15 2.5ZM15 16.25C14.1347 16.25 13.2888 15.9934 12.5694 15.5127C11.8499 15.0319 11.2892 14.3487 10.958 13.5492C10.6269 12.7498 10.5403 11.8701 10.7091 11.0215C10.8779 10.1728 11.2946 9.39326 11.9064 8.78141C12.5183 8.16955 13.2978 7.75287 14.1465 7.58406C14.9951 7.41525 15.8748 7.50189 16.6742 7.83303C17.4737 8.16416 18.1569 8.72492 18.6377 9.44438C19.1184 10.1638 19.375 11.0097 19.375 11.875C19.375 13.0353 18.9141 14.1481 18.0936 14.9686C17.2731 15.7891 16.1603 16.25 15 16.25Z" fill="white"/>
</g>
</g>
</g>
<defs>
<clipPath id="clip0_83_855">
<rect width="30" height="30" fill="white"/>
</clipPath>
</defs>
</svg>
