<svg width="441" height="440" viewBox="0 0 441 440" fill="none" xmlns="http://www.w3.org/2000/svg">
<path d="M440.48 220C440.48 248.891 434.79 277.499 423.733 304.19C412.677 330.882 396.472 355.135 376.043 375.564C355.615 395.992 331.362 412.197 304.67 423.254C277.979 434.31 249.371 440 220.48 440C191.589 440 162.981 434.31 136.29 423.253C109.598 412.197 85.3454 395.992 64.9165 375.563C44.4876 355.135 28.2825 330.882 17.2265 304.19C6.17044 277.499 0.479978 248.891 0.47998 220L220.48 220H440.48Z" fill="url(#paint0_linear_294_42)"/>
<path d="M0.480022 220C0.48002 191.109 6.17048 162.501 17.2265 135.81C28.2825 109.118 44.4876 84.8654 64.9165 64.4365C85.3454 44.0076 109.598 27.8025 136.29 16.7465C162.981 5.69045 191.589 -8.75886e-06 220.48 -1.12846e-05C249.371 -1.38103e-05 277.979 5.69044 304.67 16.7465C331.362 27.8025 355.615 44.0076 376.043 64.4365C396.472 84.8654 412.677 109.118 423.733 135.81C434.789 162.501 440.48 191.109 440.48 220L220.48 220L0.480022 220Z" fill="url(#paint1_linear_294_42)"/>
<path d="M440.48 220C440.48 258.339 430.461 296.013 411.415 329.287C392.37 362.561 364.96 390.281 331.901 409.698C298.842 429.115 261.283 439.556 222.947 439.986C184.61 440.416 146.826 430.82 113.34 412.149L220.48 220H440.48Z" fill="url(#paint2_linear_294_42)"/>
<path d="M0.480022 220C0.480019 181.661 10.4992 143.987 29.5446 110.713C48.5901 77.4386 76.0004 49.7192 109.059 30.3019C142.118 10.8847 179.677 0.443687 218.013 0.0138134C256.35 -0.41603 294.134 9.18016 327.62 27.8513L220.48 220L0.480022 220Z" fill="url(#paint3_linear_294_42)"/>
<path d="M440.48 220C440.48 256.597 431.35 292.616 413.918 324.794C396.486 356.972 371.301 384.293 340.646 404.283L220.48 220H440.48Z" fill="url(#paint4_linear_294_42)"/>
<path d="M0.480022 220C0.480019 183.403 9.60965 147.384 27.042 115.206C44.4743 83.028 69.6587 55.7068 100.314 35.7173L220.48 220L0.480022 220Z" fill="url(#paint5_linear_294_42)"/>
<path d="M220.48 68.5948C222.128 68.5948 223.739 68.106 225.11 67.1904C226.48 66.2747 227.548 64.9732 228.179 63.4505C228.81 61.9277 228.975 60.2522 228.653 58.6357C228.332 57.0192 227.538 55.5343 226.373 54.3689C225.207 53.2034 223.722 52.4098 222.106 52.0882C220.489 51.7667 218.814 51.9317 217.291 52.5624C215.768 53.1932 214.467 54.2613 213.551 55.6317C212.635 57.0021 212.147 58.6133 212.147 60.2614C212.147 62.4716 213.025 64.5912 214.587 66.154C216.15 67.7168 218.27 68.5948 220.48 68.5948Z" fill="#B99EDE"/>
<path d="M232.98 89.4281C233.533 89.4281 234.062 89.2086 234.453 88.8179C234.844 88.4272 235.063 87.8973 235.063 87.3448C235.063 83.4771 233.527 79.7677 230.792 77.0328C228.057 74.2979 224.348 72.7615 220.48 72.7615C216.612 72.7615 212.903 74.2979 210.168 77.0328C207.433 79.7677 205.897 83.4771 205.897 87.3448C205.897 87.8973 206.116 88.4272 206.507 88.8179C206.898 89.2086 207.427 89.4281 207.98 89.4281H232.98Z" fill="#B99EDE"/>
<g clip-path="url(#clip0_294_42)">
<path d="M220.48 364.428C222.128 364.428 223.739 363.939 225.11 363.023C226.48 362.108 227.548 360.806 228.179 359.284C228.81 357.761 228.975 356.085 228.653 354.469C228.332 352.852 227.538 351.367 226.373 350.202C225.207 349.037 223.722 348.243 222.106 347.921C220.489 347.6 218.814 347.765 217.291 348.396C215.768 349.026 214.467 350.094 213.551 351.465C212.635 352.835 212.147 354.446 212.147 356.095C212.147 358.305 213.025 360.424 214.587 361.987C216.15 363.55 218.27 364.428 220.48 364.428Z" fill="#B99EDE"/>
<path d="M232.98 385.261C233.533 385.261 234.062 385.042 234.453 384.651C234.844 384.26 235.063 383.73 235.063 383.178C235.063 379.31 233.527 375.601 230.792 372.866C228.057 370.131 224.348 368.594 220.48 368.594C216.612 368.594 212.903 370.131 210.168 372.866C207.433 375.601 205.897 379.31 205.897 383.178C205.897 383.73 206.116 384.26 206.507 384.651C206.898 385.042 207.427 385.261 207.98 385.261H232.98Z" fill="#B99EDE"/>
</g>
<g clip-path="url(#clip1_294_42)">
<path d="M346.313 142.917C347.961 142.917 349.573 142.428 350.943 141.512C352.313 140.597 353.381 139.295 354.012 137.772C354.643 136.25 354.808 134.574 354.486 132.958C354.165 131.341 353.371 129.856 352.206 128.691C351.04 127.525 349.555 126.732 347.939 126.41C346.322 126.089 344.647 126.254 343.124 126.884C341.601 127.515 340.3 128.583 339.384 129.954C338.469 131.324 337.98 132.935 337.98 134.583C337.98 136.793 338.858 138.913 340.421 140.476C341.983 142.039 344.103 142.917 346.313 142.917Z" fill="#B99EDE"/>
<path d="M358.813 163.75C359.366 163.75 359.896 163.53 360.286 163.14C360.677 162.749 360.897 162.219 360.897 161.667C360.897 157.799 359.36 154.09 356.625 151.355C353.89 148.62 350.181 147.083 346.313 147.083C342.445 147.083 338.736 148.62 336.001 151.355C333.266 154.09 331.73 157.799 331.73 161.667C331.73 162.219 331.949 162.749 332.34 163.14C332.731 163.53 333.261 163.75 333.813 163.75H358.813Z" fill="#B99EDE"/>
</g>
<g clip-path="url(#clip2_294_42)">
<path d="M90.48 144.583C92.1282 144.583 93.7393 144.094 95.1097 143.179C96.4801 142.263 97.5483 140.962 98.179 139.439C98.8097 137.916 98.9747 136.241 98.6532 134.624C98.3317 133.008 97.538 131.523 96.3725 130.357C95.2071 129.192 93.7222 128.398 92.1057 128.077C90.4892 127.755 88.8137 127.92 87.291 128.551C85.7682 129.182 84.4668 130.25 83.5511 131.62C82.6354 132.99 82.1467 134.602 82.1467 136.25C82.1467 138.46 83.0246 140.58 84.5874 142.142C86.1502 143.705 88.2698 144.583 90.48 144.583Z" fill="#B99EDE"/>
<path d="M102.98 165.416C103.533 165.416 104.062 165.197 104.453 164.806C104.844 164.416 105.063 163.886 105.063 163.333C105.063 159.465 103.527 155.756 100.792 153.021C98.0571 150.286 94.3477 148.75 90.48 148.75C86.6122 148.75 82.9029 150.286 80.168 153.021C77.4331 155.756 75.8967 159.465 75.8967 163.333C75.8967 163.886 76.1161 164.416 76.5068 164.806C76.8975 165.197 77.4275 165.416 77.98 165.416H102.98Z" fill="#B99EDE"/>
</g>
<g clip-path="url(#clip3_294_42)">
<path d="M356.313 290.261C357.961 290.261 359.573 289.773 360.943 288.857C362.313 287.941 363.381 286.64 364.012 285.117C364.643 283.594 364.808 281.919 364.486 280.302C364.165 278.686 363.371 277.201 362.206 276.036C361.04 274.87 359.555 274.076 357.939 273.755C356.322 273.433 354.647 273.598 353.124 274.229C351.601 274.86 350.3 275.928 349.384 277.298C348.469 278.669 347.98 280.28 347.98 281.928C347.98 284.138 348.858 286.258 350.421 287.821C351.983 289.383 354.103 290.261 356.313 290.261Z" fill="#B99EDE"/>
<path d="M368.813 311.095C369.366 311.095 369.896 310.875 370.286 310.484C370.677 310.094 370.897 309.564 370.897 309.011C370.897 305.144 369.36 301.434 366.625 298.699C363.89 295.964 360.181 294.428 356.313 294.428C352.445 294.428 348.736 295.964 346.001 298.699C343.266 301.434 341.73 305.144 341.73 309.011C341.73 309.564 341.949 310.094 342.34 310.484C342.731 310.875 343.261 311.095 343.813 311.095H368.813Z" fill="#B99EDE"/>
</g>
<g clip-path="url(#clip4_294_42)">
<path d="M90.48 290.261C92.1282 290.261 93.7393 289.773 95.1097 288.857C96.4801 287.941 97.5483 286.64 98.179 285.117C98.8097 283.594 98.9747 281.919 98.6532 280.302C98.3317 278.686 97.538 277.201 96.3725 276.036C95.2071 274.87 93.7222 274.076 92.1057 273.755C90.4892 273.433 88.8137 273.598 87.291 274.229C85.7682 274.86 84.4668 275.928 83.5511 277.298C82.6354 278.669 82.1467 280.28 82.1467 281.928C82.1467 284.138 83.0246 286.258 84.5874 287.821C86.1502 289.383 88.2698 290.261 90.48 290.261Z" fill="#B99EDE"/>
<path d="M102.98 311.095C103.533 311.095 104.062 310.875 104.453 310.484C104.844 310.094 105.063 309.564 105.063 309.011C105.063 305.144 103.527 301.434 100.792 298.699C98.0571 295.964 94.3477 294.428 90.48 294.428C86.6122 294.428 82.9029 295.964 80.168 298.699C77.4331 301.434 75.8967 305.144 75.8967 309.011C75.8967 309.564 76.1161 310.094 76.5068 310.484C76.8975 310.875 77.4275 311.095 77.98 311.095H102.98Z" fill="#B99EDE"/>
</g>
<defs>
<linearGradient id="paint0_linear_294_42" x1="220.48" y1="3.919e-06" x2="351.98" y2="510.655" gradientUnits="userSpaceOnUse">
<stop stop-color="#6C23CC"/>
<stop offset="1" stop-color="#6C23CC" stop-opacity="0"/>
</linearGradient>
<linearGradient id="paint1_linear_294_42" x1="220.48" y1="440" x2="88.98" y2="-70.6552" gradientUnits="userSpaceOnUse">
<stop stop-color="#6C23CC"/>
<stop offset="1" stop-color="#6C23CC" stop-opacity="0"/>
</linearGradient>
<linearGradient id="paint2_linear_294_42" x1="220.48" y1="3.919e-06" x2="351.98" y2="510.655" gradientUnits="userSpaceOnUse">
<stop stop-color="#6C23CC"/>
<stop offset="1" stop-color="#6C23CC" stop-opacity="0"/>
</linearGradient>
<linearGradient id="paint3_linear_294_42" x1="220.48" y1="440" x2="88.98" y2="-70.6552" gradientUnits="userSpaceOnUse">
<stop stop-color="#6C23CC"/>
<stop offset="1" stop-color="#6C23CC" stop-opacity="0"/>
</linearGradient>
<linearGradient id="paint4_linear_294_42" x1="220.48" y1="3.919e-06" x2="351.98" y2="510.655" gradientUnits="userSpaceOnUse">
<stop stop-color="#6C23CC"/>
<stop offset="1" stop-color="#6C23CC" stop-opacity="0"/>
</linearGradient>
<linearGradient id="paint5_linear_294_42" x1="220.48" y1="440" x2="88.98" y2="-70.6552" gradientUnits="userSpaceOnUse">
<stop stop-color="#6C23CC"/>
<stop offset="1" stop-color="#6C23CC" stop-opacity="0"/>
</linearGradient>
<clipPath id="clip0_294_42">
<rect width="50" height="50" fill="white" transform="translate(195.48 341.511)"/>
</clipPath>
<clipPath id="clip1_294_42">
<rect width="50" height="50" fill="white" transform="translate(321.313 120)"/>
</clipPath>
<clipPath id="clip2_294_42">
<rect width="50" height="50" fill="white" transform="translate(65.48 121.667)"/>
</clipPath>
<clipPath id="clip3_294_42">
<rect width="50" height="50" fill="white" transform="translate(331.313 267.345)"/>
</clipPath>
<clipPath id="clip4_294_42">
<rect width="50" height="50" fill="white" transform="translate(65.48 267.345)"/>
</clipPath>
</defs>
</svg>
