<svg width="26" height="26" viewBox="0 0 26 26" fill="none" xmlns="http://www.w3.org/2000/svg">
<g id="discord 1" opacity="0.5">
<g id="Clip path group">
<mask id="mask0_294_2" style="mask-type:luminance" maskUnits="userSpaceOnUse" x="0" y="0" width="26" height="26">
<g id="clip0_2555_41">
<path id="Vector" d="M26 0.43335H0V25.5667H26V0.43335Z" fill="white"/>
</g>
</mask>
<g mask="url(#mask0_294_2)">
<g id="Group">
<path id="Vector_2" d="M23.3103 25.5667L17.6621 20.2913L18.3398 22.4015H4.48275C3.7694 22.4015 3.08528 22.1236 2.58087 21.6289C2.07646 21.1342 1.79309 20.4633 1.79309 19.7638V3.93773C1.79309 3.23818 2.07646 2.56727 2.58087 2.0726C3.08528 1.57795 3.7694 1.30005 4.48275 1.30005H20.6207C21.3341 1.30005 22.0181 1.57795 22.5225 2.0726C23.0269 2.56727 23.3103 3.23818 23.3103 3.93773V25.5667ZM12.5517 7.41947C9.6684 7.41947 7.64578 8.6328 7.64578 8.6328C8.75392 7.66214 10.6905 7.10295 10.6905 7.10295L10.5076 6.92359C8.68937 6.95524 7.0433 8.18967 7.0433 8.18967C5.19281 11.9774 5.31116 15.2481 5.31116 15.2481C6.81737 17.1578 9.05516 17.0206 9.05516 17.0206L9.81902 16.0711C8.47419 15.7862 7.62426 14.6151 7.62426 14.6151C7.62426 14.6151 9.64688 15.9655 12.5517 15.9655C15.4565 15.9655 17.4792 14.6151 17.4792 14.6151C17.4792 14.6151 16.6292 15.7862 15.2844 16.0711L16.0483 17.0206C16.0483 17.0206 18.2861 17.1578 19.7923 15.2481C19.7923 15.2481 19.9106 11.9774 18.0601 8.18967C18.0601 8.18967 16.4141 6.95524 14.5958 6.92359L14.413 7.10295C14.413 7.10295 16.3495 7.66214 17.4576 8.6328C17.4576 8.6328 15.435 7.41947 12.5517 7.41947ZM10.3247 11.4182C11.024 11.4182 11.5942 12.0196 11.5834 12.7582C11.5834 13.4862 11.024 14.0981 10.3247 14.0981C9.63612 14.0981 9.07668 13.4862 9.07668 12.7582C9.07668 12.0196 9.62537 11.4182 10.3247 11.4182ZM14.811 11.4182C15.5103 11.4182 16.0698 12.0196 16.0698 12.7582C16.0698 13.4862 15.5103 14.0981 14.811 14.0981C14.1225 14.0981 13.563 13.4862 13.563 12.7582C13.563 12.0196 14.1117 11.4182 14.811 11.4182Z" fill="white"/>
</g>
</g>
</g>
</g>
</svg>
