<svg width="26" height="26" viewBox="0 0 26 26" fill="none" xmlns="http://www.w3.org/2000/svg">
<g id="reddit 1" opacity="0.5">
<path id="Vector" d="M15.2414 16.1131C15.3274 16.2067 15.3274 16.4043 15.2414 16.5187C14.456 17.2467 12.9928 17.3091 12.5517 17.3091C12.1321 17.3091 10.669 17.2467 9.90509 16.5187C9.7975 16.4043 9.7975 16.2067 9.90509 16.1131C10.0234 16.0091 10.2063 16.0091 10.3139 16.1131C10.8088 16.5915 11.8309 16.7267 12.5517 16.7267C13.2941 16.7267 14.3376 16.5915 14.811 16.1131C14.9294 16.0091 15.1123 16.0091 15.2414 16.1131ZM11.2069 13.6483C11.2069 13.0555 10.7012 12.5667 10.088 12.5667C9.47475 12.5667 8.96909 13.0555 8.96909 13.6483C8.96909 14.2411 9.47475 14.7403 10.088 14.7299C10.7012 14.7299 11.2069 14.2411 11.2069 13.6483ZM15.0154 12.5667C14.4022 12.5667 13.8965 13.0867 13.8965 13.6587C13.8965 14.2307 14.4022 14.7403 15.0154 14.7403C15.6287 14.7403 16.1343 14.2411 16.1343 13.6587C16.1343 13.0867 15.6287 12.5667 15.0154 12.5667ZM23.3103 12.5667C23.3103 18.2867 18.469 22.9667 12.5517 22.9667C6.63447 22.9667 1.79309 18.2867 1.79309 12.5667C1.79309 6.84675 6.63447 2.16675 12.5517 2.16675C18.469 2.16675 23.3103 6.84675 23.3103 12.5667ZM19.7277 12.5667C19.7277 11.7243 19.0069 11.0483 18.1677 11.0483C17.7374 11.0483 17.3501 11.2147 17.0703 11.4747C15.9945 10.7259 14.5205 10.2475 12.8745 10.1851L13.5953 6.92995L15.9299 7.41875C15.9514 7.99075 16.4463 8.44835 17.0488 8.44835C17.6621 8.44835 18.1677 7.95955 18.1677 7.36675C18.1677 6.77395 17.6621 6.28515 17.0488 6.28515C16.6077 6.28515 16.2204 6.53475 16.0483 6.89875L13.4339 6.35795C13.3586 6.32675 13.2833 6.35795 13.2295 6.39955C13.165 6.44115 13.1327 6.50355 13.1219 6.57635L12.3258 10.1955C10.6582 10.2475 9.15199 10.7259 8.05461 11.4851C7.77488 11.2251 7.38757 11.0691 6.96799 11.0691C6.09654 11.0691 5.39723 11.7451 5.39723 12.5667C5.39723 13.2011 5.78454 13.7211 6.32247 13.9603C6.30095 14.1267 6.29019 14.2515 6.29019 14.4179C6.29019 16.7267 9.09819 18.6507 12.5517 18.6507C16.0267 18.6507 18.8455 16.7579 18.8455 14.4179C18.8455 14.2723 18.8347 14.1267 18.8025 13.9603C19.3404 13.7211 19.7277 13.1907 19.7277 12.5667Z" fill="white"/>
</g>
</svg>
