<svg width="26" height="26" viewBox="0 0 26 26" fill="none" xmlns="http://www.w3.org/2000/svg">
<g id="twitter 1" opacity="0.5">
<path id="Vector" d="M24.2069 6.90778C23.3819 7.28248 22.4927 7.52872 21.5712 7.64648C22.5141 7.07908 23.2426 6.17978 23.5855 5.09848C22.6962 5.63378 21.7105 6.00848 20.6712 6.2226C19.8248 5.3019 18.6356 4.7666 17.2856 4.7666C14.7678 4.7666 12.7107 6.82213 12.7107 9.35942C12.7107 9.72341 12.7535 10.0768 12.8286 10.4086C9.01437 10.2159 5.618 8.38519 3.35734 5.61236C2.96092 6.28684 2.73593 7.07908 2.73593 7.91413C2.73593 9.50935 3.53948 10.9224 4.78231 11.7254C4.02161 11.7254 3.31449 11.5113 2.69307 11.1902V11.2222C2.69307 13.449 4.27875 15.3119 6.3787 15.7294C5.70449 15.9138 4.99669 15.9394 4.31089 15.8044C4.6019 16.717 5.17181 17.5156 5.94052 18.0879C6.70923 18.6601 7.63809 18.9772 8.59651 18.9948C6.97187 20.2799 4.95802 20.9746 2.88592 20.9646C2.52165 20.9646 2.15737 20.9432 1.79309 20.9004C3.82876 22.2064 6.25014 22.9666 8.84294 22.9666C17.2856 22.9666 21.9248 15.965 21.9248 9.89475C21.9248 9.69135 21.9248 9.4986 21.914 9.29519C22.8141 8.65284 23.5855 7.83919 24.2069 6.90778Z" fill="white"/>
</g>
</svg>
