<svg width="29" height="30" viewBox="0 0 29 30" fill="none" xmlns="http://www.w3.org/2000/svg">
<g clip-path="url(#clip0_2555_41)">
<path d="M26 29.5L19.7 23.413L20.456 25.8478H5C4.20435 25.8478 3.44129 25.5272 2.87868 24.9564C2.31607 24.3856 2 23.6115 2 22.8043V4.54348C2 3.7363 2.31607 2.96218 2.87868 2.39141C3.44129 1.82065 4.20435 1.5 5 1.5H23C23.7957 1.5 24.5587 1.82065 25.1213 2.39141C25.6839 2.96218 26 3.7363 26 4.54348V29.5ZM14 8.56087C10.784 8.56087 8.528 9.96087 8.528 9.96087C9.764 8.84087 11.924 8.19565 11.924 8.19565L11.72 7.9887C9.692 8.02522 7.856 9.44956 7.856 9.44956C5.792 13.82 5.924 17.5939 5.924 17.5939C7.604 19.7974 10.1 19.6391 10.1 19.6391L10.952 18.5435C9.452 18.2148 8.504 16.8635 8.504 16.8635C8.504 16.8635 10.76 18.4217 14 18.4217C17.24 18.4217 19.496 16.8635 19.496 16.8635C19.496 16.8635 18.548 18.2148 17.048 18.5435L17.9 19.6391C17.9 19.6391 20.396 19.7974 22.076 17.5939C22.076 17.5939 22.208 13.82 20.144 9.44956C20.144 9.44956 18.308 8.02522 16.28 7.9887L16.076 8.19565C16.076 8.19565 18.236 8.84087 19.472 9.96087C19.472 9.96087 17.216 8.56087 14 8.56087ZM11.516 13.1748C12.296 13.1748 12.932 13.8687 12.92 14.7209C12.92 15.5609 12.296 16.267 11.516 16.267C10.748 16.267 10.124 15.5609 10.124 14.7209C10.124 13.8687 10.736 13.1748 11.516 13.1748ZM16.52 13.1748C17.3 13.1748 17.924 13.8687 17.924 14.7209C17.924 15.5609 17.3 16.267 16.52 16.267C15.752 16.267 15.128 15.5609 15.128 14.7209C15.128 13.8687 15.74 13.1748 16.52 13.1748Z" fill="#FFFFFF"/>
</g>
<defs>
<clipPath id="clip0_2555_41">
<rect width="29" height="29" fill="white" transform="translate(0 0.5)"/>
</clipPath>
</defs>
</svg>
