<svg width="29" height="30" viewBox="0 0 29 30" fill="none" xmlns="http://www.w3.org/2000/svg">
<path d="M25.0005 2.5H4.13616C2.99609 2.5 2 3.32031 2 4.44699V25.3577C2 26.4905 2.99609 27.5 4.13616 27.5H24.9944C26.1406 27.5 27 26.4838 27 25.3577V4.44699C27.0067 3.32031 26.1406 2.5 25.0005 2.5ZM9.74943 23.3387H6.16796V12.2031H9.74943V23.3387ZM8.08258 10.51H8.05691C6.91071 10.51 6.16852 9.65681 6.16852 8.58873C6.16852 7.50112 6.93024 6.66797 8.10211 6.66797C9.27398 6.66797 9.99106 7.49498 10.0167 8.58873C10.0162 9.65681 9.27398 10.51 8.08258 10.51ZM22.8387 23.3387H19.2572V17.25C19.2572 15.7913 18.736 14.7946 17.4403 14.7946C16.4503 14.7946 15.8644 15.4643 15.6038 16.1166C15.5061 16.351 15.4799 16.6702 15.4799 16.9961V23.3387H11.8984V12.2031H15.4799V13.7528C16.0011 13.0106 16.8153 11.9425 18.7098 11.9425C21.0608 11.9425 22.8393 13.4922 22.8393 16.8331L22.8387 23.3387Z" fill="#FFFFFF"/>
</svg>
