<svg width="29" height="30" viewBox="0 0 29 30" fill="none" xmlns="http://www.w3.org/2000/svg">
<path d="M4.83333 4.125H24.1667C24.4871 4.125 24.7945 4.25231 25.0211 4.47891C25.2477 4.70552 25.375 5.01286 25.375 5.33333V24.6667C25.375 24.9871 25.2477 25.2945 25.0211 25.5211C24.7945 25.7477 24.4871 25.875 24.1667 25.875H4.83333C4.51286 25.875 4.20552 25.7477 3.97891 25.5211C3.75231 25.2945 3.625 24.9871 3.625 24.6667V5.33333C3.625 5.01286 3.75231 4.70552 3.97891 4.47891C4.20552 4.25231 4.51286 4.125 4.83333 4.125ZM20.9042 19.7608C20.7833 19.7004 20.7229 19.5192 20.7229 19.3971V10.1739C20.7229 10.0531 20.7833 9.87183 20.9042 9.74979L22.0581 8.41458V8.35417H17.9317L14.8383 16.1818L11.3173 8.35417H7.07117V8.41458L8.16229 9.93225C8.40517 10.1739 8.46558 10.5388 8.46558 10.8421V17.5157C8.526 17.8807 8.46558 18.3048 8.28433 18.6685L6.64583 20.9136V20.974H11.0152V20.9136L9.37667 18.7301C9.19542 18.3652 9.13379 18.0015 9.19542 17.5774V11.5079C9.25583 11.6287 9.31625 11.6288 9.37667 11.8716L13.5019 21.0948H13.5623L17.5692 11.085C17.5087 11.4475 17.5087 11.8728 17.5087 12.1773V19.3367C17.5087 19.518 17.4483 19.6388 17.3275 19.7608L16.1131 20.9136V20.974H22.0593V20.9136L20.9066 19.7608H20.9042Z" fill="#FFFFFF"/>
</svg>
