<svg width="29" height="30" viewBox="0 0 29 30" fill="none" xmlns="http://www.w3.org/2000/svg">
<path d="M17 18.592C17.096 18.7 17.096 18.928 17 19.06C16.124 19.9 14.492 19.972 14 19.972C13.532 19.972 11.9 19.9 11.048 19.06C10.928 18.928 10.928 18.7 11.048 18.592C11.18 18.472 11.384 18.472 11.504 18.592C12.056 19.144 13.196 19.3 14 19.3C14.828 19.3 15.992 19.144 16.52 18.592C16.652 18.472 16.856 18.472 17 18.592ZM12.5 15.748C12.5 15.064 11.936 14.5 11.252 14.5C10.568 14.5 10.004 15.064 10.004 15.748C10.004 16.432 10.568 17.008 11.252 16.996C11.936 16.996 12.5 16.432 12.5 15.748ZM16.748 14.5C16.064 14.5 15.5 15.1 15.5 15.76C15.5 16.42 16.064 17.008 16.748 17.008C17.432 17.008 17.996 16.432 17.996 15.76C17.996 15.1 17.432 14.5 16.748 14.5ZM26 14.5C26 21.1 20.6 26.5 14 26.5C7.4 26.5 2 21.1 2 14.5C2 7.9 7.4 2.5 14 2.5C20.6 2.5 26 7.9 26 14.5ZM22.004 14.5C22.004 13.528 21.2 12.748 20.264 12.748C19.784 12.748 19.352 12.94 19.04 13.24C17.84 12.376 16.196 11.824 14.36 11.752L15.164 7.996L17.768 8.56C17.792 9.22 18.344 9.748 19.016 9.748C19.7 9.748 20.264 9.184 20.264 8.5C20.264 7.816 19.7 7.252 19.016 7.252C18.524 7.252 18.092 7.54 17.9 7.96L14.984 7.336C14.9 7.3 14.816 7.336 14.756 7.384C14.684 7.432 14.648 7.504 14.636 7.588L13.748 11.764C11.888 11.824 10.208 12.376 8.984 13.252C8.672 12.952 8.24 12.772 7.772 12.772C6.8 12.772 6.02 13.552 6.02 14.5C6.02 15.232 6.452 15.832 7.052 16.108C7.028 16.3 7.016 16.444 7.016 16.636C7.016 19.3 10.148 21.52 14 21.52C17.876 21.52 21.02 19.336 21.02 16.636C21.02 16.468 21.008 16.3 20.972 16.108C21.572 15.832 22.004 15.22 22.004 14.5Z" fill="#FFFFFF"/>
</svg>
