<svg width="29" height="30" viewBox="0 0 29 30" fill="none" xmlns="http://www.w3.org/2000/svg">
<path d="M27 7.97059C26.0798 8.40294 25.088 8.68706 24.0602 8.82294C25.1119 8.16824 25.9245 7.13059 26.3069 5.88294C25.315 6.50059 24.2156 6.93294 23.0564 7.18C22.1123 6.11765 20.7859 5.5 19.2801 5.5C16.4718 5.5 14.1773 7.87176 14.1773 10.7994C14.1773 11.2194 14.2251 11.6271 14.3088 12.01C10.0545 11.7876 6.26625 9.67529 3.74474 6.47588C3.30258 7.25412 3.05163 8.16824 3.05163 9.13176C3.05163 10.9724 3.9479 12.6029 5.33413 13.5294C4.48566 13.5294 3.69694 13.2824 3.00382 12.9118V12.9488C3.00382 15.5182 4.77247 17.6676 7.11472 18.1494C6.36272 18.3621 5.57325 18.3917 4.80832 18.2359C5.1329 19.2889 5.76857 20.2104 6.62598 20.8707C7.48339 21.531 8.51942 21.8969 9.58843 21.9171C7.77633 23.4 5.53011 24.2015 3.21893 24.19C2.81262 24.19 2.40631 24.1653 2 24.1159C4.27055 25.6229 6.97132 26.5 9.86329 26.5C19.2801 26.5 24.4546 18.4212 24.4546 11.4171C24.4546 11.1824 24.4546 10.96 24.4426 10.7253C25.4465 9.98412 26.3069 9.04529 27 7.97059Z" fill="#FFFFFF"/>
</svg>
