{"asset":{"generator":"glTF-Transform v3.5.1","version":"2.0","extras":{"author":"McWinterL (https://sketchfab.com/winterlea)","license":"CC-BY-4.0 (http://creativecommons.org/licenses/by/4.0/)","source":"https://sketchfab.com/3d-models/scifi-platform-stage-scene-baked-64adb59a716d43e5a8705ff6fe86c0ce","title":"scifi platform stage scene baked"}},"accessors":[{"type":"SCALAR","componentType":5123,"count":51990,"normalized":false,"byteOffset":0,"bufferView":0},{"type":"VEC3","componentType":5120,"count":22258,"normalized":true,"byteOffset":0,"bufferView":1},{"type":"SCALAR","componentType":5123,"count":24498,"normalized":false,"byteOffset":103980,"bufferView":0},{"type":"VEC3","componentType":5120,"count":10718,"normalized":true,"byteOffset":89032,"bufferView":1},{"type":"SCALAR","componentType":5123,"count":43956,"normalized":false,"byteOffset":152976,"bufferView":0},{"type":"VEC3","componentType":5120,"count":12762,"normalized":true,"byteOffset":131904,"bufferView":1},{"type":"SCALAR","componentType":5123,"count":5001,"normalized":false,"byteOffset":240888,"bufferView":0},{"type":"VEC3","componentType":5120,"count":2255,"normalized":true,"byteOffset":182952,"bufferView":1},{"type":"SCALAR","componentType":5123,"count":1416,"normalized":false,"byteOffset":250890,"bufferView":0},{"type":"VEC3","componentType":5120,"count":602,"normalized":true,"byteOffset":191972,"bufferView":1},{"type":"SCALAR","componentType":5123,"count":20874,"normalized":false,"byteOffset":253722,"bufferView":0},{"type":"VEC3","componentType":5120,"count":3741,"normalized":true,"byteOffset":194380,"bufferView":1},{"type":"SCALAR","componentType":5123,"count":1434,"normalized":false,"byteOffset":295470,"bufferView":0},{"type":"VEC3","componentType":5120,"count":490,"normalized":true,"byteOffset":209344,"bufferView":1},{"type":"VEC3","componentType":5122,"count":22258,"max":[32767,9965,32767],"min":[-32767,-9965,-32767],"normalized":true,"byteOffset":0,"bufferView":2},{"type":"VEC2","componentType":5123,"count":22258,"normalized":true,"byteOffset":0,"bufferView":3},{"type":"VEC3","componentType":5122,"count":10718,"max":[32767,9461,27455],"min":[-32767,-9461,-27455],"normalized":true,"byteOffset":178064,"bufferView":2},{"type":"VEC2","componentType":5123,"count":10718,"normalized":true,"byteOffset":89032,"bufferView":3},{"type":"VEC3","componentType":5122,"count":12762,"max":[32767,7972,29563],"min":[-32767,-7972,-29563],"normalized":true,"byteOffset":263808,"bufferView":2},{"type":"VEC2","componentType":5123,"count":12762,"normalized":true,"byteOffset":131904,"bufferView":3},{"type":"VEC3","componentType":5122,"count":2255,"max":[32767,7056,31535],"min":[-32767,-7056,-31535],"normalized":true,"byteOffset":365904,"bufferView":2},{"type":"VEC2","componentType":5123,"count":2255,"normalized":true,"byteOffset":182952,"bufferView":3},{"type":"VEC3","componentType":5122,"count":602,"max":[19666,13465,32767],"min":[-19666,-13465,-32767],"normalized":true,"byteOffset":383944,"bufferView":2},{"type":"VEC2","componentType":5123,"count":602,"normalized":true,"byteOffset":191972,"bufferView":3},{"type":"VEC3","componentType":5122,"count":3741,"max":[32767,3188,32767],"min":[-32767,-3188,-32767],"normalized":true,"byteOffset":388760,"bufferView":2},{"type":"VEC2","componentType":5123,"count":3741,"normalized":true,"byteOffset":194380,"bufferView":3},{"type":"VEC3","componentType":5122,"count":490,"max":[32767,6072,26723],"min":[-32767,-6072,-26723],"normalized":true,"byteOffset":418688,"bufferView":2},{"type":"VEC2","componentType":5123,"count":490,"normalized":true,"byteOffset":209344,"bufferView":3}],"bufferViews":[{"buffer":1,"byteOffset":0,"byteLength":298338,"target":34963,"extensions":{"EXT_meshopt_compression":{"buffer":0,"byteOffset":0,"byteLength":52820,"mode":"TRIANGLES","byteStride":2,"count":149169}}},{"buffer":1,"byteOffset":298340,"byteLength":211304,"target":34962,"byteStride":4,"extensions":{"EXT_meshopt_compression":{"buffer":0,"byteOffset":52820,"byteLength":43451,"mode":"ATTRIBUTES","filter":"OCTAHEDRAL","byteStride":4,"count":52826}}},{"buffer":1,"byteOffset":509644,"byteLength":422608,"target":34962,"byteStride":8,"extensions":{"EXT_meshopt_compression":{"buffer":0,"byteOffset":96272,"byteLength":211719,"mode":"ATTRIBUTES","byteStride":8,"count":52826}}},{"buffer":1,"byteOffset":932252,"byteLength":211304,"target":34962,"byteStride":4,"extensions":{"EXT_meshopt_compression":{"buffer":0,"byteOffset":307992,"byteLength":145910,"mode":"ATTRIBUTES","byteStride":4,"count":52826}}}],"samplers":[{"magFilter":9729,"minFilter":9987,"wrapS":10497,"wrapT":10497}],"textures":[{"source":0,"sampler":0},{"source":1,"sampler":0},{"source":2,"sampler":0},{"source":3,"sampler":0},{"source":4,"sampler":0}],"images":[{"mimeType":"image/png","uri":"baseColor_1.png"},{"mimeType":"image/jpeg","uri":"baseColor_2.jpg"},{"mimeType":"image/png","uri":"baseColor_3.png"},{"mimeType":"image/png","uri":"emissive_1.png"},{"mimeType":"image/png","uri":"baseColor_4.png"}],"buffers":[{"uri":"room.bin","byteLength":453904},{"byteLength":1143556,"extensions":{"EXT_meshopt_compression":{"fallback":true}}}],"materials":[{"name":"Emissive_Cyan__0","doubleSided":true,"pbrMetallicRoughness":{"baseColorFactor":[0,0.8834365490119369,1,1],"roughnessFactor":0.6,"metallicFactor":0},"emissiveFactor":[0,1,0.9406652057935943],"extensions":{"KHR_materials_ior":{"ior":1000},"KHR_materials_specular":{"specularColorFactor":[0,0,0]}}},{"name":"Black","doubleSided":true,"pbrMetallicRoughness":{"roughnessFactor":0.349331350343163,"metallicFactor":0,"baseColorTexture":{"index":0}},"extensions":{"KHR_materials_ior":{"ior":1000},"KHR_materials_specular":{"specularColorFactor":[0.010666699174702246,0.010666699174702246,0.010666699174702246]}}},{"name":"Black-Wall","doubleSided":true,"pbrMetallicRoughness":{"roughnessFactor":0.8040408205773457,"metallicFactor":0,"baseColorTexture":{"index":1}},"emissiveFactor":[1,1,1],"emissiveTexture":{"index":1},"extensions":{"KHR_materials_ior":{"ior":1000},"KHR_materials_specular":{"specularColorFactor":[0,0,0]}}},{"name":"Black-Upper","doubleSided":true,"pbrMetallicRoughness":{"roughnessFactor":0.8040408205773457,"metallicFactor":0,"baseColorTexture":{"index":2}},"emissiveFactor":[1,1,1],"emissiveTexture":{"index":2},"extensions":{"KHR_materials_ior":{"ior":1000},"KHR_materials_specular":{"specularColorFactor":[0,0,0]}}},{"name":"Emissive-Red","doubleSided":true,"pbrMetallicRoughness":{"baseColorFactor":[1,0,0,1],"roughnessFactor":0.8040408205773457,"metallicFactor":0},"emissiveFactor":[1,1,1],"emissiveTexture":{"index":3},"extensions":{"KHR_materials_ior":{"ior":1000},"KHR_materials_specular":{"specularColorFactor":[0,0,0]}}},{"name":"Light-Upper","doubleSided":true,"pbrMetallicRoughness":{"roughnessFactor":0.8040408205773457,"metallicFactor":0,"baseColorTexture":{"index":4}},"emissiveFactor":[1,1,1],"emissiveTexture":{"index":4},"extensions":{"KHR_materials_ior":{"ior":1000},"KHR_materials_specular":{"specularColorFactor":[0,0,0]}}}],"meshes":[{"name":"Black_Ground_Black_0","primitives":[{"attributes":{"NORMAL":1,"POSITION":14,"TEXCOORD_0":15},"mode":4,"material":1,"indices":0}]},{"name":"Black_Wall_Black-Wall_0","primitives":[{"attributes":{"NORMAL":3,"POSITION":16,"TEXCOORD_0":17},"mode":4,"material":2,"indices":2}]},{"name":"Black_LightUpper_Black-Upper_0","primitives":[{"attributes":{"NORMAL":5,"POSITION":18,"TEXCOORD_0":19},"mode":4,"material":3,"indices":4}]},{"name":"Emissive_Cyan__0","primitives":[{"attributes":{"NORMAL":7,"POSITION":20,"TEXCOORD_0":21},"mode":4,"material":0,"indices":6}]},{"name":"Emissive_Red_Emissive-Red_0","primitives":[{"attributes":{"NORMAL":9,"POSITION":22,"TEXCOORD_0":23},"mode":4,"material":4,"indices":8}]},{"name":"Light_Upper_Light-Upper_0","primitives":[{"attributes":{"NORMAL":11,"POSITION":24,"TEXCOORD_0":25},"mode":4,"material":5,"indices":10}]},{"name":"3_Wall_Hori_1__0","primitives":[{"attributes":{"NORMAL":13,"POSITION":26,"TEXCOORD_0":27},"mode":4,"material":0,"indices":12}]}],"nodes":[{"name":"Sketchfab_model","rotation":[-0.7071067811865475,0,0,0.7071067811865476],"children":[1]},{"name":"ad1345f11d2c4e0da935587239e40846.fbx","rotation":[0.7071067811865475,0,0,0.7071067811865476],"scale":[0.009999999776482582,0.009999999776482582,0.009999999776482582],"children":[2]},{"name":"RootNode","children":[3,5,7,9,11,13,15]},{"name":"Black_Ground","translation":[-226.26390075683594,508.7339782714844,303.9994812011719],"children":[4]},{"name":"Black_Ground_Black_0","translation":[226.263916015625,-31.134796142578125,-303.99951171875],"scale":[1987.1904296875,1987.1904296875,1987.1904296875],"mesh":0},{"name":"Black_Wall","translation":[-226.26390075683594,508.7339782714844,303.9994812011719],"children":[6]},{"name":"Black_Wall_Black-Wall_0","translation":[226.26373291015625,-28.947296142578125,-101.7615966796875],"scale":[1988.1996459960938,1988.1996459960938,1988.1996459960938],"mesh":1},{"name":"Black_LightUpper","translation":[-226.26390075683594,508.7339782714844,303.9994812011719],"children":[8]},{"name":"Black_LightUpper_Black-Upper_0","translation":[226.26388549804688,336.1445617675781,-303.9993896484375],"scale":[1094.6329650878906,1094.6329650878906,1094.6329650878906],"mesh":2},{"name":"Emissive_Cyan","translation":[-113.13195037841797,107.46369171142578,151.99974060058594],"children":[10]},{"name":"Emissive_Cyan__0","translation":[109.2279052734375,231.88350677490234,-137.46099853515625],"scale":[1965.9949951171875,1965.9949951171875,1965.9949951171875],"mesh":3},{"name":"Emissive_Red","translation":[4.631989002227783,438.36883544921875,303.9994812011719],"children":[12]},{"name":"Emissive_Red_Emissive-Red_0","translation":[-4.6319580078125,-4.98931884765625,168.492919921875],"scale":[1181.8634033203125,1181.8634033203125,1181.8634033203125],"mesh":4},{"name":"Light_Upper","translation":[-461.791748046875,451.18402099609375,32.13375473022461],"children":[14]},{"name":"Light_Upper_Light-Upper_0","translation":[461.7917594909668,216.61228942871094,-32.133758544921875],"scale":[377.18768310546875,377.18768310546875,377.18768310546875],"mesh":5},{"name":"3_Wall_Hori_1","translation":[0,474.31396484375,0],"children":[16]},{"name":"3_Wall_Hori_1__0","translation":[0,-7.873046875,214.8099365234375],"scale":[1981.8907470703125,1981.8907470703125,1981.8907470703125],"mesh":6}],"scenes":[{"name":"Sketchfab_Scene","nodes":[0]}],"scene":0,"extensionsUsed":["KHR_materials_ior","KHR_materials_specular","KHR_mesh_quantization","EXT_meshopt_compression"],"extensionsRequired":["KHR_mesh_quantization","EXT_meshopt_compression"]}